<svg id="Capa_1" data-name="Capa 1" xmlns="http://www.w3.org/2000/svg" viewBox="0 0 100 100"><defs><style>.cls-1{fill:#1b5c2a;}</style></defs><path class="cls-1" d="M7.85,47.73a29.1,29.1,0,0,1,12.37,1.2A35.37,35.37,0,0,1,31.61,55a41.24,41.24,0,0,1,8.81,9.77c1.18,1.75,2.13,3.41,3.12,4.69a11,11,0,0,0,2.77,2.73l-8.68,3a88,88,0,0,1,7.92-20.35A90.58,90.58,0,0,1,58.1,37.05,84.4,84.4,0,0,1,74.49,23a68.23,68.23,0,0,1,19.36-8.9C88.56,18.8,83.57,23.44,79,28.38A157.5,157.5,0,0,0,66.38,43.76,139.84,139.84,0,0,0,56.12,60.44a131.86,131.86,0,0,0-7.71,17.91L45.78,86l-6.05-4.69a20.3,20.3,0,0,1-5.14-6c-1.17-2.06-2-3.94-2.78-5.64a51.27,51.27,0,0,0-2.49-4.7,48.06,48.06,0,0,0-3.08-4.38,39.73,39.73,0,0,0-8-7.5A42.91,42.91,0,0,0,7.85,47.73Z"/></svg>