<svg id="Capa_1" data-name="Capa 1" xmlns="http://www.w3.org/2000/svg" viewBox="0 0 100 100"><defs><style>.cls-1{fill:#b92218;stroke:#b94117;stroke-miterlimit:10;stroke-width:6px;}.cls-2{fill:#b94117;}</style></defs><path class="cls-1" d="M10.51,36.62a19.75,19.75,0,0,1,39.5,0"/><path class="cls-1" d="M12.08,47.45C22.17,68.93,45.24,76.65,50,81.89"/><path class="cls-1" d="M10.51,36.62a24.85,24.85,0,0,0,1.57,10.83"/><path class="cls-1" d="M89.49,36.62a19.75,19.75,0,0,0-39.5,0"/><path class="cls-1" d="M87.92,47.45C77.83,68.93,54.76,76.65,50,81.89"/><path class="cls-1" d="M89.49,36.62a24.85,24.85,0,0,1-1.57,10.83"/><rect class="cls-1" x="49.8" y="81.38" width="0.43" height="0.43" transform="translate(-43.04 59.26) rotate(-45)"/><path class="cls-2" d="M11.63,50c3.21,0,3.22-5,0-5s-3.23,5,0,5Z"/><path class="cls-2" d="M11,39.14c3.22,0,3.22-5,0-5s-3.22,5,0,5Z"/><path class="cls-2" d="M88.47,50c3.22,0,3.22-5,0-5s-3.22,5,0,5Z"/><path class="cls-2" d="M89,39.14c3.22,0,3.22-5,0-5s-3.22,5,0,5Z"/><path class="cls-2" d="M11.5,49.83c3.22,0,3.22-5,0-5s-3.22,5,0,5Z"/><path class="cls-2" d="M13.48,36.44l1,2.49,2.41-3.17a.29.29,0,0,1-.24,0A2.53,2.53,0,0,0,13,38.54l1.25,5.82,4.18-2.44c-.59-.55.56-1.43,1.35-1.78a17.53,17.53,0,0,1,6-1.12c4.73-.27,9.51-.12,14.25-.14l29.52-.13,8.18,0,4,0c1.21,0,2.93-.33,4,.12l-1.1-.64s.32-1.05-.06-.37a2.2,2.2,0,0,0,0,.51c0,.45,0,.91-.09,1.35A18.91,18.91,0,0,1,84,42.14a23.26,23.26,0,0,1-1.78,5,24.59,24.59,0,0,1-7,8.38,35.43,35.43,0,0,0-4.52,3.95,36.8,36.8,0,0,1-4,4.1c-2.93,2.33-6.45,3.77-9.56,5.82A45.63,45.63,0,0,0,52.69,73c-1.15,1-2.07,1.61-3.55,1a72.58,72.58,0,0,1-10.7-5,13,13,0,0,1-3.59-3,47.67,47.67,0,0,1-2.62-4.56A11,11,0,0,0,28,57.3a24.29,24.29,0,0,1-4.88-2.86A29.19,29.19,0,0,1,19,49.78c-1-1.33-2.55-3-1.26-4.53,2.49-3.06,7.2-4.06,10.93-3.72v-5a45.81,45.81,0,0,0-10.43,1.22l1.33,4.83A92.89,92.89,0,0,1,42,38.6l-.66-4.91-7.71,1.39a2.48,2.48,0,0,0-1.79,2.74A2.52,2.52,0,0,0,34.31,40a180.58,180.58,0,0,0,18.9.51c3.21-.08,3.23-5,0-5l-19.4.25a2.5,2.5,0,0,0-.66,4.91C42.62,42,52,40.85,61.43,39.6l-.67-4.91-6.3,1.06c-2.78.47-2.14,5.08.66,4.92l15.38-.92c2.43-.14,4.88-.37,7.32-.41.72,0,2-.1,2.54.49,0,.05.2.32.2.32.51.59-.07.28,0,.16l4.57,1.93.25-1.52a2.58,2.58,0,0,0-1.75-3.07,2.52,2.52,0,0,0-3.07,1.74,46.33,46.33,0,0,1-4.41,9.92,73.25,73.25,0,0,1-5.8,9.22C66.27,63.7,59,64.1,53.58,67.29l3,3.93A37.09,37.09,0,0,1,67.41,65l-1.93-4.57L54.34,67.72c-.86.55-1.7,1.13-2.57,1.66-.58.35-1,.61-1.57.38-1-.35-1.83-.86-2.79-1.18a28.69,28.69,0,0,0-3-.79,25.64,25.64,0,0,1-10-4,30.41,30.41,0,0,1-7.25-7.63A96.18,96.18,0,0,1,20.32,44l-1.49,3.67c3.76-1.13,7.51-2.4,11.32-3.35S38,43.42,42,43.5q12.43.24,24.86-.31c2.29-.1,4.59-.22,6.88-.36s4.47-.53,6.61-.11l-1.74-3.07c-.2.8.1-.35.27-.23,0,0-.57.33-.44.27-.55.25-1.16.4-1.73.62a7.86,7.86,0,0,0-3.5,2.6c-1.79,2.33-2.24,5.31-2.55,8.15-.27,2.42,3.66,3.47,4.65,1.26a31.27,31.27,0,0,1,3.7-6.16l-3.92.51s-.25-.39-.18-.46c-.09.09-.21.42-.31.55-.57.74-1.27,1.36-1.78,2.14-1,1.46-1.1,3.2-1.84,4.73s-2.39,2.78-3.68,3.9a43.67,43.67,0,0,1-4.2,3.22,46.75,46.75,0,0,1-9.57,5,12.31,12.31,0,0,1-5.69,1.12,19,19,0,0,1-5.28-1.79c-3.41-1.5-7-3-9.82-5.52a40.63,40.63,0,0,1-6.88-8.61,10,10,0,0,1-1.22-2.16c-.2-.57.05-1-.46-.27s-.3.39.14.39a5.65,5.65,0,0,0,.89-.19c1.89-.34,3.82-.39,5.72-.6,4.14-.46,8.17-1.6,12.31-2,4.8-.41,9.65-.24,14.46-.25h7.07c1.13,0,2.27,0,3.41,0,.65,0,1.3,0,1.94.09.22,0,.43,0,.64.07s.48.21.28.07l-.9-.9.14.21L70,44.16a8.83,8.83,0,0,1-.82,2.67L68,50.38c-.52,1.62-.87,3.68-2.21,4.85a36.7,36.7,0,0,1-5.34,3.33l-5.92,3.56a26.85,26.85,0,0,1-5.23,2.8,9.26,9.26,0,0,1-5.68,0,36.71,36.71,0,0,1-10.59-5,14.32,14.32,0,0,1-6.45-9.63,2.53,2.53,0,0,0-3.08-1.74,2.56,2.56,0,0,0-1.75,3.07c1,6.77,6.47,11.7,12.24,14.69A36.29,36.29,0,0,0,44,70.11,15.25,15.25,0,0,0,54.45,68c3.38-1.9,6.67-4,10-6a38.09,38.09,0,0,0,4.39-2.82,9.78,9.78,0,0,0,3-4.4c.67-1.78,1.2-3.62,1.79-5.43s1.81-4,1.3-5.84S72.35,41.2,70.65,41a56.93,56.93,0,0,0-5.84-.14l-11.71,0a96.74,96.74,0,0,0-11.29.39c-3.79.45-7.5,1.47-11.3,1.86-1.74.18-3.49.29-5.23.53s-4,.43-5.1,2.08C18.05,49,21.26,53,23,55.62a37.29,37.29,0,0,0,6.55,7.73,38.68,38.68,0,0,0,9.28,5.47c3.27,1.47,6.72,3.24,10.41,3.05,4-.21,8.12-2.15,11.65-4a51.78,51.78,0,0,0,9.31-6.26,29.35,29.35,0,0,0,4-3.87,15.56,15.56,0,0,0,2.38-5.16c.52-1.54,1.95-2.42,2.68-3.85a4.78,4.78,0,0,0-.64-5.61c-1.22-1.29-3-.71-3.92.51A30.34,30.34,0,0,0,71,49.8l4.66,1.26c.2-1.87.5-4.62,2.14-5.77a25.93,25.93,0,0,1,3-1.21A4.75,4.75,0,0,0,83.47,41a2.54,2.54,0,0,0-1.75-3.08c-4.09-.8-8.48,0-12.61.19s-8.53.35-12.79.42-8.37.08-12.56,0-8.6-.27-12.86.5c-4.54.83-9,2.48-13.4,3.81A2.54,2.54,0,0,0,16,46.51c3.81,7.73,7.88,15.57,14.86,20.92a26.83,26.83,0,0,0,10.87,4.91,28.1,28.1,0,0,1,6.11,1.82,6.44,6.44,0,0,0,6.44-.46c4.66-2.82,9.15-6,13.72-8.91a2.53,2.53,0,0,0,1-3.13,2.48,2.48,0,0,0-3-1.44,43.85,43.85,0,0,0-13,7.46c-2.22,1.84.63,5.35,3,3.93C59,69.88,62.33,69,65.46,67.76a20,20,0,0,0,8.7-6,79.65,79.65,0,0,0,6.31-9.89,52,52,0,0,0,4.91-11.11l-4.82-1.33-.25,1.52a2.51,2.51,0,0,0,4.57,1.93,5.53,5.53,0,0,0-2-7.33c-2.48-1.62-5.69-1.15-8.48-1L55.12,35.67l.66,4.91,6.31-1.07c2.75-.46,2.14-5.28-.66-4.91-8.88,1.18-18,2.46-26.95,1.24l-.67,4.91,19.4-.25v-5A180.58,180.58,0,0,1,34.31,35L35,39.9l7.71-1.39c2.77-.5,2.13-5-.67-4.91a99.15,99.15,0,0,0-23.8,4.15,2.51,2.51,0,0,0,1.33,4.83,39.28,39.28,0,0,1,9.1-1,2.5,2.5,0,1,0,0-5,18.63,18.63,0,0,0-10.38,2.13c-2.95,1.56-6.13,4.22-6.11,7.85a9,9,0,0,0,1.89,5,51.34,51.34,0,0,0,3.49,4.45,23.93,23.93,0,0,0,3.85,3.47,48.3,48.3,0,0,0,4.47,2.43,7.06,7.06,0,0,1,2.61,3,29,29,0,0,0,2.69,4.39,21.53,21.53,0,0,0,7.71,5.59c1.53.74,3.09,1.41,4.65,2.1,1.81.8,3.7,1.92,5.66,2.25,3.58.61,6.09-1.9,8.58-4s5.63-3.56,8.47-5.25A32.68,32.68,0,0,0,74,63.32c2.38-2.63,5.44-4.44,7.89-7a27.29,27.29,0,0,0,5.39-8.11,26.13,26.13,0,0,0,2.32-9.91A4.23,4.23,0,0,0,87,34c-1.9-.68-4.35-.3-6.35-.29l-24.31.11c-9.07,0-18.13,0-27.2.12-4,0-8.39.11-12,2-3.47,1.74-5.49,6.55-2.28,9.58A2.52,2.52,0,0,0,19.05,43L17.8,37.21,14.13,40a6.29,6.29,0,0,0,2.76.72A2.51,2.51,0,0,0,19.3,37.6l-1-2.49a2.58,2.58,0,0,0-3.08-1.74,2.51,2.51,0,0,0-1.74,3.07Z"/><path class="cls-2" d="M22.63,52a14.6,14.6,0,0,1,5.59-.42,36,36,0,0,0,5.68-.28A53.58,53.58,0,0,1,40,50.81c2,0,4.08.1,6.12,0,4-.27,7.83-1.41,11.8-1.74,1.89-.16,3.79-.17,5.69-.16.89,0,1.79,0,2.68.06a5.19,5.19,0,0,1,1.24.21l.41.11c.39.22.4.23,0,0L67.6,48c0-.45.62-.69.05-.53a5,5,0,0,0-.55.3,10.33,10.33,0,0,1-1.62.47,20.22,20.22,0,0,0-3.59,1,6.67,6.67,0,0,0-4.33,5.63,2.51,2.51,0,0,0,1.83,2.41,2.6,2.6,0,0,0,2.83-1.15,10.09,10.09,0,0,1,3.34-3.1,3.16,3.16,0,0,0,.46-.24c.16,0,.2-.06.12,0a.94.94,0,0,1-.86-.25l-.64-1.1c-.12-.28.38-.56,0-.51-.1,0-.36.28-.45.34a8.66,8.66,0,0,1-1.51.86,9.12,9.12,0,0,1-3,.71l1.77,4.27a1,1,0,0,1,.36-.3c.3-.13.51,0,.11-.08l-1.5-1.15.12.24-.25-1.92c.26-.35.24-.34-.09,0a1.55,1.55,0,0,1-.39.33,7.77,7.77,0,0,1-1,.58,16.35,16.35,0,0,1-2.55.88c-2,.55-5.1.34-5.89,2.7-.51,1.51.75,2.72-.72,3.88-1.25,1-3.2.94-4.7,1l.67,4.91C51,66.9,56.4,65.79,61.42,63.48c2.33-1.07,1.08-4.67-1.26-4.66l-11.52.08,2.41,3.17c.19-.8,1.15-1.4,1.75-1.93s1.47-1.24,2.25-1.8A38.47,38.47,0,0,1,60.71,55c2.52-1.24.76-5.47-1.93-4.57a44.7,44.7,0,0,1-5.7,1.51c-1.57.3-3.58.87-5.11.25l.59,4.57a19.85,19.85,0,0,1,9-2.94l-.66-4.92c-3.77,1.53-7.49,3.15-11.16,4.9l2.53,4.32c1.73-.88,3.49-1.72,5.28-2.46.86-.35,1.73-.68,2.59-1l1.31-.47.88-.29c.67-.14.38-.29-.88-.46l-.4-3a27.33,27.33,0,0,1-10.29,8l3.67,2.83c1.06-4.33,5-6.8,8.55-9,2.77-1.75.37-5.63-2.52-4.31-1.18.53-2.36,1.06-3.56,1.55l-1.77.7c-.39.15-1.31.6-1.49.61l1.26.34L50.66,51l.89.9-.13-.22.34,1.26c-.13-1,1.79-2.34,2.77-2.29a1.15,1.15,0,0,1,1,.46c.17.3,0,.38-.25.6l3.54,3.54a10.53,10.53,0,0,1,6-3.36c2.74-.53,2.15-5.12-.67-4.91a66.82,66.82,0,0,1-7.22.15l1.77,4.27a.33.33,0,0,1,.19-.14l-1.33-4.82c-4.09,1.7-8.47,2.47-12.8,3.31L31.12,52.36,33,56.93l3-1.25c1.9-.81,1.46-4.28-.6-4.57a69.63,69.63,0,0,0-8.53-.74l.66,4.91a38.61,38.61,0,0,1,7.6-.42c3.21,0,3.22-5,0-5l-9.54-.1v5c5.95,0,11.9.05,17.82-.49a2.52,2.52,0,0,0,2.46-2.17,2.47,2.47,0,0,0-1.79-2.74,42.74,42.74,0,0,0-7.41-.51c-2.18.06-4.48.18-6.26,1.59-3.64,2.89-2.93,8.23.27,11.14,1.76,1.59,5,.07,4.18-2.43l-.4-1.25c0-.13-.25-1-.25-.75l-.34,1.26.13-.24-.9.89.21-.11-1.26.34c-.37,0,.15,0,.31,0,.32,0,.63.12,1,.18l2.13.42,4,.78.66-4.91a70.86,70.86,0,0,1-10.4.35v5A97.52,97.52,0,0,0,46,59.07c2.8-.59,2.12-4.9-.66-4.91h-5l1.26,4.66A6.57,6.57,0,0,1,43,58l-1.93-4.57c-4.35,2.07-6.37,8-2.58,11.66,1.67,1.58,4.43,2.42,6.53,1.15,2.38-1.44,2.19-5.29,2.14-7.7a2.57,2.57,0,0,0-2.5-2.5c-2.49-.22-3.56,2.88-2.43,4.72a5.71,5.71,0,0,0,5.21,2.56,2.52,2.52,0,0,0,2.45-2.17,2.45,2.45,0,0,0-1.79-2.74,71.17,71.17,0,0,0-12.79-.91v5a13.56,13.56,0,0,1,4,.24l-.6-4.57a12.13,12.13,0,0,1-3.57,1.25,2.48,2.48,0,0,0-1.79,2.74,2.56,2.56,0,0,0,2.46,2.17,62.49,62.49,0,0,0,8.09.34c3.21-.08,3.23-5.08,0-5a62.49,62.49,0,0,1-8.09-.34l.66,4.91a16.29,16.29,0,0,0,4.77-1.75,2.53,2.53,0,0,0-.6-4.57,18.51,18.51,0,0,0-5.3-.42c-3.17.23-3.25,5.07,0,5a63.73,63.73,0,0,1,11.46.73l.67-4.91c-.07,0-.71-.05-.74,0a.11.11,0,0,0-.08,0c-.51-.59-.47-.24.14,1l-.65,1.1.13-.1L44.5,61l.18,0-2.5-2.5c0,.73,0,1.45,0,2.18a8.84,8.84,0,0,0-.2,1.67c-.15.56.16.37.94-.55h-.34s0,0,0,0a3.2,3.2,0,0,1-.73-.59c-1.05-1.44.62-2.93,1.83-3.51,2.54-1.2.75-5.52-1.92-4.57a11.18,11.18,0,0,0-2.64,1.3c-2,1.35-1.35,4.65,1.26,4.65h5l-.67-4.91a90,90,0,0,1-14.9,1.89,2.5,2.5,0,0,0,0,5,70.86,70.86,0,0,0,10.4-.35,2.54,2.54,0,0,0,2.46-2.17,2.49,2.49,0,0,0-1.79-2.74c-2.69-.52-5.45-1.3-8.18-1.56a3,3,0,0,0-3.33,2.16c-.36,1.32.35,2.76.74,4L34.23,58c-1.12-1-2.17-3.33-.12-4a13.9,13.9,0,0,1,4-.24,35.79,35.79,0,0,1,4.63.34l.66-4.91c-5.92.54-11.87.53-17.82.49-3.22,0-3.22,5,0,5l9.54.1v-5a45.26,45.26,0,0,0-8.93.6c-2.84.54-2.07,4.85.67,4.91a57.88,57.88,0,0,1,7.2.56l-.6-4.57-3,1.25a2.48,2.48,0,0,0-1,3.13,2.52,2.52,0,0,0,3,1.44L46,54.55c4.34-.84,8.72-1.61,12.81-3.31a2.59,2.59,0,0,0,1.75-3.08,2.52,2.52,0,0,0-3.08-1.74,6.26,6.26,0,0,0-2.39,1.42,2.53,2.53,0,0,0,1.76,4.27A66.82,66.82,0,0,0,64.1,52l-.66-4.91a15,15,0,0,0-8.2,4.64,2.5,2.5,0,0,0,3.54,3.54,5.46,5.46,0,0,0,0-7.95c-2.58-2.39-6.45-2-9,.13-2.17,1.76-5.12,7.05-.76,8.25,1.56.43,3.42-.66,4.82-1.22C55.56,53.73,57.29,53,59,52.2l-2.52-4.31c-4.65,2.94-9.47,6.35-10.85,12a2.53,2.53,0,0,0,3.67,2.82,32.27,32.27,0,0,0,12.09-9.83,2.5,2.5,0,0,0-.39-3c-2-2.13-5.21-.44-7.46.43a81.93,81.93,0,0,0-7.78,3.47,2.52,2.52,0,0,0-.89,3.42,2.55,2.55,0,0,0,3.42.9q4.91-2.34,10-4.39A2.54,2.54,0,0,0,60,50.94a2.47,2.47,0,0,0-2.46-2.16A25.16,25.16,0,0,0,46,52.41c-2,1.21-1.34,3.78.6,4.57,2.12.85,4.67.28,6.84-.09a43.22,43.22,0,0,0,6.63-1.68l-1.93-4.57a39.8,39.8,0,0,0-6.71,4.18c-2,1.53-4.62,3.33-5.24,5.92a2.52,2.52,0,0,0,2.41,3.16l11.52-.08L58.9,59.16c-4.6,2.11-9.73,3-14.61,4.23-2.71.66-2.18,5,.66,4.91s5.71-.39,8-2.24A7.27,7.27,0,0,0,55.1,63a5.83,5.83,0,0,0,.38-2,6.78,6.78,0,0,0-.1-1,2.29,2.29,0,0,0-.11-.52c-.07-.33-.1-.22-.08.32L54,61.24c-.13.09.84-.09,1.06-.13.46-.09.91-.18,1.36-.29A25.4,25.4,0,0,0,59.29,60a11.67,11.67,0,0,0,4.59-2.67c1.53-1.59,2-4.58-.62-5.41a5.54,5.54,0,0,0-5.34,1.66c-1.45,1.46-.45,4.4,1.77,4.27a14.41,14.41,0,0,0,6.73-2c2.21-1.37,4.43-3.94,2.59-6.55-1.48-2.11-4.25-1.56-6.14-.4a16.81,16.81,0,0,0-5,4.79l4.66,1.26c.07-.81,2-1.33,2.77-1.52a14.26,14.26,0,0,0,5.3-1.92c2.18-1.58,2.77-4.43.37-6.16-1.78-1.29-4.15-1.42-6.27-1.44a71.85,71.85,0,0,0-13.88,1.21,38.1,38.1,0,0,1-6.73.75c-2.44,0-4.88-.11-7.32.11a65.76,65.76,0,0,1-7.67.65c-2.64-.06-5.28-.32-7.83.56a2.57,2.57,0,0,0-1.75,3.08A2.53,2.53,0,0,0,22.63,52Z"/><path class="cls-2" d="M60.6,32.84l-.28-.19.5.39a3.7,3.7,0,0,1-.62-.63l.39.51a4,4,0,0,1-.45-.78l.25.6a4.43,4.43,0,0,1-.27-1l.09.66a5.17,5.17,0,0,1,0-1.18l-.09.66a5.58,5.58,0,0,1,.36-1.27l-.25.6c.2-.46.46-.89.67-1.34a7.1,7.1,0,0,0,.71-2.42,2.48,2.48,0,0,0-.73-1.76,2.58,2.58,0,0,0-1.77-.74,2.54,2.54,0,0,0-1.77.74l-.39.5a2.43,2.43,0,0,0-.34,1.26l0,.13.09-.67a3.8,3.8,0,0,1-.25.81l.26-.59c-.36.79-.79,1.52-1.1,2.33a6.59,6.59,0,0,0-.42,2.74,6.24,6.24,0,0,0,2.88,5,2.51,2.51,0,0,0,3.42-.89,2.55,2.55,0,0,0-.89-3.42Z"/><path class="cls-2" d="M55.55,33.32c.91-7.12,8.53-10.39,15-10.06a13.7,13.7,0,0,1,13,11.27l3.08-3.07a54.49,54.49,0,0,1-6.72-1.26c-2.17-.59-4.24-1.51-6.42-2.07-4.7-1.21-9.59-.59-14.24.54-2.29.55-2.21,3.37-.6,4.57a7.78,7.78,0,0,0,4.25,1.14c1.55.11,3.1.16,4.66.15a70.32,70.32,0,0,0,9.72-.74A2.47,2.47,0,0,0,79,31.05a2.52,2.52,0,0,0-2.46-2.17A61.05,61.05,0,0,0,62,30.13c-2.47.51-2.28,4.2,0,4.82a22.64,22.64,0,0,0,7.94.73,2.51,2.51,0,0,0,2.45-2.16,2.49,2.49,0,0,0-1.79-2.75l-4.76-1.08c-1.07-.24-2.51-.38-3.37-1.14.06.05-.41-.42-.42-.46-.07-.2.14-.31.22-.38a5.18,5.18,0,0,1,2.93-.83,30.73,30.73,0,0,1,9.1,1.06c1.89.44,4.41.82,5.39,2.73L82.51,27c-6.13-2.32-12.4.39-18.63-.65l.6,4.57a3.71,3.71,0,0,1,3.07-.64l-1.1-4.17a61.37,61.37,0,0,0-4.87,6.26c-1.09,1.6-2.2,3.45-4,4.38-3.9,2-7.9-1.06-9.71-4.39a25.14,25.14,0,0,0-3.94-6,18.45,18.45,0,0,0-5.72-3.88,26.13,26.13,0,0,0-15.75-1.32c-3.07.68-4.85,2.71-6.54,5.19s-3.23,5-3.67,8c-.23,1.62,1.1,3.89,3.08,3.07a41.69,41.69,0,0,1,13.76-3c5-.27,10-.22,15-.28,2,0,3.54-2.85,1.77-4.27-3.5-2.82-7.76-3.23-12.11-3.19l-7.28.09-3.94.05a11.8,11.8,0,0,0-1.33,0c-.85.1,0-.36,0,.42l-2.5,2.5a63.37,63.37,0,0,1,8.93-.17c2.78.16,5.88,1,8-1.38a5,5,0,0,0-1-7.29,12.39,12.39,0,0,0-4-1.41l-4.28-1.13-.67,4.91a56.57,56.57,0,0,1,8.23.49c2,.29,4.82.45,6.4,1.92,2.36,2.19,5.9-1.34,3.54-3.54S38.63,19.42,35.65,19a62.27,62.27,0,0,0-9.93-.73c-2.79,0-3.43,4.18-.66,4.91,2,.51,3.91,1,5.86,1.55a5.46,5.46,0,0,0,.87.27c.36,0-.3.27.05,0,.18-.14-.55-.1-.67-.12a67.57,67.57,0,0,0-12.48-.13,2.57,2.57,0,0,0-2.5,2.5c-.13,2.9,2.51,4.44,5.08,4.57s5.44-.05,8.14-.09c2.42,0,4.86-.14,7.29,0a9.83,9.83,0,0,1,5.61,1.67l1.76-4.26c-10.1.13-20.51-.44-30,3.49l3.08,3.08A15.42,15.42,0,0,1,20,29.25,10.49,10.49,0,0,1,22,26.76a5.84,5.84,0,0,1,2.89-1c4.63-.66,9.59-.17,13.57,2.44a12.13,12.13,0,0,1,3.94,4.3,25.24,25.24,0,0,0,3.9,6,11.92,11.92,0,0,0,13.34,2.8A14.41,14.41,0,0,0,65,36.16a73,73,0,0,1,5-6.52,2.53,2.53,0,0,0-1.1-4.18A8.7,8.7,0,0,0,62,26.6c-1.61,1.07-1.69,4.19.59,4.57a38.24,38.24,0,0,0,9.68,0c3-.27,6-.45,9,.65,2.2.83,3.73-1.91,2.83-3.68-1.74-3.39-5.64-4.4-9.07-5.18-4-.91-8.6-1.77-12.67-.66-3.7,1-6.64,4.63-4.42,8.42a8,8,0,0,0,5,3.4c2.11.58,4.29,1,6.42,1.47l.67-4.91a18.64,18.64,0,0,1-6.61-.55V35a55.1,55.1,0,0,1,13.25-1.07L75.92,29a63.31,63.31,0,0,1-7.9.56c-1.31,0-2.62,0-3.93-.08-1-.05-2.13.08-2.94-.53l-.6,4.57c4.11-1,8.33-1.54,12.45-.3,2,.61,4,1.43,6,2a57.77,57.77,0,0,0,6.28,1.14,2.55,2.55,0,0,0,3.08-3.07c-1.43-8.79-9.67-14.7-18.26-15A21.56,21.56,0,0,0,57,22a16.2,16.2,0,0,0-6.49,11.28,2.51,2.51,0,0,0,2.5,2.5,2.56,2.56,0,0,0,2.5-2.5Z"/></svg>