<svg id="Capa_1" data-name="Capa 1" xmlns="http://www.w3.org/2000/svg" viewBox="0 0 100 100"><defs><style>.cls-1{fill:none;}.cls-1,.cls-2{stroke:#1d1d1b;stroke-miterlimit:10;stroke-width:4px;}.cls-2,.cls-3{fill:#1d1d1b;}</style></defs><path class="cls-1" d="M6,40a19.75,19.75,0,0,1,39.5,0"/><path class="cls-1" d="M7.57,50.84C17.66,72.32,40.73,80,45.5,85.28"/><path class="cls-1" d="M6,40A24.85,24.85,0,0,0,7.57,50.84"/><path class="cls-1" d="M85,40a19.75,19.75,0,1,0-39.5,0"/><path class="cls-1" d="M83.41,50.84C73.31,72.32,50.25,80,45.48,85.28"/><path class="cls-1" d="M85,40a24.85,24.85,0,0,1-1.57,10.83"/><rect class="cls-2" x="45.29" y="84.77" width="0.43" height="0.43" transform="translate(-46.76 57.06) rotate(-45)"/><path class="cls-3" d="M13.6,32.82a59,59,0,0,0,2.76,7.49l4.32-2.53-1.41-2.33A20,20,0,0,1,18,33.2l.26.6a4.27,4.27,0,0,1-.26-.91l.09.66a3.65,3.65,0,0,1,0-.47,2.52,2.52,0,0,0-2.5-2.5,2.55,2.55,0,0,0-2.5,2.5,7.58,7.58,0,0,0,1.39,4.09l1.89,3.14a2.51,2.51,0,0,0,4.57-.6L21,39a2.53,2.53,0,0,0-.34-1.26q-.22-.48-.42-1l.25.6a51.42,51.42,0,0,1-2.08-5.93,2.5,2.5,0,0,0-4.83,1.33Z"/><path class="cls-3" d="M16,26.6a10.07,10.07,0,0,0-5.88,4.65,15.65,15.65,0,0,0-1.6,6.12l.27-2a8.21,8.21,0,0,1-.42,1.76l.75-1.79c-.36.66-.16.44.58-.66l11.78,1.52a3.42,3.42,0,0,1-.35-.62l.76,1.79a5.21,5.21,0,0,1-.27-1l.27,2a6.61,6.61,0,0,1,0-1.09l-.27,2A7.46,7.46,0,0,1,22,37.79l-.75,1.79a14.38,14.38,0,0,1,1.11-1.89c.71-1.09-.78,1-.25.31l.61-.78a13.61,13.61,0,0,1,1.21-1.31c1-.94-.39.09-.46.32.07-.22.86-.47,1-.55l-1.79.76A9.59,9.59,0,0,1,24.44,36l-2,.27a45.27,45.27,0,0,1,8-.21l-2-.27a8,8,0,0,1,1.88.5l-1.79-.75c.26.12.5.28.76.41.74.37-1.38-1.28-.55-.45.2.21.42.4.62.62.45.48.58,1.11-.38-.55a28.76,28.76,0,0,1,1.72,3.19L29.93,37c1,2.44,1.78,5.06,3.35,7.19a13.31,13.31,0,0,0,11,5.82,16.52,16.52,0,0,0,9.26-2.84,17.86,17.86,0,0,0,4.07-3.83,21.06,21.06,0,0,0,2.78-5.19l-.75,1.79c.15-.36.33-.71.5-1.07.5-1.08-1,.93-.36.41,1-.81-.3-.06-.46.28a4.75,4.75,0,0,1,1-.72,26.82,26.82,0,0,1,4.12-2.31l-1.8.76a16.84,16.84,0,0,1,4-1.17l-2,.27a13.35,13.35,0,0,1,3,0l-2-.26a11.68,11.68,0,0,1,2.54.64L66.55,36c.47.19.89.43,1.34.66.9.48-.51-.49-.61-.52.25.08.53.46.7.65s.83,1,.09,0-.13-.12,0,.11a13.61,13.61,0,0,1,.85,1.71l-.76-1.79a17.66,17.66,0,0,1,1.07,4l-.27-2a13,13,0,0,1,0,2.79l.27-2A41.26,41.26,0,0,1,66.15,49l.76-1.79a35.18,35.18,0,0,1-1.63,3.39c-.3.54-.63,1.08-1,1.6-.15.23-.32.45-.47.68-.5.75,1.13-1.33.28-.36a58.32,58.32,0,0,1-6,5.61l-3,2.59-1.57,1.34-.88.72c-.19.15-1,.83-.14.12s-.11.06-.34.22l-.74.49c-.56.35-1.13.69-1.72,1-1.23.67-2.51,1.26-3.8,1.81l1.79-.75a37.92,37.92,0,0,1-5.35,2l2-.27-.41,0,2,.27-.4-.09,1.79.75a9.41,9.41,0,0,1-1.47-.86c-.23-.16-1.3-1-.31-.2s.09,0-.1-.11a29.68,29.68,0,0,1-2.57-2.57,12.89,12.89,0,0,0-3.61-2.84C37.64,61,36,60.57,34.38,59.9l1.79.76a20.92,20.92,0,0,1-2.69-1.42,12.75,12.75,0,0,0-1.17-.8c1,.77,1.16.91.56.42-.21-.17-.41-.35-.61-.53-.68-.62-1.23-1.53-1.95-2.07.72,1,.85,1.12.38.5l-.26-.35c-.64-.86-1.28-1.72-1.95-2.56a35.72,35.72,0,0,0-4.24-4.1c-.4-.36-.76-.76-1.15-1.14-1-1,.91,1.39.2.29a17.19,17.19,0,0,1-1.51-2.76l.75,1.8a15.67,15.67,0,0,1-.93-3.41l.27,2a13.59,13.59,0,0,1-.12-2.3l-.27,2a1.61,1.61,0,0,1,.17-.65l-.76,1.79-2.05,2.13-1.79.75c.81-.31,1.69-.34,2.51-.61a19.87,19.87,0,0,0,3.84-1.75,43,43,0,0,1,4.71-2.81l-1.8.75A8,8,0,0,1,28,45.37l-2,.27a2.93,2.93,0,0,1,.66,0l-2-.27.29.09-3.31-1.93-.79-1-.75-1.79a7.2,7.2,0,0,1,.29,1.13l-.27-2a7.2,7.2,0,0,1,0,1.54l.27-2c-.6,3.61-2.71,7-1.68,10.76a8.54,8.54,0,0,0,8,6.36c2.38.11,4.28-.88,6.4-1.78l-1.79.76a17.63,17.63,0,0,1,3.91-1l-2,.27a17.61,17.61,0,0,1,4,0l-2-.27c3,.41,6,1.24,9,1.43A21.56,21.56,0,0,0,54.41,53.6a39.71,39.71,0,0,0,6.23-3.74,63.62,63.62,0,0,1,6.68-4.57l-1.79.76a2.58,2.58,0,0,1,.81-.23l-2,.27h.33l-2-.27a2,2,0,0,1,.63.16l-1.79-.76c.66.36.42.16-.69-.6-.77-1.11-1-1.33-.58-.68l-.76-1.79a4.32,4.32,0,0,1,.29,1l-.27-2a3.66,3.66,0,0,1,0,.81l.27-2a7.72,7.72,0,0,1-.41,1.57l.75-1.79c-.46,1-1.15,1.85-1.7,2.81.93-1.65.62-.79.15-.26s-.73.81-1.11,1.19c-.68.67-1.39,1.31-2.13,1.91l-.64.52q1.47-1.12.54-.42l-1.18.85a61.24,61.24,0,0,1-10.74,6.44L45.11,52A18.58,18.58,0,0,1,41,53.2l2-.26a15.52,15.52,0,0,1-4,0l2,.27a24.65,24.65,0,0,1-5.63-1.68l1.79.75c-1.51-.66-.65-.71,1.2,1.72l.76,1.79-.09-.26.26,2v-.28l-.27,2,.07-.26-.75,1.79.15-.2-2.69,2.69.23-.12-3.78,1,.32,0-3.79-1c-1-.87-1.25-1.09-.79-.66.15.14.31.28.45.43s.46.53.71.77c.58.58-1-1.57-.28-.36.23.35.46.69.68,1,2,3.36,6.83,4.91,10.26,2.69a7.62,7.62,0,0,0,2.69-10.26c-2.79-4.64-8.19-10.12-14-6.63a8.41,8.41,0,0,0-3.9,9.33c.81,3.59,3.94,5.28,7,6.56a23.82,23.82,0,0,0,10.12,2,26.69,26.69,0,0,0,11.08-3.24,75.64,75.64,0,0,0,7.08-4.37,57.51,57.51,0,0,0,7.57-5.8,24.49,24.49,0,0,0,6.35-9.13,10.88,10.88,0,0,0-4.59-13.17,10,10,0,0,0-10.06.3c-1.45.88-2.82,2-4.21,2.92a51.12,51.12,0,0,1-8.33,5.16L48.44,40A16.26,16.26,0,0,1,44.83,41l2-.27a14.7,14.7,0,0,1-3.92,0l2,.27c-3.24-.48-6.44-1.42-9.74-1.42a25.91,25.91,0,0,0-10.82,2.68l1.79-.75a5.7,5.7,0,0,1-.92.26l2-.26a1.62,1.62,0,0,1-.58,0l2,.27-.25-.08,1.79.75L30,42.3,32.64,45l-.17-.22.76,1.79-.1-.4.27,2a3.78,3.78,0,0,1,.06-.82l-.27,2c.36-2,1.26-3.91,1.62-5.94.86-5-.49-10.93-6-12.47-3.25-.9-6.81.27-9.63,1.91-1.59.92-3,2.08-4.71,2.85l1.79-.76a11.92,11.92,0,0,1-2.27.62A8.91,8.91,0,0,0,9.28,38c-2.78,3-2.75,6.69-2.14,10.49a20.93,20.93,0,0,0,6.34,11.7c1.33,1.23,3.17,2.33,4.13,3.9L17,63.28l.52.7.78,1a31.25,31.25,0,0,0,2.81,3.36,27.6,27.6,0,0,0,5.36,4.14,42.61,42.61,0,0,0,6.62,2.85l-1.79-.75a5.72,5.72,0,0,0,1.07.55l-.92-.7.53.53c.57.59,1.1,1.22,1.69,1.8A27.92,27.92,0,0,0,39,81a9.83,9.83,0,0,0,8.93.66c2.14-.8,4.25-1.65,6.34-2.58a42,42,0,0,0,10.18-6.66c2.72-2.29,5.5-4.53,8.1-7A30,30,0,0,0,79.36,56a70.06,70.06,0,0,0,4-10.6C85.88,36,81.06,24.6,71.27,21.92c-5-1.37-10.1-.34-14.73,1.82a29.79,29.79,0,0,0-4.75,2.86,15.27,15.27,0,0,0-4.14,4,21.25,21.25,0,0,0-1.83,3.89l.75-1.8a10.89,10.89,0,0,1-.76,1.53c-.69,1.11.38-.25.42-.48,0,.21-.48.53-.62.67s-.36.32-.54.49c-.64.59,1.53-1,.48-.41a15.43,15.43,0,0,1-1.62.83l1.79-.75a11.06,11.06,0,0,1-2.12.57l2-.27a9.87,9.87,0,0,1-2.24,0l2,.27a7.13,7.13,0,0,1-1.51-.39l1.79.76a4.3,4.3,0,0,1-.6-.32c-.63-.42-.39-.23.71.57a5.22,5.22,0,0,1-.46-.48c.77,1,1,1.33.65.85a17.39,17.39,0,0,1-1.23-2.34l.75,1.8c-1.6-3.83-2.89-7.9-6.12-10.75a13.77,13.77,0,0,0-6.91-3.56,39.16,39.16,0,0,0-7.42-.2,19.28,19.28,0,0,0-8.44,1.74,15.61,15.61,0,0,0-4.95,4.34C9.82,29.51,8,31.69,7.26,34.56a11.6,11.6,0,0,0,1.22,9.22C11,47.64,16.87,49,20.26,45.3a11.87,11.87,0,0,0,2.65-4.5,23.32,23.32,0,0,0,.61-3.8l-.27,2a8,8,0,0,1,.39-1.67l-.76,1.79a4.75,4.75,0,0,1,.31-.59,5.46,5.46,0,0,1-1.77,1.87l-1.79.76.3-.1c3.74-1.19,6.52-5.26,5.24-9.23C24,28.1,20,25.32,16,26.6Z"/></svg>