<svg xmlns="http://www.w3.org/2000/svg" viewBox="0 0 2362.21 96.64"><defs><style>.cls-1,.cls-10,.cls-14,.cls-17,.cls-8{fill:#fff;}.cls-16,.cls-2,.cls-4,.cls-6{fill:#1d1d1b;}.cls-15,.cls-3,.cls-5,.cls-9{fill:none;}.cls-10,.cls-14,.cls-15,.cls-16,.cls-3,.cls-4,.cls-5,.cls-6,.cls-8,.cls-9{stroke:#1d1d1b;}.cls-10,.cls-11,.cls-14,.cls-15,.cls-16,.cls-17,.cls-3,.cls-4,.cls-5,.cls-6,.cls-8,.cls-9{stroke-miterlimit:10;}.cls-11,.cls-3,.cls-4{stroke-width:6px;}.cls-5,.cls-6,.cls-8{stroke-width:4px;}.cls-7{fill:#1b5c2a;}.cls-14,.cls-9{stroke-width:0.5px;}.cls-10,.cls-15,.cls-16,.cls-17{stroke-width:2px;}.cls-11,.cls-12{fill:#b92218;}.cls-11{stroke:#b94117;}.cls-13{fill:#b94117;}.cls-17{stroke:#fff;}.cls-18{fill:#9bc31e;}</style></defs><g id="Capa_1" data-name="Capa 1"><path class="cls-1" d="M60.72,40.44a21.38,21.38,0,1,1-17.24-21,21.57,21.57,0,0,1,17.24,21c0,3.22,5,3.23,5,0a26.38,26.38,0,0,0-46.59-17A26.38,26.38,0,0,0,44.48,66.32C56.75,64,65.63,52.81,65.72,40.44,65.75,37.23,60.75,37.22,60.72,40.44Z" transform="translate(-13 -1.7)"/><path class="cls-1" d="M85.48,75.33,65.5,57l-2.84-2.6c-1.93-1.77-5.19-2-7.07,0a5.07,5.07,0,0,0,0,7.07l20,18.31L78.4,82.4c1.93,1.76,5.19,2,7.08,0s2-5.19,0-7.07Z" transform="translate(-13 -1.7)"/><path class="cls-2" d="M180.77,41.5a21.39,21.39,0,1,1-17.24-21,21.58,21.58,0,0,1,17.24,21c0,3.21,5,3.22,5,0A26.39,26.39,0,1,0,136.7,55a26.7,26.7,0,0,0,27.82,12.38c12.27-2.33,21.16-13.52,21.25-25.88C185.79,38.28,180.79,38.27,180.77,41.5Z" transform="translate(-13 -1.7)"/><path class="cls-2" d="M205.52,76.38l-20-18.32-2.84-2.6c-1.93-1.77-5.19-2.05-7.07,0a5.07,5.07,0,0,0,0,7.07l20,18.31,2.84,2.61c1.93,1.77,5.19,2,7.07,0s2.06-5.18,0-7.07Z" transform="translate(-13 -1.7)"/><path class="cls-3" d="M250.48,40.31a19.76,19.76,0,0,1,39.51,0" transform="translate(-13 -1.7)"/><path class="cls-3" d="M290,40.31" transform="translate(-13 -1.7)"/><path class="cls-3" d="M263.92,69.35" transform="translate(-13 -1.7)"/><path class="cls-3" d="M252.05,51.14c10.1,21.48,33.17,29.2,37.94,34.44" transform="translate(-13 -1.7)"/><path class="cls-3" d="M250.48,40.31a25,25,0,0,0,1.57,10.83" transform="translate(-13 -1.7)"/><path class="cls-3" d="M329.47,40.31a19.76,19.76,0,0,0-39.51,0" transform="translate(-13 -1.7)"/><path class="cls-3" d="M290,40.31" transform="translate(-13 -1.7)"/><path class="cls-3" d="M316,69.35" transform="translate(-13 -1.7)"/><path class="cls-3" d="M327.9,51.14C317.8,72.62,294.74,80.34,290,85.58" transform="translate(-13 -1.7)"/><path class="cls-3" d="M329.47,40.31a25,25,0,0,1-1.57,10.83" transform="translate(-13 -1.7)"/><rect class="cls-4" x="289.78" y="85.07" width="0.43" height="0.43" transform="translate(11.63 228.33) rotate(-45)"/><path class="cls-5" d="M366,40a19.75,19.75,0,0,1,39.5,0" transform="translate(-13 -1.7)"/><path class="cls-5" d="M405.5,40" transform="translate(-13 -1.7)"/><path class="cls-5" d="M379.43,69.05" transform="translate(-13 -1.7)"/><path class="cls-5" d="M367.57,50.84C377.66,72.32,400.73,80,405.5,85.28" transform="translate(-13 -1.7)"/><path class="cls-5" d="M366,40a24.85,24.85,0,0,0,1.57,10.83" transform="translate(-13 -1.7)"/><path class="cls-5" d="M445,40a19.75,19.75,0,1,0-39.5,0" transform="translate(-13 -1.7)"/><path class="cls-5" d="M405.48,40" transform="translate(-13 -1.7)"/><path class="cls-5" d="M431.55,69.05" transform="translate(-13 -1.7)"/><path class="cls-5" d="M443.41,50.84c-10.1,21.48-33.16,29.2-37.93,34.44" transform="translate(-13 -1.7)"/><path class="cls-5" d="M445,40a24.85,24.85,0,0,1-1.57,10.83" transform="translate(-13 -1.7)"/><rect class="cls-6" x="405.29" y="84.77" width="0.43" height="0.43" transform="translate(45.68 309.92) rotate(-45)"/><path class="cls-2" d="M373.6,32.82a59,59,0,0,0,2.76,7.49l4.32-2.53-1.41-2.33A20,20,0,0,1,378,33.2l.26.6a4.27,4.27,0,0,1-.26-.91l.09.66a3.65,3.65,0,0,1,0-.47,2.52,2.52,0,0,0-2.5-2.5,2.55,2.55,0,0,0-2.5,2.5,7.58,7.58,0,0,0,1.39,4.09l1.89,3.14a2.51,2.51,0,0,0,4.57-.6L381,39a2.53,2.53,0,0,0-.34-1.26q-.23-.48-.42-1l.25.6a51.42,51.42,0,0,1-2.08-5.93,2.5,2.5,0,0,0-4.83,1.33Z" transform="translate(-13 -1.7)"/><path class="cls-2" d="M376,26.6a10.07,10.07,0,0,0-5.88,4.65,15.65,15.65,0,0,0-1.6,6.12l.27-2a8.21,8.21,0,0,1-.42,1.76l.75-1.79c-.36.66-.16.44.58-.66l11.78,1.52a3.42,3.42,0,0,1-.35-.62l.76,1.79a5.21,5.21,0,0,1-.27-1l.27,2a6.61,6.61,0,0,1,0-1.09l-.27,2a7.46,7.46,0,0,1,.41-1.47l-.75,1.79a14.38,14.38,0,0,1,1.11-1.89c.71-1.09-.78,1-.25.31l.61-.78a13.61,13.61,0,0,1,1.21-1.31c1-.94-.39.09-.46.32.07-.22.86-.47,1-.55l-1.79.76a9.59,9.59,0,0,1,1.74-.42l-2,.27a45.27,45.27,0,0,1,8-.21l-2-.27a8,8,0,0,1,1.88.5l-1.79-.75c.26.12.5.28.76.41.74.37-1.38-1.28-.55-.45.2.21.42.4.62.62.45.48.58,1.11-.38-.55a28.76,28.76,0,0,1,1.72,3.19L389.93,37c1,2.44,1.78,5.06,3.35,7.19a13.31,13.31,0,0,0,11,5.82,16.52,16.52,0,0,0,9.26-2.84,17.86,17.86,0,0,0,4.07-3.83,21.06,21.06,0,0,0,2.78-5.19l-.75,1.79c.15-.36.33-.71.5-1.07.5-1.08-1,.93-.36.41,1-.81-.3-.06-.46.28a4.75,4.75,0,0,1,1-.72,26.82,26.82,0,0,1,4.12-2.31l-1.8.76a16.84,16.84,0,0,1,4-1.17l-2,.27a13.35,13.35,0,0,1,3,0l-2-.26a11.68,11.68,0,0,1,2.54.64L426.55,36c.47.19.89.43,1.34.66.9.48-.51-.49-.61-.52.25.08.53.46.7.65s.83,1,.09,0-.13-.12,0,.11a13.61,13.61,0,0,1,.85,1.71l-.76-1.79a17.66,17.66,0,0,1,1.07,4l-.27-2a13,13,0,0,1,0,2.79l.27-2a41.26,41.26,0,0,1-3.09,9.4l.76-1.79a35.18,35.18,0,0,1-1.63,3.39c-.3.54-.63,1.08-1,1.6-.15.23-.32.45-.47.68-.5.75,1.13-1.33.28-.36a58.32,58.32,0,0,1-6,5.61L415,60.74l-1.57,1.34-.88.72c-.19.15-1.05.83-.14.12s-.11.06-.34.22l-.74.49c-.56.35-1.13.69-1.72,1-1.23.67-2.51,1.26-3.8,1.81l1.79-.75a37.92,37.92,0,0,1-5.35,2l2-.27-.41,0,2,.27-.4-.09,1.79.75a9.41,9.41,0,0,1-1.47-.86c-.23-.16-1.3-1-.31-.2s.09,0-.1-.11a29.68,29.68,0,0,1-2.57-2.57,12.89,12.89,0,0,0-3.61-2.84c-1.56-.78-3.23-1.25-4.82-1.92l1.79.76a20.92,20.92,0,0,1-2.69-1.42,12.75,12.75,0,0,0-1.17-.8c1,.77,1.16.91.56.42-.21-.17-.41-.35-.61-.53-.68-.62-1.23-1.53-1.95-2.07.72,1,.85,1.12.38.5l-.26-.35c-.64-.86-1.28-1.72-1.95-2.56a35.72,35.72,0,0,0-4.24-4.1c-.4-.36-.76-.76-1.15-1.14-1-1,.91,1.39.2.29a17.19,17.19,0,0,1-1.51-2.76l.75,1.8a15.67,15.67,0,0,1-.93-3.41l.27,2a13.59,13.59,0,0,1-.12-2.3l-.27,2a1.61,1.61,0,0,1,.17-.65l-.76,1.79-2.05,2.13-1.79.75c.81-.31,1.69-.34,2.51-.61a19.87,19.87,0,0,0,3.84-1.75,43,43,0,0,1,4.71-2.81l-1.8.75a8,8,0,0,1,1.66-.45l-2,.27a2.93,2.93,0,0,1,.66,0l-2-.27.29.09-3.31-1.93-.79-1-.75-1.79a7.2,7.2,0,0,1,.29,1.13l-.27-2a7.2,7.2,0,0,1,0,1.54l.27-2c-.6,3.61-2.71,7-1.68,10.76a8.54,8.54,0,0,0,8,6.36c2.38.11,4.28-.88,6.4-1.78l-1.79.76a17.63,17.63,0,0,1,3.91-1l-2,.27a17.61,17.61,0,0,1,4,0l-2-.27c3,.41,6,1.24,9.05,1.43a21.56,21.56,0,0,0,10.18-2.28,39.71,39.71,0,0,0,6.23-3.74,63.62,63.62,0,0,1,6.68-4.57l-1.79.76a2.58,2.58,0,0,1,.81-.23l-2,.27h.33l-2-.27a2,2,0,0,1,.63.16l-1.79-.76c.66.36.42.16-.69-.6-.77-1.11-1-1.33-.58-.68l-.76-1.79a4.32,4.32,0,0,1,.29,1l-.27-2a3.66,3.66,0,0,1,0,.81l.27-2a7.72,7.72,0,0,1-.41,1.57l.75-1.79c-.46,1-1.15,1.85-1.7,2.81.93-1.65.62-.79.15-.26s-.73.81-1.11,1.19c-.68.67-1.39,1.31-2.13,1.91l-.64.52q1.47-1.12.54-.42l-1.18.85a61.24,61.24,0,0,1-10.74,6.44l1.79-.75A18.58,18.58,0,0,1,401,53.2l2-.26a15.52,15.52,0,0,1-4,0l2,.27a24.65,24.65,0,0,1-5.63-1.68l1.79.75c-1.51-.66-.65-.71,1.2,1.72l.76,1.79-.09-.26.26,2v-.28l-.27,2,.07-.26-.75,1.79.15-.2-2.69,2.69.23-.12-3.78,1,.32,0-3.79-1c-1-.87-1.25-1.09-.79-.66.15.14.31.28.45.43s.46.53.71.77c.58.58-1-1.57-.28-.36.23.35.46.69.68,1,2,3.36,6.83,4.91,10.26,2.69a7.62,7.62,0,0,0,2.69-10.26c-2.79-4.64-8.19-10.12-14-6.63a8.41,8.41,0,0,0-3.9,9.33c.81,3.59,3.94,5.28,7,6.56a23.82,23.82,0,0,0,10.12,2,26.69,26.69,0,0,0,11.08-3.24,75.64,75.64,0,0,0,7.08-4.37,57.51,57.51,0,0,0,7.57-5.8,24.49,24.49,0,0,0,6.35-9.13,10.88,10.88,0,0,0-4.59-13.17,10,10,0,0,0-10.06.3c-1.45.88-2.82,2-4.21,2.92a51.12,51.12,0,0,1-8.33,5.16l1.79-.75A16.26,16.26,0,0,1,404.83,41l2-.27a14.7,14.7,0,0,1-3.92,0l2,.27c-3.24-.48-6.44-1.42-9.74-1.42a25.91,25.91,0,0,0-10.82,2.68l1.79-.75a5.7,5.7,0,0,1-.92.26l2-.26a1.62,1.62,0,0,1-.58,0l2,.27-.25-.08,1.79.75L390,42.3,392.64,45l-.17-.22.76,1.79-.1-.4.27,2a3.78,3.78,0,0,1,.06-.82l-.27,2c.36-2,1.26-3.91,1.62-5.94.86-5-.49-10.93-6-12.47-3.25-.9-6.81.27-9.63,1.91-1.59.92-3,2.08-4.71,2.85l1.79-.76a11.92,11.92,0,0,1-2.27.62,8.91,8.91,0,0,0-4.67,2.5c-2.78,3-2.75,6.69-2.14,10.49a20.93,20.93,0,0,0,6.34,11.7c1.33,1.23,3.17,2.33,4.13,3.9l-.65-.84.52.7.78,1a31.25,31.25,0,0,0,2.81,3.36,27.6,27.6,0,0,0,5.36,4.14,42.61,42.61,0,0,0,6.62,2.85l-1.79-.75a5.72,5.72,0,0,0,1.07.55l-.92-.7.53.53c.57.59,1.1,1.22,1.69,1.8A27.92,27.92,0,0,0,399,81a9.83,9.83,0,0,0,8.93.66c2.14-.8,4.25-1.65,6.34-2.58a42,42,0,0,0,10.18-6.66c2.72-2.29,5.5-4.53,8.1-7A30,30,0,0,0,439.36,56a70.06,70.06,0,0,0,4-10.6c2.54-9.38-2.28-20.76-12.07-23.44-5-1.37-10.1-.34-14.73,1.82a29.79,29.79,0,0,0-4.75,2.86,15.27,15.27,0,0,0-4.14,4,21.25,21.25,0,0,0-1.83,3.89l.75-1.8a10.89,10.89,0,0,1-.76,1.53c-.69,1.11.38-.25.42-.48,0,.21-.48.53-.62.67s-.36.32-.54.49c-.64.59,1.53-1,.48-.41a15.43,15.43,0,0,1-1.62.83l1.79-.75a11.06,11.06,0,0,1-2.12.57l2-.27a9.87,9.87,0,0,1-2.24,0l2,.27a7.13,7.13,0,0,1-1.51-.39l1.79.76a4.3,4.3,0,0,1-.6-.32c-.63-.42-.39-.23.71.57a5.22,5.22,0,0,1-.46-.48c.77,1,1,1.33.65.85a17.39,17.39,0,0,1-1.23-2.34l.75,1.8c-1.6-3.83-2.89-7.9-6.12-10.75a13.77,13.77,0,0,0-6.91-3.56,39.16,39.16,0,0,0-7.42-.2,19.28,19.28,0,0,0-8.44,1.74,15.61,15.61,0,0,0-4.95,4.34c-1.79,2.28-3.57,4.46-4.35,7.33a11.6,11.6,0,0,0,1.22,9.22c2.5,3.86,8.39,5.25,11.78,1.52a11.87,11.87,0,0,0,2.65-4.5,23.32,23.32,0,0,0,.61-3.8l-.27,2a8,8,0,0,1,.39-1.67l-.76,1.79a4.75,4.75,0,0,1,.31-.59,5.46,5.46,0,0,1-1.77,1.87l-1.79.76.3-.1c3.74-1.19,6.52-5.26,5.24-9.23C384,28.1,380,25.32,376,26.6Z" transform="translate(-13 -1.7)"/><path class="cls-2" d="M251.6,53.65c3.22,0,3.23-5,0-5s-3.22,5,0,5Z" transform="translate(-13 -1.7)"/><path class="cls-2" d="M251,42.83c3.21,0,3.22-5,0-5s-3.23,5,0,5Z" transform="translate(-13 -1.7)"/><path class="cls-2" d="M328.45,53.65c3.22,0,3.22-5,0-5s-3.22,5,0,5Z" transform="translate(-13 -1.7)"/><path class="cls-2" d="M329,42.83c3.21,0,3.22-5,0-5s-3.23,5,0,5Z" transform="translate(-13 -1.7)"/><path class="cls-2" d="M251.48,53.52c3.21,0,3.22-5,0-5s-3.23,5,0,5Z" transform="translate(-13 -1.7)"/><path class="cls-7" d="M487.85,47.73a29.1,29.1,0,0,1,12.37,1.2A35.37,35.37,0,0,1,511.61,55a41.24,41.24,0,0,1,8.81,9.77c1.18,1.75,2.13,3.41,3.12,4.69a11,11,0,0,0,2.77,2.73l-8.68,3a88,88,0,0,1,7.92-20.35A90.58,90.58,0,0,1,538.1,37.05,84.4,84.4,0,0,1,554.49,23a68.23,68.23,0,0,1,19.36-8.9c-5.29,4.72-10.28,9.36-14.85,14.3a157.5,157.5,0,0,0-12.62,15.38,139.84,139.84,0,0,0-10.26,16.68,131.86,131.86,0,0,0-7.71,17.91L525.78,86l-6-4.69a20.3,20.3,0,0,1-5.14-6c-1.17-2.06-2-3.94-2.78-5.64a51.27,51.27,0,0,0-2.49-4.7,48.06,48.06,0,0,0-3.08-4.38,39.73,39.73,0,0,0-8-7.5A42.91,42.91,0,0,0,487.85,47.73Z" transform="translate(-13 -1.7)"/><path class="cls-8" d="M685.82,50C685,70.67,669,86.63,650,85.82c-14.49-.62-27-8.62-32.62-21A35.83,35.83,0,0,1,650,14.18C669.78,14.18,686.64,30.24,685.82,50Z" transform="translate(-13 -1.7)"/><path class="cls-8" d="M617.69,65.47" transform="translate(-13 -1.7)"/><path class="cls-8" d="M621.25,71.36" transform="translate(-13 -1.7)"/><path class="cls-8" d="M626.2,76.76s9.54-19,24.36-17.39c0,0,15.7-2.19,23.33,17.39" transform="translate(-13 -1.7)"/><circle class="cls-8" cx="637" cy="40.13" r="13.11"/><path class="cls-2" d="M737.33,28.19h67.11c3.87,0,3.87-6,0-6H737.33c-3.86,0-3.86,6,0,6Z" transform="translate(-13 -1.7)"/><path class="cls-2" d="M736.74,49.44h67.11c3.86,0,3.87-6,0-6H736.74c-3.86,0-3.87,6,0,6Z" transform="translate(-13 -1.7)"/><path class="cls-2" d="M736.74,49.44h67.11c3.86,0,3.87-6,0-6H736.74c-3.86,0-3.87,6,0,6Z" transform="translate(-13 -1.7)"/><path class="cls-2" d="M736.74,70.7h67.11c3.86,0,3.87-6,0-6H736.74c-3.86,0-3.87,6,0,6Z" transform="translate(-13 -1.7)"/><path class="cls-2" d="M736.74,70.7h67.11c3.86,0,3.87-6,0-6H736.74c-3.86,0-3.87,6,0,6Z" transform="translate(-13 -1.7)"/><line class="cls-9" x1="723.74" y1="44.75" x2="790.85" y2="44.75"/><line class="cls-9" x1="723.74" y1="44.75" x2="790.85" y2="44.75"/><path class="cls-2" d="M910.58,31.76l.22,19.74,0,2.81,2.5-2.5H872.47l2.5,2.5-.22-19.74,0-2.81c0-3.22-5-3.23-5,0l.22,19.74,0,2.81a2.53,2.53,0,0,0,2.5,2.5h40.86a2.53,2.53,0,0,0,2.5-2.5l-.22-19.74,0-2.81c0-3.22-5-3.23-5,0Z" transform="translate(-13 -1.7)"/><path class="cls-2" d="M867.4,33.92,891,20.23l3.37-1.95c2.78-1.61.27-5.93-2.53-4.31L868.23,27.65l-3.36,2c-2.78,1.61-.27,5.94,2.53,4.32Z" transform="translate(-13 -1.7)"/><path class="cls-2" d="M891.84,18.28,914.06,31.7l3.12,1.88c2.76,1.67,5.27-2.65,2.52-4.32L897.48,15.85,894.37,14c-2.76-1.67-5.28,2.65-2.53,4.31Z" transform="translate(-13 -1.7)"/><path class="cls-2" d="M903.74,20.22l.09-6-2.5,2.5h4l-2.5-2.5-.07,7.54V22.8a2.5,2.5,0,0,0,5,0l.07-7.54V14.18a2.53,2.53,0,0,0-2.5-2.5h-4a2.53,2.53,0,0,0-2.5,2.5l-.09,6a2.5,2.5,0,1,0,5,0Z" transform="translate(-13 -1.7)"/><path class="cls-2" d="M1159.26,84.35h-58.52l1.88,1.87V18.07L1100.74,20h58.52l-1.88-1.88V86.22a1.88,1.88,0,0,0,3.75,0V18.07a1.89,1.89,0,0,0-1.87-1.87h-58.52a1.9,1.9,0,0,0-1.87,1.87V86.22a1.9,1.9,0,0,0,1.87,1.88h58.52A1.88,1.88,0,0,0,1159.26,84.35Z" transform="translate(-13 -1.7)"/><rect class="cls-10" x="1095.81" y="6.97" width="4.74" height="18.81" rx="2.37"/><rect class="cls-10" x="1133.44" y="6.97" width="4.74" height="18.81" rx="2.37"/><rect class="cls-10" x="1121.07" y="6.97" width="4.74" height="18.81" rx="2.37"/><rect class="cls-10" x="1108.7" y="6.97" width="4.74" height="18.81" rx="2.37"/><path class="cls-2" d="M1120.45,43c0,2,.51,5-2.14,5.56a14.54,14.54,0,0,1-2.64,0c-1,0-2,0-2.94,0a2.66,2.66,0,0,1-2.65-2.35,23.17,23.17,0,0,1,0-2.5V40.37a2.8,2.8,0,0,1,1.44-2.69,7,7,0,0,1,3.15-.29h3.16a1.25,1.25,0,0,0,0-2.5h-3.09a10.94,10.94,0,0,0-3.7.29,5.22,5.22,0,0,0-3.46,4.85c0,1,0,2,0,3s0,1.93,0,2.9a5.24,5.24,0,0,0,3.55,4.88,11.48,11.48,0,0,0,3.61.25c1.06,0,2.13,0,3.19,0a5.17,5.17,0,0,0,5-4.41A26.72,26.72,0,0,0,1123,43a1.25,1.25,0,0,0-2.5,0Z" transform="translate(-13 -1.7)"/><path class="cls-2" d="M1120.45,67.73c0,2,.51,5-2.14,5.56a14.54,14.54,0,0,1-2.64,0h-2.94a2.67,2.67,0,0,1-2.65-2.36,23.17,23.17,0,0,1,0-2.5V65.11a2.8,2.8,0,0,1,1.44-2.69,7.09,7.09,0,0,1,3.15-.29h3.16a1.25,1.25,0,0,0,0-2.5h-3.09a10.94,10.94,0,0,0-3.7.29,5.22,5.22,0,0,0-3.46,4.85c0,1,0,2,0,3s0,1.93,0,2.9a5.23,5.23,0,0,0,3.55,4.88,11.48,11.48,0,0,0,3.61.26c1.06,0,2.13,0,3.19,0a5.17,5.17,0,0,0,5-4.41,26.69,26.69,0,0,0,.06-3.69,1.25,1.25,0,0,0-2.5,0Z" transform="translate(-13 -1.7)"/><path class="cls-2" d="M1111.48,40.94l2.62,3.5.38.5a1.32,1.32,0,0,0,.74.57,1.27,1.27,0,0,0,1-.13,1.25,1.25,0,0,0,.57-.74,1.26,1.26,0,0,0-.12-1l-2.63-3.5-.37-.5a1.37,1.37,0,0,0-.75-.57,1.24,1.24,0,0,0-1,.13,1.23,1.23,0,0,0-.45,1.71Z" transform="translate(-13 -1.7)"/><path class="cls-2" d="M1123.67,34.78l-7.87,7.56-1.13,1.08a1.25,1.25,0,0,0,1.77,1.77l7.87-7.56,1.13-1.08a1.25,1.25,0,0,0-1.77-1.77Z" transform="translate(-13 -1.7)"/><path class="cls-2" d="M1111.14,66.15l2.62,3.5.38.5a1.38,1.38,0,0,0,.74.58,1.32,1.32,0,0,0,1-.13,1.27,1.27,0,0,0,.57-.75,1.24,1.24,0,0,0-.12-1l-2.63-3.5-.37-.5a1.44,1.44,0,0,0-.75-.58,1.28,1.28,0,0,0-1,.13,1.25,1.25,0,0,0-.58.75,1.2,1.2,0,0,0,.13,1Z" transform="translate(-13 -1.7)"/><path class="cls-2" d="M1123.33,60l-7.87,7.56-1.13,1.08a1.25,1.25,0,1,0,1.77,1.76l7.87-7.55,1.13-1.08a1.25,1.25,0,0,0-1.77-1.77Z" transform="translate(-13 -1.7)"/><path class="cls-2" d="M1130,40.13l18.07-.1h2.6a1.25,1.25,0,0,0,0-2.5l-18.07.1H1130a1.25,1.25,0,0,0,0,2.5Z" transform="translate(-13 -1.7)"/><path class="cls-2" d="M1130,46.45l18.06-.09,2.6,0a1.25,1.25,0,0,0,0-2.5l-18.06.1H1130a1.25,1.25,0,0,0,0,2.5Z" transform="translate(-13 -1.7)"/><path class="cls-2" d="M1130.14,65.56l18.07-.1h2.6a1.25,1.25,0,0,0,0-2.5l-18.07.09-2.6,0a1.25,1.25,0,0,0,0,2.5Z" transform="translate(-13 -1.7)"/><path class="cls-2" d="M1130.17,71.88l18.07-.1h2.6a1.25,1.25,0,0,0,0-2.5l-18.06.09-2.61,0a1.25,1.25,0,0,0,0,2.5Z" transform="translate(-13 -1.7)"/><path class="cls-2" d="M880.87,71.28l7.33,1.55,4.39.93a5.3,5.3,0,0,0,3.66-.11,5,5,0,0,0,2.12-6.09A4.44,4.44,0,0,0,895,64.77L886.4,63l-4.84-1c-1.54-.33-2.94-.62-4.38.31s-.1,3,1.26,2.16c.83-.53,1.51-.26,2.39-.07l3.71.78,8.6,1.82c.53.11,1.08.2,1.6.33,1.74.47,2,3.45.32,4.19a3.7,3.7,0,0,1-2.1-.17l-4.1-.87-7.33-1.55c-1.57-.33-2.24,2.08-.66,2.41Z" transform="translate(-13 -1.7)"/><path class="cls-2" d="M878.79,64.19l.44-.11h.06a1,1,0,0,0,.42-.23.83.83,0,0,0,.32-.35.87.87,0,0,0,.15-.46.94.94,0,0,0,0-.5l-.13-.3a1.27,1.27,0,0,0-.44-.45l-.3-.12a1.27,1.27,0,0,0-.67,0l-.43.11h-.06a1,1,0,0,0-.43.22,1,1,0,0,0-.32.36.93.93,0,0,0-.15.46,1,1,0,0,0,0,.5l.12.3a1.29,1.29,0,0,0,.45.45l.3.12a1.23,1.23,0,0,0,.66,0Z" transform="translate(-13 -1.7)"/><path class="cls-2" d="M864.84,67.76l12.23-3.13,1.72-.44a1.25,1.25,0,0,0-.66-2.41L865.9,64.91l-1.72.44a1.25,1.25,0,0,0,.66,2.41Z" transform="translate(-13 -1.7)"/><path class="cls-2" d="M867.22,82.62l-1.3-13.86-.19-2a1.28,1.28,0,0,0-1.25-1.25,1.26,1.26,0,0,0-1.25,1.25l1.31,13.86.18,2A1.29,1.29,0,0,0,866,83.87a1.25,1.25,0,0,0,1.25-1.25Z" transform="translate(-13 -1.7)"/><path class="cls-2" d="M898.58,86.11,870.29,82l-4-.58c-1.58-.23-2.26,2.18-.67,2.41l28.3,4.12,4,.58c1.57.23,2.25-2.18.66-2.41Z" transform="translate(-13 -1.7)"/><path class="cls-2" d="M898.09,88.53c1.2,0,2.5-.76,3.58-1.23L908,84.52,920.58,79c1.85-.81,3.31-2,2.94-4.32s-2.47-4.67-5-4c-4.12,1-8.21,2.23-12.31,3.34l-7.8,2.11c-1.38.37-3.25.57-4.29,1.64s.65,2.92,1.77,1.77c.56-.57,1.9-.65,2.62-.85l6-1.62,13-3.51c1-.26,2-.92,2.81-.06s1.26,2.37-.11,3l-.82.36-11.21,4.91-6.93,3c-.85.38-2.33,1.26-3.09,1.23-1.61-.06-1.61,2.44,0,2.5Z" transform="translate(-13 -1.7)"/><path class="cls-2" d="M881.52,71.36a1.5,1.5,0,0,1,.29-.06l-.33,0a2.25,2.25,0,0,1,.58,0l-.33,0,.09,0a.94.94,0,0,0,.5,0,1,1,0,0,0,.46-.15.9.9,0,0,0,.35-.32.94.94,0,0,0,.23-.43l0-.33a1.29,1.29,0,0,0-.17-.63l-.19-.25a1.21,1.21,0,0,0-.56-.32,5.21,5.21,0,0,0-.57-.08,2.09,2.09,0,0,0-.25,0,5,5,0,0,0-.56.07l-.25,0a1,1,0,0,0-.42.22,1,1,0,0,0-.32.35A1,1,0,0,0,880,70a1,1,0,0,0,0,.5l.13.3a1.27,1.27,0,0,0,.45.44l.29.13a1.27,1.27,0,0,0,.67,0Z" transform="translate(-13 -1.7)"/><path class="cls-2" d="M895,77.2c-4.55-.9-9.1-1.78-13.64-2.7a1.56,1.56,0,0,1-.45-3c1.52-.49.87-2.91-.67-2.41a4.16,4.16,0,0,0-1.62,6.77,5.4,5.4,0,0,0,3.13,1.27L891.48,79l2.84.57c1.57.31,2.25-2.1.67-2.41Z" transform="translate(-13 -1.7)"/><path class="cls-2" d="M861,85.17l-2.21.31a12.59,12.59,0,0,1-2.42.34c-1.19-.11-1.11-2-1.21-3L853.8,70.74c-.1-.92-.62-2.84.14-3.58.5-.48,1.64-.45,2.28-.54.95-.13,1.92-.35,2.87-.4.19,0,.37-.08.56.19s-.09.82-.1,1.11.09.81.13,1.2l.61,5.58.78,7c.07.67.14,1.34.22,2s.83,1.58-.32,1.82c-1.57.33-.9,2.74.67,2.41s3.17-2.17,2.32-3.92c-.37-.76-.06.43-.16-.18,0-.25-.06-.52-.08-.77L863,76.25l-.76-6.93a11.17,11.17,0,0,1-.19-1.73c0-.3.14-.65.14-1a2.88,2.88,0,0,0-1-2.14c-1-.84-2.13-.71-3.3-.55l-3.49.49c-2.4.35-3.55,2.38-3.29,4.67l1.43,13.11c.22,2,.14,4.39,2,5.59,1.21.78,2.5.48,3.81.3l3.28-.46C863.22,87.36,862.55,85,861,85.17Z" transform="translate(-13 -1.7)"/><path class="cls-2" d="M993.65,44.92c5.24-1.88,10.64-3.51,15.75-5.72l10.18-4.38a36.52,36.52,0,0,0,5.67-2.82l9.23-6-3.77-2.16.94,22.82c.25,6.16-.25,12.34-.5,18.51l-.44,10.62,3.77-2.15-7.77-5.44c-1.14-.8-2.26-1.69-3.46-2.42a14.56,14.56,0,0,0-2.31-.95c-5.52-2.11-11-4.39-16.63-6.21l-10.4-3.35c-3.07-1-4.39,3.83-1.33,4.82,4.92,1.59,9.92,3,14.75,4.87l10.95,4.18a22,22,0,0,0,2.89,1.1c-.95-.21-.46-.16.05.2l1.79,1.25,8.94,6.26c1.64,1.15,3.69-.41,3.76-2.16l.94-22.81c.25-6.16-.25-12.34-.5-18.51l-.44-10.63a2.52,2.52,0,0,0-3.76-2.15l-8,5.26c-.94.61-1.87,1.33-2.85,1.86-.81.44-1.72.74-2.56,1.11l-10.76,4.63-1.24.54c-.29.12,1-.37.1-.07-1.41.48-2.81,1-4.21,1.51L992.32,40.1a2.56,2.56,0,0,0-1.75,3.07,2.53,2.53,0,0,0,3.08,1.75Z" transform="translate(-13 -1.7)"/><path class="cls-2" d="M993,55.14H975.85a3.4,3.4,0,0,1-1.33-.19,2.76,2.76,0,0,1-1.69-2.38c0-.69,0-1.38,0-2.07,0-1,0-2,0-3.07a2.37,2.37,0,0,1,.53-1.83,2.09,2.09,0,0,1,1.75-.74H993l-2.5-2.5V57.64c0,3.22,5,3.22,5,0V42.36a2.53,2.53,0,0,0-2.5-2.5H976.46A9.19,9.19,0,0,0,971.1,41,7.17,7.17,0,0,0,968,45.75a17.45,17.45,0,0,0-.13,3c0,2.44-.27,5,.87,7.25a7.92,7.92,0,0,0,7.15,4.16H993C996.2,60.14,996.2,55.14,993,55.14Z" transform="translate(-13 -1.7)"/><path class="cls-2" d="M1042,34.92l8.17-3.38,1.17-.48a1.3,1.3,0,0,0,.87-1.54,1.26,1.26,0,0,0-1.54-.87L1042.49,32l-1.17.48a1.3,1.3,0,0,0-.87,1.54,1.26,1.26,0,0,0,1.54.87Z" transform="translate(-13 -1.7)"/><path class="cls-2" d="M1041.16,67.5l9.2,3.37,1.32.48a1.26,1.26,0,0,0,1.54-.87,1.28,1.28,0,0,0-.87-1.54l-9.2-3.37-1.32-.48a1.26,1.26,0,0,0-1.54.87,1.29,1.29,0,0,0,.87,1.54Z" transform="translate(-13 -1.7)"/><path class="cls-2" d="M1042.33,45.6l9-1.16,1.28-.17a1.28,1.28,0,0,0,1.25-1.25,1.27,1.27,0,0,0-1.25-1.25l-9,1.16-1.28.17a1.28,1.28,0,0,0-1.25,1.25,1.27,1.27,0,0,0,1.25,1.25Z" transform="translate(-13 -1.7)"/><path class="cls-2" d="M1042,56.25l9,.51,1.29.08a1.25,1.25,0,0,0,0-2.5l-9-.52-1.29-.07a1.26,1.26,0,0,0-1.25,1.25,1.28,1.28,0,0,0,1.25,1.25Z" transform="translate(-13 -1.7)"/><path class="cls-2" d="M980.87,61.12l4.51-1.07L982.3,58.3l3.21,16.86.46,2.4,1.74-3.08-4.5,1.07,3.08,1.75-3.21-16.86-.46-2.4a2.52,2.52,0,0,0-3.07-1.74,2.55,2.55,0,0,0-1.75,3.07L981,76.23l.46,2.4a2.51,2.51,0,0,0,3.07,1.74L989,79.3a2.56,2.56,0,0,0,1.75-3.07l-3.21-16.86-.46-2.4a2.53,2.53,0,0,0-3.07-1.74l-4.5,1.07C976.42,57,977.74,61.86,980.87,61.12Z" transform="translate(-13 -1.7)"/><path class="cls-2" d="M1037.69,44.78h-1a3.72,3.72,0,0,0-1.92.43,4.5,4.5,0,0,0-2.65,2.64,3.88,3.88,0,0,0-.43,1.93l.18,1.33a5.05,5.05,0,0,0,1.29,2.21l1,.78a5,5,0,0,0,2.52.68h1a4.8,4.8,0,0,0,4.57-3.07,3.68,3.68,0,0,0,.43-1.93l-.17-1.33a5.05,5.05,0,0,0-1.29-2.21l-1-.78a5,5,0,0,0-2.53-.68Z" transform="translate(-13 -1.7)"/><path class="cls-2" d="M1989.91,46.07a26,26,0,1,1-20.81-25.46,26.18,26.18,0,0,1,20.81,25.46c0,3.21,5,3.22,5,0a31,31,0,1,0-57.47,16,31,31,0,0,0,57.06-11,34.72,34.72,0,0,0,.41-5C1994.93,42.85,1989.93,42.85,1989.91,46.07Z" transform="translate(-13 -1.7)"/><path class="cls-2" d="M2009.5,81.82l-16.14-16.14-2.3-2.3a5,5,0,0,0-7.07,7.07l16.14,16.14,2.3,2.3a5,5,0,1,0,7.07-7.07Z" transform="translate(-13 -1.7)"/><path class="cls-2" d="M1944.33,48.57h39.11c3.22,0,3.23-5,0-5h-39.11c-3.21,0-3.22,5,0,5Z" transform="translate(-13 -1.7)"/><path class="cls-2" d="M2108.11,43.68a26,26,0,1,1-20.81-25.46,26.19,26.19,0,0,1,20.81,25.46c0,3.21,5,3.22,5,0a31,31,0,1,0-57.48,16,31,31,0,0,0,57.06-11,34.48,34.48,0,0,0,.42-5C2113.13,40.46,2108.13,40.45,2108.11,43.68Z" transform="translate(-13 -1.7)"/><path class="cls-2" d="M2127.69,79.42l-16.14-16.14L2109.26,61a5,5,0,0,0-7.07,7.07l16.14,16.14,2.29,2.3a5,5,0,0,0,7.07-7.08Z" transform="translate(-13 -1.7)"/><path class="cls-2" d="M2062.53,46.18h39.11c3.22,0,3.22-5,0-5h-39.11c-3.22,0-3.22,5,0,5Z" transform="translate(-13 -1.7)"/><path class="cls-2" d="M2079.58,24.12V63.23c0,3.22,5,3.22,5,0V24.12c0-3.22-5-3.22-5,0Z" transform="translate(-13 -1.7)"/><path class="cls-11" d="M2170.51,36.62a19.75,19.75,0,1,1,39.5,0" transform="translate(-13 -1.7)"/><path class="cls-11" d="M2210,36.62" transform="translate(-13 -1.7)"/><path class="cls-11" d="M2183.94,65.66" transform="translate(-13 -1.7)"/><path class="cls-11" d="M2172.08,47.45c10.09,21.48,33.16,29.2,37.93,34.44" transform="translate(-13 -1.7)"/><path class="cls-11" d="M2170.51,36.62a24.85,24.85,0,0,0,1.57,10.83" transform="translate(-13 -1.7)"/><path class="cls-11" d="M2249.49,36.62a19.75,19.75,0,1,0-39.5,0" transform="translate(-13 -1.7)"/><path class="cls-11" d="M2210,36.62" transform="translate(-13 -1.7)"/><path class="cls-11" d="M2236.06,65.66" transform="translate(-13 -1.7)"/><path class="cls-11" d="M2247.92,47.45c-10.09,21.48-33.16,29.2-37.93,34.44" transform="translate(-13 -1.7)"/><path class="cls-11" d="M2249.49,36.62a24.85,24.85,0,0,1-1.57,10.83" transform="translate(-13 -1.7)"/><rect class="cls-11" x="2209.8" y="81.38" width="0.43" height="0.43" transform="translate(576.61 1584.91) rotate(-45)"/><path class="cls-12" d="M2171.63,47.45" transform="translate(-13 -1.7)"/><path class="cls-13" d="M2171.63,50c3.21,0,3.22-5,0-5s-3.23,5,0,5Z" transform="translate(-13 -1.7)"/><path class="cls-12" d="M2171,36.64" transform="translate(-13 -1.7)"/><path class="cls-13" d="M2171,39.14c3.22,0,3.22-5,0-5s-3.22,5,0,5Z" transform="translate(-13 -1.7)"/><path class="cls-12" d="M2248.47,47.45" transform="translate(-13 -1.7)"/><path class="cls-13" d="M2248.47,50c3.22,0,3.22-5,0-5s-3.22,5,0,5Z" transform="translate(-13 -1.7)"/><path class="cls-12" d="M2249,36.64" transform="translate(-13 -1.7)"/><path class="cls-13" d="M2249,39.14c3.22,0,3.22-5,0-5s-3.22,5,0,5Z" transform="translate(-13 -1.7)"/><path class="cls-12" d="M2171.5,47.33" transform="translate(-13 -1.7)"/><path class="cls-13" d="M2171.5,49.83c3.22,0,3.22-5,0-5s-3.22,5,0,5Z" transform="translate(-13 -1.7)"/><path class="cls-13" d="M2173.48,36.44l1,2.49,2.41-3.17a.29.29,0,0,1-.24,0,2.53,2.53,0,0,0-3.67,2.82l1.25,5.82,4.18-2.44c-.59-.55.56-1.43,1.35-1.78a17.53,17.53,0,0,1,6-1.12c4.73-.27,9.51-.12,14.25-.14l29.52-.13,8.18,0,4,0c1.21,0,2.93-.33,4,.12l-1.1-.64s.32-1.05-.06-.37a2.2,2.2,0,0,0,0,.51c0,.45,0,.91-.09,1.35a18.91,18.91,0,0,1-.43,2.48,23.26,23.26,0,0,1-1.78,5,24.59,24.59,0,0,1-7,8.38,35.43,35.43,0,0,0-4.52,3.95,36.8,36.8,0,0,1-4,4.1c-2.93,2.33-6.45,3.77-9.56,5.82a45.63,45.63,0,0,0-4.48,3.58c-1.15,1-2.07,1.61-3.55,1a72.58,72.58,0,0,1-10.7-5,13,13,0,0,1-3.59-3,47.67,47.67,0,0,1-2.62-4.56A11,11,0,0,0,2188,57.3a24.29,24.29,0,0,1-4.88-2.86,29.19,29.19,0,0,1-4.15-4.66c-1-1.33-2.55-3-1.26-4.53,2.49-3.06,7.2-4.06,10.93-3.72v-5a45.81,45.81,0,0,0-10.43,1.22l1.33,4.83a92.89,92.89,0,0,1,22.47-4l-.66-4.91-7.71,1.39a2.48,2.48,0,0,0-1.79,2.74,2.52,2.52,0,0,0,2.45,2.17,180.58,180.58,0,0,0,18.9.51c3.21-.08,3.23-5,0-5l-19.4.25a2.5,2.5,0,0,0-.66,4.91c9.47,1.29,18.86.19,28.28-1.06l-.67-4.91-6.3,1.06c-2.78.47-2.14,5.08.66,4.92l15.38-.92c2.43-.14,4.88-.37,7.32-.41.72,0,2-.1,2.54.49,0,.05.2.32.2.32.51.59-.07.28,0,.16l4.57,1.93.25-1.52a2.58,2.58,0,0,0-1.75-3.07,2.52,2.52,0,0,0-3.07,1.74,46.33,46.33,0,0,1-4.41,9.92,73.25,73.25,0,0,1-5.8,9.22c-4.08,5.17-11.37,5.57-16.77,8.76l3,3.93a37.09,37.09,0,0,1,10.8-6.18l-1.93-4.57-11.14,7.25c-.86.55-1.7,1.13-2.57,1.66-.58.35-.95.61-1.57.38-.95-.35-1.83-.86-2.79-1.18a28.69,28.69,0,0,0-3-.79,25.64,25.64,0,0,1-10-4,30.41,30.41,0,0,1-7.25-7.63,96.18,96.18,0,0,1-6.78-12.2l-1.49,3.67c3.76-1.13,7.51-2.4,11.32-3.35s7.89-.89,11.89-.81q12.43.24,24.86-.31c2.29-.1,4.59-.22,6.88-.36s4.47-.53,6.61-.11l-1.74-3.07c-.2.8.1-.35.27-.23,0,0-.57.33-.44.27-.55.25-1.16.4-1.73.62a7.86,7.86,0,0,0-3.5,2.6c-1.79,2.33-2.24,5.31-2.55,8.15-.27,2.42,3.66,3.47,4.65,1.26a31.27,31.27,0,0,1,3.7-6.16l-3.92.51s-.25-.39-.18-.46c-.09.09-.21.42-.31.55-.57.74-1.27,1.36-1.78,2.14-1,1.46-1.1,3.2-1.84,4.73s-2.39,2.78-3.68,3.9a43.67,43.67,0,0,1-4.2,3.22,46.75,46.75,0,0,1-9.57,5,12.31,12.31,0,0,1-5.69,1.12,19,19,0,0,1-5.28-1.79c-3.41-1.5-7-3-9.82-5.52a40.63,40.63,0,0,1-6.88-8.61,10,10,0,0,1-1.22-2.16c-.2-.57.05-1-.46-.27s-.3.39.14.39a5.65,5.65,0,0,0,.89-.19c1.89-.34,3.82-.39,5.72-.6,4.14-.46,8.17-1.6,12.31-2,4.8-.41,9.65-.24,14.46-.25h7.07c1.13,0,2.27,0,3.41,0,.65,0,1.3,0,1.94.09.22,0,.43,0,.64.07s.48.21.28.07l-.9-.9.14.21-.34-1.26a8.83,8.83,0,0,1-.82,2.67L2228,50.38c-.52,1.62-.87,3.68-2.21,4.85a36.7,36.7,0,0,1-5.34,3.33l-5.92,3.56a26.85,26.85,0,0,1-5.23,2.8,9.26,9.26,0,0,1-5.68,0,36.71,36.71,0,0,1-10.59-5,14.32,14.32,0,0,1-6.45-9.63,2.53,2.53,0,0,0-3.08-1.74,2.56,2.56,0,0,0-1.75,3.07c1,6.77,6.47,11.7,12.24,14.69A36.29,36.29,0,0,0,2204,70.11,15.25,15.25,0,0,0,2214.45,68c3.38-1.9,6.67-4,10-6a38.09,38.09,0,0,0,4.39-2.82,9.78,9.78,0,0,0,3-4.4c.67-1.78,1.2-3.62,1.79-5.43s1.81-4,1.3-5.84-2.54-2.3-4.24-2.49a56.93,56.93,0,0,0-5.84-.14l-11.71,0a96.74,96.74,0,0,0-11.29.39c-3.79.45-7.5,1.47-11.3,1.86-1.74.18-3.49.29-5.23.53s-4,.43-5.1,2.08c-2.13,3.25,1.08,7.27,2.85,9.87a37.29,37.29,0,0,0,6.55,7.73,38.68,38.68,0,0,0,9.28,5.47c3.27,1.47,6.72,3.24,10.41,3.05,4-.21,8.12-2.15,11.65-4a51.78,51.78,0,0,0,9.31-6.26,29.35,29.35,0,0,0,4-3.87,15.56,15.56,0,0,0,2.38-5.16c.52-1.54,2-2.42,2.68-3.85a4.78,4.78,0,0,0-.64-5.61c-1.22-1.29-3-.71-3.92.51a30.34,30.34,0,0,0-3.7,6.16l4.66,1.26c.2-1.87.5-4.62,2.14-5.77a25.93,25.93,0,0,1,3-1.21,4.75,4.75,0,0,0,2.65-3.1,2.54,2.54,0,0,0-1.75-3.08c-4.09-.8-8.48,0-12.61.19s-8.53.35-12.79.42-8.37.08-12.56,0-8.6-.27-12.86.5c-4.54.83-9,2.48-13.4,3.81a2.54,2.54,0,0,0-1.49,3.67c3.81,7.73,7.88,15.57,14.86,20.92a26.83,26.83,0,0,0,10.87,4.91,28.1,28.1,0,0,1,6.11,1.82,6.44,6.44,0,0,0,6.44-.46c4.66-2.82,9.15-6,13.72-8.91a2.53,2.53,0,0,0,1-3.13,2.48,2.48,0,0,0-3-1.44,43.85,43.85,0,0,0-13,7.46c-2.22,1.84.63,5.35,3,3.93,2.93-1.73,6.22-2.58,9.35-3.85a20,20,0,0,0,8.7-6,79.65,79.65,0,0,0,6.31-9.89,52,52,0,0,0,4.91-11.11l-4.82-1.33-.25,1.52a2.51,2.51,0,0,0,4.57,1.93,5.53,5.53,0,0,0-2-7.33c-2.48-1.62-5.69-1.15-8.48-1l-19.28,1.15.66,4.91,6.31-1.07c2.75-.46,2.14-5.28-.66-4.91-8.88,1.18-18,2.46-26.95,1.24l-.67,4.91,19.4-.25v-5a180.58,180.58,0,0,1-18.9-.51l.67,4.91,7.71-1.39c2.77-.5,2.13-5-.67-4.91a99.15,99.15,0,0,0-23.8,4.15,2.51,2.51,0,0,0,1.33,4.83,39.28,39.28,0,0,1,9.1-1,2.5,2.5,0,0,0,0-5,18.63,18.63,0,0,0-10.38,2.13c-2.95,1.56-6.13,4.22-6.11,7.85a9,9,0,0,0,1.89,5,51.34,51.34,0,0,0,3.49,4.45,23.93,23.93,0,0,0,3.85,3.47,48.3,48.3,0,0,0,4.47,2.43,7.06,7.06,0,0,1,2.61,3,29,29,0,0,0,2.69,4.39,21.53,21.53,0,0,0,7.71,5.59c1.53.74,3.09,1.41,4.65,2.1,1.81.8,3.7,1.92,5.66,2.25,3.58.61,6.09-1.9,8.58-4s5.63-3.56,8.47-5.25a32.68,32.68,0,0,0,7.73-6.58c2.38-2.63,5.44-4.44,7.89-7a27.29,27.29,0,0,0,5.39-8.11,26.13,26.13,0,0,0,2.32-9.91A4.23,4.23,0,0,0,2247,34c-1.9-.68-4.35-.3-6.35-.29l-24.31.11c-9.07,0-18.13,0-27.2.12-4,0-8.39.11-12,2-3.47,1.74-5.49,6.55-2.28,9.58a2.52,2.52,0,0,0,4.18-2.43l-1.25-5.82L2174.13,40a6.29,6.29,0,0,0,2.76.72,2.51,2.51,0,0,0,2.41-3.16l-1-2.49a2.58,2.58,0,0,0-3.08-1.74,2.51,2.51,0,0,0-1.74,3.07Z" transform="translate(-13 -1.7)"/><path class="cls-13" d="M2182.63,52a14.6,14.6,0,0,1,5.59-.42,36,36,0,0,0,5.68-.28,53.58,53.58,0,0,1,6.06-.48c2,0,4.08.1,6.12,0,4-.27,7.83-1.41,11.8-1.74,1.89-.16,3.79-.17,5.69-.16.89,0,1.79,0,2.68.06a5.19,5.19,0,0,1,1.24.21l.41.11c.39.22.4.23,0,0L2227.6,48c0-.45.62-.69.05-.53a5,5,0,0,0-.55.3,10.33,10.33,0,0,1-1.62.47,20.22,20.22,0,0,0-3.59,1,6.67,6.67,0,0,0-4.33,5.63,2.51,2.51,0,0,0,1.83,2.41,2.6,2.6,0,0,0,2.83-1.15,10.09,10.09,0,0,1,3.34-3.1,3.16,3.16,0,0,0,.46-.24c.16,0,.2-.06.12,0a.94.94,0,0,1-.86-.25l-.64-1.1c-.12-.28.38-.56.05-.51-.1,0-.36.28-.45.34a8.66,8.66,0,0,1-1.51.86,9.12,9.12,0,0,1-3,.71l1.77,4.27a1,1,0,0,1,.36-.3c.3-.13.51,0,.11-.08l-1.5-1.15.12.24-.25-1.92c.26-.35.24-.34-.09,0a1.55,1.55,0,0,1-.39.33,7.77,7.77,0,0,1-1,.58,16.35,16.35,0,0,1-2.55.88c-2,.55-5.1.34-5.89,2.7-.51,1.51.75,2.72-.72,3.88-1.25,1-3.2.94-4.7,1l.67,4.91c5.34-1.31,10.78-2.42,15.8-4.73,2.33-1.07,1.08-4.67-1.26-4.66l-11.52.08,2.41,3.17c.19-.8,1.15-1.4,1.75-1.93s1.47-1.24,2.25-1.8a38.47,38.47,0,0,1,5.66-3.38c2.52-1.24.76-5.47-1.93-4.57a44.7,44.7,0,0,1-5.7,1.51c-1.57.3-3.58.87-5.11.25l.59,4.57a19.85,19.85,0,0,1,9-2.94l-.66-4.92c-3.77,1.53-7.49,3.15-11.16,4.9l2.53,4.32c1.73-.88,3.49-1.72,5.28-2.46.86-.35,1.73-.68,2.59-1l1.31-.47.88-.29c.67-.14.38-.29-.88-.46l-.4-3a27.33,27.33,0,0,1-10.29,8l3.67,2.83c1.06-4.33,5-6.8,8.55-9,2.77-1.75.37-5.63-2.52-4.31-1.18.53-2.36,1.06-3.56,1.55l-1.77.7c-.39.15-1.31.6-1.49.61l1.26.34-.26-.11.89.9-.13-.22.34,1.26c-.13-1,1.79-2.34,2.77-2.29a1.15,1.15,0,0,1,1,.46c.17.3,0,.38-.25.6l3.54,3.54a10.53,10.53,0,0,1,6-3.36c2.74-.53,2.15-5.12-.67-4.91a66.82,66.82,0,0,1-7.22.15l1.77,4.27a.33.33,0,0,1,.19-.14l-1.33-4.82c-4.09,1.7-8.47,2.47-12.8,3.31l-13.59,2.63,1.92,4.57,3-1.25c1.9-.81,1.46-4.28-.6-4.57a69.63,69.63,0,0,0-8.53-.74l.66,4.91a38.61,38.61,0,0,1,7.6-.42c3.21,0,3.22-5,0-5l-9.54-.1v5c6,0,11.9.05,17.82-.49a2.52,2.52,0,0,0,2.46-2.17,2.47,2.47,0,0,0-1.79-2.74,42.74,42.74,0,0,0-7.41-.51c-2.18.06-4.48.18-6.26,1.59-3.64,2.89-2.93,8.23.27,11.14,1.76,1.59,5,.07,4.18-2.43l-.4-1.25c0-.13-.25-1-.25-.75l-.34,1.26.13-.24-.9.89.21-.11-1.26.34c-.37,0,.15,0,.31,0,.32,0,.63.12,1,.18l2.13.42,4,.78.66-4.91a70.86,70.86,0,0,1-10.4.35v5A97.52,97.52,0,0,0,2206,59.07c2.8-.59,2.12-4.9-.66-4.91h-5l1.26,4.66A6.57,6.57,0,0,1,2203,58l-1.93-4.57c-4.35,2.07-6.37,8-2.58,11.66,1.67,1.58,4.43,2.42,6.53,1.15,2.38-1.44,2.19-5.29,2.14-7.7a2.57,2.57,0,0,0-2.5-2.5c-2.49-.22-3.56,2.88-2.43,4.72a5.71,5.71,0,0,0,5.21,2.56,2.52,2.52,0,0,0,2.45-2.17,2.45,2.45,0,0,0-1.79-2.74,71.17,71.17,0,0,0-12.79-.91v5a13.56,13.56,0,0,1,4,.24l-.6-4.57a12.13,12.13,0,0,1-3.57,1.25,2.48,2.48,0,0,0-1.79,2.74,2.56,2.56,0,0,0,2.46,2.17,62.49,62.49,0,0,0,8.09.34c3.21-.08,3.23-5.08,0-5a62.49,62.49,0,0,1-8.09-.34l.66,4.91a16.29,16.29,0,0,0,4.77-1.75,2.53,2.53,0,0,0-.6-4.57,18.51,18.51,0,0,0-5.3-.42c-3.17.23-3.25,5.07,0,5a63.73,63.73,0,0,1,11.46.73l.67-4.91c-.07,0-.71-.05-.74,0a.11.11,0,0,0-.08,0c-.51-.59-.47-.24.14,1l-.65,1.1.13-.1-1.76.73.18,0-2.5-2.5c0,.73,0,1.45,0,2.18a8.84,8.84,0,0,0-.2,1.67c-.15.56.16.37.94-.55h-.34s0,0,0,0a3.2,3.2,0,0,1-.73-.59c-1.05-1.44.62-2.93,1.83-3.51,2.54-1.2.75-5.52-1.92-4.57a11.18,11.18,0,0,0-2.64,1.3c-2,1.35-1.35,4.65,1.26,4.65h5l-.67-4.91a90,90,0,0,1-14.9,1.89,2.5,2.5,0,0,0,0,5,70.86,70.86,0,0,0,10.4-.35,2.54,2.54,0,0,0,2.46-2.17,2.49,2.49,0,0,0-1.79-2.74c-2.69-.52-5.45-1.3-8.18-1.56a3,3,0,0,0-3.33,2.16c-.36,1.32.35,2.76.74,4l4.18-2.44c-1.12-1-2.17-3.33-.12-4a13.9,13.9,0,0,1,4-.24,35.79,35.79,0,0,1,4.63.34l.66-4.91c-5.92.54-11.87.53-17.82.49-3.22,0-3.22,5,0,5l9.54.1v-5a45.26,45.26,0,0,0-8.93.6c-2.84.54-2.07,4.85.67,4.91a57.88,57.88,0,0,1,7.2.56l-.6-4.57-3,1.25a2.48,2.48,0,0,0-1,3.13,2.52,2.52,0,0,0,2.95,1.44L2206,54.55c4.34-.84,8.72-1.61,12.81-3.31a2.59,2.59,0,0,0,1.75-3.08,2.52,2.52,0,0,0-3.08-1.74,6.26,6.26,0,0,0-2.39,1.42,2.53,2.53,0,0,0,1.76,4.27,66.82,66.82,0,0,0,7.22-.15l-.66-4.91a15,15,0,0,0-8.2,4.64,2.5,2.5,0,0,0,3.54,3.54,5.46,5.46,0,0,0,0-7.95c-2.58-2.39-6.45-2-9,.13-2.17,1.76-5.12,7.05-.76,8.25,1.56.43,3.42-.66,4.82-1.22,1.75-.71,3.48-1.45,5.19-2.24l-2.52-4.31c-4.65,2.94-9.47,6.35-10.85,12a2.53,2.53,0,0,0,3.67,2.82,32.27,32.27,0,0,0,12.09-9.83,2.5,2.5,0,0,0-.39-3c-2-2.13-5.21-.44-7.46.43a81.93,81.93,0,0,0-7.78,3.47,2.52,2.52,0,0,0-.89,3.42,2.55,2.55,0,0,0,3.42.9q4.9-2.34,10-4.39a2.54,2.54,0,0,0,1.79-2.75,2.47,2.47,0,0,0-2.46-2.16A25.16,25.16,0,0,0,2206,52.41c-2,1.21-1.34,3.78.6,4.57,2.12.85,4.67.28,6.84-.09a43.22,43.22,0,0,0,6.63-1.68l-1.93-4.57a39.8,39.8,0,0,0-6.71,4.18c-2,1.53-4.62,3.33-5.24,5.92a2.52,2.52,0,0,0,2.41,3.16l11.52-.08-1.26-4.66c-4.6,2.11-9.73,3-14.61,4.23-2.71.66-2.18,5,.66,4.91s5.71-.39,8-2.24A7.27,7.27,0,0,0,2215.1,63a5.83,5.83,0,0,0,.38-2,6.78,6.78,0,0,0-.1-1,2.29,2.29,0,0,0-.11-.52c-.07-.33-.1-.22-.08.32L2214,61.24c-.13.09.84-.09,1.06-.13.46-.09.91-.18,1.36-.29a25.4,25.4,0,0,0,2.83-.82,11.67,11.67,0,0,0,4.59-2.67c1.53-1.59,2-4.58-.62-5.41a5.54,5.54,0,0,0-5.34,1.66c-1.45,1.46-.45,4.4,1.77,4.27a14.41,14.41,0,0,0,6.73-2c2.21-1.37,4.43-3.94,2.59-6.55-1.48-2.11-4.25-1.56-6.14-.4a16.81,16.81,0,0,0-5,4.79l4.66,1.26c.07-.81,2-1.33,2.77-1.52a14.26,14.26,0,0,0,5.3-1.92c2.18-1.58,2.77-4.43.37-6.16-1.78-1.29-4.15-1.42-6.27-1.44a71.85,71.85,0,0,0-13.88,1.21,38.1,38.1,0,0,1-6.73.75c-2.44,0-4.88-.11-7.32.11a65.76,65.76,0,0,1-7.67.65c-2.64-.06-5.28-.32-7.83.56a2.57,2.57,0,0,0-1.75,3.08,2.53,2.53,0,0,0,3.08,1.75Z" transform="translate(-13 -1.7)"/><path class="cls-13" d="M2220.6,32.84l-.28-.19.5.39a3.7,3.7,0,0,1-.62-.63l.39.51a4,4,0,0,1-.45-.78l.25.6a4.43,4.43,0,0,1-.27-1l.09.66a5.17,5.17,0,0,1,0-1.18l-.09.66a5.58,5.58,0,0,1,.36-1.27l-.25.6c.2-.46.46-.89.67-1.34a7.1,7.1,0,0,0,.71-2.42,2.48,2.48,0,0,0-.73-1.76,2.58,2.58,0,0,0-1.77-.74,2.54,2.54,0,0,0-1.77.74l-.39.5a2.43,2.43,0,0,0-.34,1.26l0,.13.09-.67a3.8,3.8,0,0,1-.25.81l.26-.59c-.36.79-.79,1.52-1.1,2.33a6.59,6.59,0,0,0-.42,2.74,6.24,6.24,0,0,0,2.88,5,2.51,2.51,0,0,0,3.42-.89,2.55,2.55,0,0,0-.89-3.42Z" transform="translate(-13 -1.7)"/><path class="cls-13" d="M2215.55,33.32c.91-7.12,8.53-10.39,15-10.06a13.7,13.7,0,0,1,13,11.27l3.08-3.07a54.49,54.49,0,0,1-6.72-1.26c-2.17-.59-4.24-1.51-6.42-2.07-4.7-1.21-9.59-.59-14.24.54-2.29.55-2.21,3.37-.6,4.57a7.78,7.78,0,0,0,4.25,1.14c1.55.11,3.1.16,4.66.15a70.32,70.32,0,0,0,9.72-.74,2.47,2.47,0,0,0,1.79-2.74,2.52,2.52,0,0,0-2.46-2.17A61.05,61.05,0,0,0,2222,30.13c-2.47.51-2.28,4.2,0,4.82a22.64,22.64,0,0,0,7.94.73,2.51,2.51,0,0,0,2.45-2.16,2.49,2.49,0,0,0-1.79-2.75l-4.76-1.08c-1.07-.24-2.51-.38-3.37-1.14.06.05-.41-.42-.42-.46-.07-.2.14-.31.22-.38a5.18,5.18,0,0,1,2.93-.83,30.73,30.73,0,0,1,9.1,1.06c1.89.44,4.41.82,5.39,2.73l2.82-3.67c-6.13-2.32-12.4.39-18.63-.65l.6,4.57a3.71,3.71,0,0,1,3.07-.64l-1.1-4.17a61.37,61.37,0,0,0-4.87,6.26c-1.09,1.6-2.2,3.45-4,4.38-3.9,2-7.9-1.06-9.71-4.39a25.14,25.14,0,0,0-3.94-6,18.45,18.45,0,0,0-5.72-3.88,26.13,26.13,0,0,0-15.75-1.32c-3.07.68-4.85,2.71-6.54,5.19s-3.23,5-3.67,8c-.23,1.62,1.1,3.89,3.08,3.07a41.69,41.69,0,0,1,13.76-3c5-.27,10-.22,15-.28,2,0,3.54-2.85,1.77-4.27-3.5-2.82-7.76-3.23-12.11-3.19l-7.28.09-3.94.05a11.8,11.8,0,0,0-1.33,0c-.85.1,0-.36,0,.42l-2.5,2.5a63.37,63.37,0,0,1,8.93-.17c2.78.16,5.88,1,8-1.38a5,5,0,0,0-1-7.29,12.39,12.39,0,0,0-4-1.41l-4.28-1.13-.67,4.91a56.57,56.57,0,0,1,8.23.49c2,.29,4.82.45,6.4,1.92,2.36,2.19,5.9-1.34,3.54-3.54s-5.26-2.69-8.24-3.14a62.27,62.27,0,0,0-9.93-.73c-2.79,0-3.43,4.18-.66,4.91,2,.51,3.91,1,5.86,1.55a5.46,5.46,0,0,0,.87.27c.36,0-.3.27.05,0,.18-.14-.55-.1-.67-.12a67.57,67.57,0,0,0-12.48-.13,2.57,2.57,0,0,0-2.5,2.5c-.13,2.9,2.51,4.44,5.08,4.57s5.44-.05,8.14-.09c2.42,0,4.86-.14,7.29,0a9.83,9.83,0,0,1,5.61,1.67l1.76-4.26c-10.1.13-20.51-.44-30,3.49l3.08,3.08a15.42,15.42,0,0,1,2.91-6.42,10.49,10.49,0,0,1,1.94-2.49,5.84,5.84,0,0,1,2.89-1c4.63-.66,9.59-.17,13.57,2.44a12.13,12.13,0,0,1,3.94,4.3,25.24,25.24,0,0,0,3.9,6,11.92,11.92,0,0,0,13.34,2.8,14.41,14.41,0,0,0,5.43-5.17,73,73,0,0,1,4.95-6.52,2.53,2.53,0,0,0-1.1-4.18A8.7,8.7,0,0,0,2222,26.6c-1.61,1.07-1.69,4.19.59,4.57a38.24,38.24,0,0,0,9.68,0c3-.27,6.05-.45,8.95.65,2.2.83,3.73-1.91,2.83-3.68-1.74-3.39-5.64-4.4-9.07-5.18-4-.91-8.6-1.77-12.67-.66-3.7,1-6.64,4.63-4.42,8.42a8,8,0,0,0,5,3.4c2.11.58,4.29,1,6.42,1.47l.67-4.91a18.64,18.64,0,0,1-6.61-.55V35a55.1,55.1,0,0,1,13.25-1.07l-.66-4.91a63.31,63.31,0,0,1-7.9.56c-1.31,0-2.62,0-3.93-.08-1-.05-2.13.08-2.94-.53l-.6,4.57c4.11-1,8.33-1.54,12.45-.3,2,.61,3.95,1.43,6,2a57.77,57.77,0,0,0,6.28,1.14,2.55,2.55,0,0,0,3.08-3.07c-1.43-8.79-9.67-14.7-18.26-15A21.56,21.56,0,0,0,2217,22a16.2,16.2,0,0,0-6.49,11.28,2.51,2.51,0,0,0,2.5,2.5,2.56,2.56,0,0,0,2.5-2.5Z" transform="translate(-13 -1.7)"/></g><g id="Capa_4" data-name="Capa 4"><path class="cls-2" d="M1228.11,38.75c-7-7.4,5.25-5.36,2.14-10.19-4.79-7.44,5.51-5,5.2-7.77-1.26-11.22,6.68-2.7,8.34-5.64,3.1-5.45,4.66-5,9.57-1.64" transform="translate(-13 -1.7)"/><path class="cls-2" d="M1228.55,38.31c-1-1-2.91-3.06-1.44-4.43.91-.86,2.21-1.19,3.2-2a2.44,2.44,0,0,0,.75-3.19c-.62-1.31-2.47-3.5-.74-4.72,1.16-.82,2.74-.86,4-1.31a2.94,2.94,0,0,0,1.37-.83c.59-.74.26-1.71.23-2.57-.07-1.47-.11-4,1.92-3.88,1.37.05,2.65.76,4,1,2.4.35,2.77-1.81,4.07-3.38a2.83,2.83,0,0,1,2.85-1.3,12.92,12.92,0,0,1,4.24,2.35c.66.45,1.29-.63.63-1.08-1.8-1.24-4.32-3.28-6.66-2.37a5.69,5.69,0,0,0-2.4,2.11,18.4,18.4,0,0,1-1.39,2.18.85.85,0,0,1-.5.29c-1.26.28-2.93-.74-4.18-.94A2.89,2.89,0,0,0,1235.1,16a8.23,8.23,0,0,0-.38,3.52c0,.87.42,1.51-.42,1.92-1.35.66-3,.63-4.29,1.35a3.06,3.06,0,0,0-1.39,4c.47,1.37,2.44,3.1.83,4.29-1.2.9-2.89,1.26-3.74,2.6-1.25,2,.68,4.21,2,5.59.55.6,1.43-.29.88-.88Z" transform="translate(-13 -1.7)"/><path class="cls-2" d="M1253.36,13.51c7.4-7,5.08,5.08,9.91,2,7.44-4.78,5,5.51,7.77,5.2,11.21-1.26,2.69,6.68,5.63,8.34,5.46,3.1,5,4.66,1.65,9.57" transform="translate(-13 -1.7)"/><path class="cls-2" d="M1253.8,14c1-.9,3-2.93,4.33-1.51.84.91,1.11,2.23,1.89,3.2a2.39,2.39,0,0,0,3.16.62c1.35-.68,3.53-2.45,4.71-.58.75,1.17.8,2.69,1.26,4,.65,1.79,1.67,1.6,3.38,1.53,1.52-.07,4-.09,3.87,2-.08,1.35-.76,2.6-1,3.93-.35,2.4,1.8,2.77,3.37,4.07a2.8,2.8,0,0,1,1.28,3,13.64,13.64,0,0,1-2.32,4.14c-.46.67.62,1.29,1.08.63,1.23-1.79,3.27-4.32,2.37-6.66a5.76,5.76,0,0,0-2.11-2.4c-.65-.49-1.54-.82-2.13-1.36a.8.8,0,0,1-.34-.53c-.28-1.24.72-2.88.92-4.1a2.92,2.92,0,0,0-1.62-3.49,7.93,7.93,0,0,0-3.42-.42c-.9,0-1.66.47-2.09-.41-.65-1.32-.63-2.9-1.32-4.23a3.06,3.06,0,0,0-3.9-1.49c-1.07.35-2,1.25-3,1.52a1.13,1.13,0,0,1-1.28-.59c-.86-1.17-1.15-2.81-2.43-3.65-1.94-1.28-4.21.73-5.56,2-.59.54.3,1.43.89.88Z" transform="translate(-13 -1.7)"/><path class="cls-2" d="M1278.32,38.59c7,7.4-5.08,4.81-2,9.63,4.79,7.45-5.51,5-5.2,7.78,1.27,11.21-6.67,2.69-8.34,5.63-3.09,5.46-4.66,5-9.56,1.64" transform="translate(-13 -1.7)"/><path class="cls-2" d="M1277.88,39c.85.92,2.94,3,1.51,4.24-.92.8-2.23,1-3.2,1.76a2.29,2.29,0,0,0-.62,3.1c.68,1.36,2.44,3.54.58,4.72-1.18.75-2.69.79-4,1.26-1.79.65-1.6,1.66-1.53,3.37.07,1.53.09,4-2,3.88-1.35-.08-2.6-.76-3.94-1-2.4-.35-2.76,1.81-4.06,3.38a2.83,2.83,0,0,1-3,1.28,14.1,14.1,0,0,1-4.14-2.32c-.66-.46-1.29.62-.63,1.07,1.8,1.24,4.33,3.28,6.67,2.37a5.73,5.73,0,0,0,2.4-2.1c.48-.66.82-1.54,1.35-2.14a.84.84,0,0,1,.53-.34c1.24-.27,2.89.72,4.11.93a2.92,2.92,0,0,0,3.49-1.62,8,8,0,0,0,.42-3.43c0-.89-.48-1.65.41-2.08,1.32-.65,2.9-.63,4.22-1.33a3,3,0,0,0,1.49-3.89c-.34-1.07-1.25-2-1.51-3-.14-.58.12-.9.58-1.22,1.18-.81,2.81-1,3.66-2.29,1.29-1.9-.76-4.17-2-5.48-.55-.6-1.43.29-.88.88Z" transform="translate(-13 -1.7)"/><path class="cls-2" d="M1253.24,63.27c-7.4,7-5.37-5.24-10.19-2.14-7.45,4.79-5-5.51-7.78-5.19-11.21,1.26-2.69-6.68-5.63-8.35-5.46-3.09-4.92-3.93-1.53-8.84" transform="translate(-13 -1.7)"/><path class="cls-2" d="M1252.8,62.83c-1,1-3.06,2.91-4.44,1.45-.85-.91-1.18-2.22-1.95-3.2a2.44,2.44,0,0,0-3.2-.76c-1.3.63-3.49,2.47-4.71.74-.82-1.15-.86-2.73-1.32-4a2.9,2.9,0,0,0-.82-1.38c-.74-.58-1.72-.26-2.57-.22-1.47.06-4,.11-3.89-1.92.06-1.38.77-2.65,1-4,.34-2.34-1.67-2.74-3.27-3.93-.86-.63-1.64-1.37-1.34-2.5a14.6,14.6,0,0,1,2.39-4c.46-.67-.62-1.29-1.08-.63-1.11,1.61-3.32,4.05-2.44,6.2a5.39,5.39,0,0,0,2.07,2.19,15.84,15.84,0,0,1,2.18,1.33.88.88,0,0,1,.29.5c.28,1.26-.74,2.94-.94,4.18a2.89,2.89,0,0,0,1.7,3.45,8.44,8.44,0,0,0,3.53.38c.87,0,1.5-.42,1.91.42.67,1.35.64,2.95,1.36,4.29a3.08,3.08,0,0,0,4,1.39c1.37-.47,3.09-2.45,4.29-.84.9,1.21,1.25,2.89,2.59,3.74,2,1.26,4.22-.67,5.6-2,.59-.55-.29-1.43-.88-.89Z" transform="translate(-13 -1.7)"/><path class="cls-2" d="M1257,16.13a15.19,15.19,0,0,1-3.43-.95l1.5,3.67-.06.1-1.1.65-.15,0c3.19-.19,3.24-4.92,0-5a7.18,7.18,0,0,0-4.69,1.7c-1.27,1-2.2,2.38-3.47,3.38s-2.56,1.55-3.76,2.45a18.14,18.14,0,0,0-3.54,3.57c-.92,1.18-1.73,2.44-2.63,3.63a15.72,15.72,0,0,1-3.38,3c-2.89,2.19-4,5.47-2.07,8.73a61.59,61.59,0,0,0,6,7.74,75.13,75.13,0,0,0,6.65,6.94c2.46,2.23,5.19,5.15,8.74,3.57a65.57,65.57,0,0,0,8.71-5.12,41.72,41.72,0,0,0,4.46-3.26,36.79,36.79,0,0,0,3.86-4.13,44.14,44.14,0,0,1,7.76-7.26l-3-3.92a36.28,36.28,0,0,0-3.5,4.86l4.57,1.93c1-2.42,2.85-5.23.73-7.57a56.11,56.11,0,0,0-5.64-5q-3-2.46-6.06-4.74c-1-.76-2.06-1.49-3.11-2.22-.61-.42-1.94-1.14-2.13-1.9v1.32l-1.72.84.19.11c.1.2.49.42.66.57.5.44,1,.9,1.42,1.38.15.15.41.56.6.64.26.39.36.18.28-.63.36-.52.39-.78.08-.8s-.76-.06-1-.09a28.78,28.78,0,0,1-3.46-.75c-.69-.18-1.63-.26-2-.95a2.52,2.52,0,0,0-3.93-.5c-2.43,2.88-5.59,4.9-8.56,7.17a31.86,31.86,0,0,0-4.45,3.92c-1.39,1.55-3.36,3.76-2.88,6s2.29,2.62,3.89,3.76,2.59,3,3.74,4.44a49.52,49.52,0,0,0,4.54,5.06c1.83,1.78,3.83,3,6.42,2,3.73-1.52,6.69-5,9.34-7.92,1.37-1.5,2.74-3,4.24-4.38s3.86-2.37,4.32-4.48c.64-3-2.68-3.69-4.66-4.69s-3.82-2.28-5.75-3.4c-4.2-2.46-8.83-2.88-13.11-.3a20.14,20.14,0,0,0-5.48,5.21c-1.58,2.08-2.62,4.7-.36,6.78a12.14,12.14,0,0,0,2.85,1.62,17.85,17.85,0,0,1,2.76,1.79,47.81,47.81,0,0,1,5.36,5.29,2.52,2.52,0,0,0,3.92-.51c1.13-1.77,1.33-3.82,2.13-5.72a12,12,0,0,1,3.44-4.53c1.49-1.27.58-3.68-1.1-4.18-2.31-.68-4.64-1.28-7-1.75-2.14-.43-4.54-.86-6.26.86a3.78,3.78,0,0,0,.53,5.88c1.22.77,2.87.68,3.42,2.26a2.55,2.55,0,0,0,3.07,1.74,2.52,2.52,0,0,0,1.75-3.07A7.79,7.79,0,0,0,1253,37.3a7.14,7.14,0,0,0-1.76-1,4.55,4.55,0,0,0-.93-.35c-.23-.17-.33-.2-.31-.08.06.61.13,1.22.22,1.82.06.06-.3,0,0,.18a5.19,5.19,0,0,0,.92.16c.79.15,1.57.32,2.35.49q2.58.6,5.12,1.35l-1.11-4.17a16.11,16.11,0,0,0-4,5.18c-.94,1.94-1.15,4.27-2.29,6.08l3.92-.51a38.38,38.38,0,0,0-8.23-7.35,21.2,21.2,0,0,0-2.12-1.09,5.67,5.67,0,0,0-.86-.46c.4-.06.47.32.24,1.13.13-.23.27-.45.42-.67a17.46,17.46,0,0,1,3.24-3.57,8.58,8.58,0,0,1,4.15-2,7.54,7.54,0,0,1,4.72,1.21c1.62.91,3.13,2,4.75,2.89.77.43,1.56.83,2.35,1.21a13.82,13.82,0,0,1,2.4,1.11l-.89-.89.12.27-.25-1.93c.06-.35.27-.26,0-.19a3.74,3.74,0,0,0-.63.45c-.43.32-.86.66-1.27,1a30.73,30.73,0,0,0-2.32,2.1c-1.4,1.39-2.7,2.87-4,4.32a41.28,41.28,0,0,1-4.34,4.23,13.08,13.08,0,0,1-2,1.41,1.44,1.44,0,0,1-.48.21c.13,0,.29.07.12,0-.35-.14-.73-.66-1-.93a45.91,45.91,0,0,1-4.47-5,25.25,25.25,0,0,0-4-4.68,6.68,6.68,0,0,0-2.3-1.41c-.12,0-.23-.13-.26-.12s.55,1,.29,1a12.07,12.07,0,0,0,.81-1.21,22.58,22.58,0,0,1,3.72-3.59c3.36-2.7,7.13-4.91,9.94-8.25l-3.93-.5a6.49,6.49,0,0,0,4.2,3,30,30,0,0,0,5.65,1.15c1.88.19,4.07-.39,5.09-2.13,1.27-2.17-.29-4.19-1.76-5.71s-3.09-3.22-5.18-3.28a3.48,3.48,0,0,0-3.58,4.08c.45,2,2.36,3.42,3.93,4.55s3.16,2.21,4.7,3.38c1.71,1.29,3.37,2.64,5,4q1.21,1,2.4,2.1a14.85,14.85,0,0,1,2.11,2l-.34-1.26a5.39,5.39,0,0,1-.65,1.76l-.93,2.24a2.48,2.48,0,0,0,1.45,3,2.52,2.52,0,0,0,3.12-1,29.62,29.62,0,0,1,2.71-3.85,2.52,2.52,0,0,0,.2-3.28,2.49,2.49,0,0,0-3.23-.64,49.44,49.44,0,0,0-6.74,5.78c-1.9,2-3.5,4.25-5.55,6.09a48.69,48.69,0,0,1-6.9,4.73c-1.34.83-2.69,1.65-4.08,2.4-.32.18-.91.67-1.26.63.52.06.09-.06,0-.17a4.83,4.83,0,0,0-1-.77,77.63,77.63,0,0,1-11.54-12.22,33.92,33.92,0,0,1-2.34-3.16c-.58-1-.35-1.33.47-2s2-1.38,2.89-2.21a21.75,21.75,0,0,0,2.83-3.51,27.94,27.94,0,0,1,2.62-3.4,17.54,17.54,0,0,1,3.59-2.63,18.35,18.35,0,0,0,3.83-3.2c.81-.87,1.68-2,3-2v-5a3.46,3.46,0,0,0-3,1.76A2.53,2.53,0,0,0,1252.2,20a20.5,20.5,0,0,0,4.76,1.13,2.51,2.51,0,0,0,2.5-2.5,2.57,2.57,0,0,0-2.5-2.5Z" transform="translate(-13 -1.7)"/><path class="cls-2" d="M1261.59,51.63c-1.39.56-2.82,1.08-4.18,1.71a5.76,5.76,0,0,0-1.82,1.35c-.17.18-.32.38-.48.57s-.43.41-.61.63c.1-.12.42-.33.09-.11s.61-.22.1,0c-.24.08-.49.14-.74.2a7.29,7.29,0,0,0-1.87.71,3.84,3.84,0,0,0-1.81,2.35,3,3,0,0,0,2.16,3.58,2.5,2.5,0,0,0,1.33-4.82l1.35,2.43-.42.73c.26-.34-.32.17-.14.09l.23-.13c.24-.15-.49.16-.22.09s.8-.22,1.19-.33a5.75,5.75,0,0,0,2.9-1.85q.4-.48.84-.93c.19-.19-.38.22-.12.11l.35-.2.29-.14c.32-.16-.09,0-.15.06.13-.15.55-.23.75-.31l.77-.31,1.54-.62a2.73,2.73,0,0,0,1.5-1.15,2.57,2.57,0,0,0,.25-1.92c-.38-1.17-1.78-2.27-3.08-1.75Z" transform="translate(-13 -1.7)"/><circle class="cls-14" cx="1240.52" cy="36.89" r="20.7"/><path class="cls-2" d="M1253,27.84l1.85,3.74,1.28,2.59a3,3,0,0,0,.63,1.13,3,3,0,0,0,1.26.26l2.74.4,4.25.62-.28-1-3.15,3.08-1.91,1.85c-.26.26-.81.63-.92,1a3.61,3.61,0,0,0,.17,1.3l.46,2.69.75,4.35.92-.71-3.9-2-2.35-1.24a3.58,3.58,0,0,0-1.26-.57,3.09,3.09,0,0,0-1.18.54l-2.42,1.27-3.9,2,.91.71.75-4.35.45-2.61a3.83,3.83,0,0,0,.18-1.38c-.11-.37-.61-.71-.87-1l-2-1.91-3.16-3.08-.27,1,4.13-.6,2.85-.42a2.86,2.86,0,0,0,1.27-.26c.31-.23.46-.8.63-1.13l1.22-2.48,1.9-3.85c.36-.72-.72-1.35-1.08-.63l-1.75,3.54L1250,33.24a7.56,7.56,0,0,0-.45.9s-.12.18-.11.23.09.56.12,0c0-.24.25-.1-.19-.09a9.26,9.26,0,0,0-.92.13l-2.72.4-4,.58a.63.63,0,0,0-.27,1.05l5.81,5.67-.16-.61-1.37,8a.64.64,0,0,0,.92.71l7.19-3.78h-.63l7.18,3.78a.63.63,0,0,0,.92-.71l-1.37-8-.16.61,5.81-5.67a.63.63,0,0,0-.27-1.05l-3.91-.56-2.74-.4a8.62,8.62,0,0,0-1-.15,2.34,2.34,0,0,0-.26,0c-.3.12.18-.33.06.13.11-.42.12.41.13,0,0-.06-.09-.17-.12-.23a8,8,0,0,0-.41-.83l-1.21-2.46-1.8-3.64C1253.7,26.49,1252.63,27.12,1253,27.84Z" transform="translate(-13 -1.7)"/><path class="cls-2" d="M1235.31,88.39l-2.81-7.14a.64.64,0,0,0-.6-.46l-7.65.56.54,1,13.56-21.58,1.92-3.06-.86.23,10.46,6.57-.23-.85-13.56,21.57-1.91,3.06c-.43.68.65,1.31,1.07.63l13.57-21.58,1.91-3.05a.63.63,0,0,0-.22-.86L1240,56.81a.64.64,0,0,0-.85.22l-13.56,21.58-1.92,3a.63.63,0,0,0,.54.94l7.65-.56-.61-.46,2.81,7.14C1234.39,89.46,1235.6,89.14,1235.31,88.39Z" transform="translate(-13 -1.7)"/><path class="cls-2" d="M1282.68,79.74,1275,79a.63.63,0,0,0-.6.46l-3,7.08,1.15-.15-13.12-21.85-1.85-3.09-.22.85L1268,56l-.86-.23,13.11,21.86,1.86,3.09a.63.63,0,0,0,1.08-.63l-13.11-21.86-1.86-3.09a.63.63,0,0,0-.85-.22l-10.6,6.35a.64.64,0,0,0-.22.86l13.11,21.85,1.86,3.09a.63.63,0,0,0,1.14-.15l3-7.08-.6.46,7.64.73C1283.48,81.06,1283.47,79.81,1282.68,79.74Z" transform="translate(-13 -1.7)"/><path class="cls-2" d="M1230.44,41.28c3.22,0,3.23-5,0-5s-3.22,5,0,5Z" transform="translate(-13 -1.7)"/><path class="cls-2" d="M1250.11,64.28c3.22,0,3.22-5,0-5s-3.22,5,0,5Z" transform="translate(-13 -1.7)"/><path class="cls-2" d="M1255.44,64.61c3.22,0,3.23-5,0-5s-3.22,5,0,5Z" transform="translate(-13 -1.7)"/><path class="cls-2" d="M1250.89,64.28c3.22,0,3.22-5,0-5s-3.22,5,0,5Z" transform="translate(-13 -1.7)"/><path class="cls-2" d="M1276.56,42.06c3.21,0,3.22-5,0-5s-3.23,5,0,5Z" transform="translate(-13 -1.7)"/><path class="cls-2" d="M1276.78,44.72c3.22,0,3.22-5,0-5s-3.22,5,0,5Z" transform="translate(-13 -1.7)"/><path class="cls-2" d="M1255.33,17.39c3.22,0,3.23-5,0-5s-3.22,5,0,5Z" transform="translate(-13 -1.7)"/><path class="cls-2" d="M1251.33,17.61c3.22,0,3.23-5,0-5s-3.22,5,0,5Z" transform="translate(-13 -1.7)"/><path class="cls-2" d="M1395.65,78.65c-.07,4.18-2.85,8.34-7.34,8.42-1.24,0-2.48,0-3.72,0h-32.83a7.39,7.39,0,0,1-6.55-3.39,10.81,10.81,0,0,1-1.44-6V29.13c0-1.14,0-2.28,0-3.42,0-3.4,1.73-7,5.11-8.19a15.07,15.07,0,0,1,5.06-.38h26.22a1.25,1.25,0,0,0,0-2.5c-9.66,0-19.33-.14-29,0a10,10,0,0,0-9,6.42,15,15,0,0,0-.87,5.78V76.77a23.61,23.61,0,0,0,.19,4c.8,4.59,4.49,8.55,9.29,8.77,4,.18,8,0,12,0h19.77c1.8,0,3.6,0,5.4,0a9.77,9.77,0,0,0,8.07-4.09,11.88,11.88,0,0,0,2.16-6.83,1.25,1.25,0,0,0-2.5,0Z" transform="translate(-13 -1.7)"/><path class="cls-2" d="M1395.65,32.81V47.9a1.25,1.25,0,0,0,2.5,0V32.81a1.25,1.25,0,0,0-2.5,0Z" transform="translate(-13 -1.7)"/><path class="cls-2" d="M1396.9,31.75l-4.44-.1c-1.46,0-3,0-4.42-.12a7.52,7.52,0,0,1-5.9-4.68,13.93,13.93,0,0,1-.73-5.62V15.89a1.25,1.25,0,0,0-2.5,0v4.95a18.41,18.41,0,0,0,.65,6.23,10.5,10.5,0,0,0,6.24,6.5,17.52,17.52,0,0,0,5.5.55l5.6.13a1.25,1.25,0,0,0,0-2.5Z" transform="translate(-13 -1.7)"/><path class="cls-2" d="M1379.66,16.77,1394,31.43l2,2c1.13,1.15,2.9-.61,1.77-1.77l-14.34-14.65-2-2.06c-1.13-1.15-2.89.62-1.77,1.77Z" transform="translate(-13 -1.7)"/><polygon class="cls-15" points="1374.43 77.37 1366.45 80.09 1367.9 71.78 1391 44.79 1397.53 50.38 1374.43 77.37"/><path class="cls-15" d="M1406.5,44.75H1412a1.76,1.76,0,0,1,1.76,1.76v2.24a0,0,0,0,1,0,0h-8.59a0,0,0,0,1,0,0V46.12A1.37,1.37,0,0,1,1406.5,44.75Z" transform="translate(355.88 -906.75) rotate(40.55)"/><line class="cls-15" x1="1367.9" y1="71.78" x2="1374.43" y2="77.37"/><line class="cls-15" x1="1340.07" y1="37.05" x2="1375.72" y2="37.05"/><line class="cls-15" x1="1340.07" y1="45.06" x2="1375.72" y2="45.06"/><line class="cls-15" x1="1375.72" y1="52.34" x2="1340.07" y2="52.34"/><path d="M1485.33,11.72a1.66,1.66,0,0,0-1.64,1.39l-1.69,10a29.47,29.47,0,0,0-5.62,2.3l-8.27-5.83a1.67,1.67,0,0,0-2.14.19l-6.5,6.5a1.68,1.68,0,0,0-.19,2.14l5.83,8.28a27.68,27.68,0,0,0-2.3,5.6l-9.76,1.53a1.66,1.66,0,0,0-1.41,1.64v9.17a1.67,1.67,0,0,0,1.39,1.65l9.94,1.68a30,30,0,0,0,2.3,5.61l-5.81,8.11a1.67,1.67,0,0,0,.17,2.15l6.51,6.5a1.67,1.67,0,0,0,2.14.19l8.28-5.83a27.53,27.53,0,0,0,5.61,2.3l1.68,10a1.67,1.67,0,0,0,1.65,1.39h9.17a1.68,1.68,0,0,0,1.64-1.37l1.84-10a30,30,0,0,0,5.63-2.31l8.28,5.83a1.66,1.66,0,0,0,2.14-.19l6.5-6.5a1.67,1.67,0,0,0,.17-2.16l-6-8.27a29.16,29.16,0,0,0,2.29-5.44l9.79-1.68a1.67,1.67,0,0,0,1.38-1.65V45.41a1.67,1.67,0,0,0-1.39-1.64l-10-1.69a29.25,29.25,0,0,0-2.29-5.45l5.82-8.27a1.67,1.67,0,0,0-.18-2.14l-6.51-6.5a1.67,1.67,0,0,0-2.16-.18l-8.27,6a27.42,27.42,0,0,0-5.6-2.29l-1.68-10.11a1.67,1.67,0,0,0-1.65-1.4Zm1.41,3.34h6.35l1.6,9.61a1.69,1.69,0,0,0,1.24,1.35,24.4,24.4,0,0,1,6.87,2.8,1.66,1.66,0,0,0,1.85-.07l7.86-5.67,4.5,4.51-5.52,7.86a1.65,1.65,0,0,0-.06,1.83,25.59,25.59,0,0,1,2.81,6.73,1.67,1.67,0,0,0,1.33,1.21l9.45,1.6v6.36l-9.29,1.6a1.64,1.64,0,0,0-1.32,1.21,25.93,25.93,0,0,1-2.81,6.73,1.65,1.65,0,0,0,.07,1.85l5.67,7.85-4.51,4.51L1505,71.4a1.68,1.68,0,0,0-1.79-.08,26.74,26.74,0,0,1-6.91,2.83,1.66,1.66,0,0,0-1.24,1.32l-1.75,9.47h-6.37l-1.6-9.45a1.67,1.67,0,0,0-1.24-1.34,24.42,24.42,0,0,1-6.87-2.81,1.7,1.7,0,0,0-1.84.06l-7.86,5.53L1463,72.42l5.52-7.69a1.68,1.68,0,0,0,.09-1.8,26.12,26.12,0,0,1-2.83-6.92,1.66,1.66,0,0,0-1.34-1.23l-9.45-1.6V46.84l9.26-1.45a1.66,1.66,0,0,0,1.36-1.24,24.52,24.52,0,0,1,2.8-6.87,1.67,1.67,0,0,0-.05-1.83l-5.53-7.86,4.52-4.52,7.86,5.53a1.66,1.66,0,0,0,1.78.08,26.81,26.81,0,0,1,6.92-2.83,1.67,1.67,0,0,0,1.24-1.34ZM1490,36.74a13.35,13.35,0,1,0,13.34,13.34A13.31,13.31,0,0,0,1490,36.74Zm0,3.34a10,10,0,1,1-10,10A9.89,9.89,0,0,1,1490,40.08Z" transform="translate(-13 -1.7)"/><path class="cls-16" d="M1623.06,87.33h-24.52a9,9,0,0,1-8.83-7.2l-9.31-45.44a2.3,2.3,0,0,1,2.26-2.76h54.69a2.3,2.3,0,0,1,2.25,2.75l-9.17,46.6A7.5,7.5,0,0,1,1623.06,87.33Z" transform="translate(-13 -1.7)"/><rect class="cls-10" x="1593.2" y="37.05" width="7.06" height="45.66" rx="3.11" transform="translate(-10.13 170.99) rotate(-6.2)"/><rect class="cls-10" x="1620.68" y="37.18" width="7.06" height="45.69" rx="3.11" transform="translate(3.38 -179.44) rotate(6.3)"/><rect class="cls-10" x="1594.97" y="33.71" width="7.06" height="47.34" rx="3.11"/><path class="cls-16" d="M1639.24,23.58h-57.85a1.27,1.27,0,0,1-1.1-1.89l2.18-3.84a4.48,4.48,0,0,1,3.89-2.26h46.25a4.82,4.82,0,0,1,4,2.2l3.12,4.81A.63.63,0,0,1,1639.24,23.58Z" transform="translate(-13 -1.7)"/><rect class="cls-16" x="1585.91" y="6.05" width="23.72" height="7.84" rx="1.75"/><rect class="cls-17" x="1589.69" y="9.48" width="16.15" height="2.45" rx="1.23"/><polygon class="cls-15" points="1706.57 69.06 1695.48 72.84 1697.5 61.3 1729.58 23.8 1738.65 31.56 1706.57 69.06"/><path class="cls-15" d="M1745.52,23.09h8.81a1.76,1.76,0,0,1,1.76,1.76v3.8a0,0,0,0,1,0,0h-11.94a0,0,0,0,1,0,0V24.46a1.37,1.37,0,0,1,1.37-1.37Z" transform="translate(424.12 -1133.25) rotate(40.55)"/><line class="cls-15" x1="1697.5" y1="61.3" x2="1706.57" y2="69.06"/><line class="cls-15" x1="1730.68" y1="32" x2="1705.06" y2="61.06"/><path class="cls-5" d="M1879.67,50a28.18,28.18,0,1,1-28.18-28.18" transform="translate(-13 -1.7)"/><line class="cls-5" x1="1829.57" y1="11.13" x2="1840.24" y2="21.8"/><line class="cls-5" x1="1829.3" y1="30.55" x2="1840.51" y2="19.34"/><path class="cls-2" d="M2330.22,95.8c-5.55-13.91-37.89-22.06-41.66-45.8-4-25,18.65-45.8,41.66-45.8s47.42,21.17,41.67,45.8c-5.56,23.78-34.89,31.89-41.67,45.8" transform="translate(-13 -1.7)"/><path class="cls-18" d="M2332.63,95.14c-2.6-6.39-8.52-10.65-13.94-14.54-6.42-4.61-12.86-8.71-18.41-14.29a35,35,0,0,1-6.87-9.26,28.77,28.77,0,0,1-2.81-12.13,35.92,35.92,0,0,1,10.2-25.17A42,42,0,0,1,2325.49,7a40.88,40.88,0,0,1,26.17,6c7.8,4.74,14.44,12,17.2,20.83a30.54,30.54,0,0,1-3.54,25.39c-4.34,6.91-11.06,12.3-17.53,17.07-5.88,4.34-12.44,8.43-17.05,14.2a22.82,22.82,0,0,0-2.68,4.06c-1.42,2.87,2.89,5.41,4.32,2.52a19.5,19.5,0,0,1,1.14-2c.2-.3.4-.59.61-.88.43-.58-.31.38.15-.19q.19-.26.42-.51a36,36,0,0,1,3.62-3.69,108.19,108.19,0,0,1,9-7c7-5.11,14.16-10.27,19.55-17.14,6.18-7.89,9.43-17.63,8-27.67-1.35-9.86-7.06-18.72-14.65-25a48.48,48.48,0,0,0-27.87-11.25,44.93,44.93,0,0,0-28.45,8.68c-8.23,6-14.67,14.52-17.16,24.47-2.37,9.45-1.18,19.73,4.22,27.93,4.7,7.13,11.56,12.42,18.44,17.31,6,4.26,12.15,7.75,16.7,13.49.25.32-.34-.47,0,.07l.35.49c.18.27.36.54.53.82s.33.56.47.84.55,1.22.3.61a2.58,2.58,0,0,0,3.08,1.74,2.51,2.51,0,0,0,1.74-3.07Z" transform="translate(-13 -1.7)"/></g></svg>