<svg id="Capa_1" data-name="Capa 1" xmlns="http://www.w3.org/2000/svg" viewBox="0 0 100 100"><defs><style>.cls-1{fill:#1d1d1b;}.cls-2{fill:none;stroke:#1d1d1b;stroke-miterlimit:10;stroke-width:0.5px;}</style></defs><path class="cls-1" d="M17.33,28.19H84.44c3.87,0,3.87-6,0-6H17.33c-3.86,0-3.86,6,0,6Z"/><path class="cls-1" d="M16.74,49.44H83.85c3.86,0,3.87-6,0-6H16.74c-3.86,0-3.87,6,0,6Z"/><path class="cls-1" d="M16.74,49.44H83.85c3.86,0,3.87-6,0-6H16.74c-3.86,0-3.87,6,0,6Z"/><path class="cls-1" d="M16.74,70.7H83.85c3.86,0,3.87-6,0-6H16.74c-3.86,0-3.87,6,0,6Z"/><path class="cls-1" d="M16.74,70.7H83.85c3.86,0,3.87-6,0-6H16.74c-3.86,0-3.87,6,0,6Z"/><line class="cls-2" x1="16.74" y1="46.44" x2="83.85" y2="46.44"/><line class="cls-2" x1="16.74" y1="46.44" x2="83.85" y2="46.44"/></svg>