<?xml version="1.0" encoding="utf-8"?>
<!-- Generator: Adobe Illustrator 19.2.1, SVG Export Plug-In . SVG Version: 6.00 Build 0)  -->
<svg version="1.1" xmlns="http://www.w3.org/2000/svg" xmlns:xlink="http://www.w3.org/1999/xlink" x="0px" y="0px"
	 viewBox="0 0 1400 980" style="enable-background:new 0 0 1400 980;" xml:space="preserve">
<style type="text/css">
	.st0{fill:#9DDFDD;}
	.st1{fill:#C3E8E7;}
	.st2{fill:#4CA7A2;}
	.st3{filter:url(#Adobe_OpacityMaskFilter);}
	.st4{filter:url(#Adobe_OpacityMaskFilter_1_);}
	.st5{mask:url(#SVGID_1_);fill:url(#SVGID_2_);}
	.st6{opacity:0.32;fill:url(#SVGID_3_);}
	.st7{fill:#7CBDD1;}
	.st8{fill:#64A9BA;}
	.st9{fill:#508996;}
	.st10{fill:#EEFFFF;}
	.st11{clip-path:url(#SVGID_5_);}
	.st12{opacity:0.29;}
	.st13{fill:#FFFFFF;}
	.st14{fill:#D98F4A;}
	.st15{fill:#E89F5D;}
	.st16{opacity:0.13;fill:#291F19;}
	.st17{fill:#704A26;}
	.st18{fill:#6E5020;}
	.st19{fill:#594119;}
	.st20{fill:#D4983B;}
	.st21{fill:#9C6F2B;}
	.st22{fill:#5E451B;}
	.st23{fill:#3B4A8A;}
	.st24{fill:#FFC86D;}
	.st25{fill:#E74542;}
	.st26{fill:#611D1C;}
	.st27{fill:#DEDEDE;}
	.st28{fill:#1C2342;}
	.st29{fill:#755C32;}
	.st30{fill:#428A3B;}
	.st31{fill:#22471F;}
	.st32{fill:#FF6DAC;}
	.st33{fill:#BA507E;}
	.st34{fill:#BE42E7;}
	.st35{fill:#6B2582;}
	.st36{fill:#E3E3E3;}
	.st37{fill:#A1A1A1;}
	.st38{filter:url(#Adobe_OpacityMaskFilter_2_);}
	.st39{filter:url(#Adobe_OpacityMaskFilter_3_);}
	.st40{mask:url(#SVGID_6_);fill:url(#SVGID_7_);}
	.st41{opacity:0.49;fill:url(#SVGID_8_);}
	.st42{fill:#435C63;}
	.st43{fill:#969696;}
	.st44{filter:url(#Adobe_OpacityMaskFilter_4_);}
	.st45{filter:url(#Adobe_OpacityMaskFilter_5_);}
	.st46{mask:url(#SVGID_9_);fill:url(#SVGID_10_);}
	.st47{opacity:0.18;fill:url(#SVGID_11_);}
	.st48{filter:url(#Adobe_OpacityMaskFilter_6_);}
	.st49{filter:url(#Adobe_OpacityMaskFilter_7_);}
	.st50{mask:url(#SVGID_12_);fill:url(#SVGID_13_);}
	.st51{opacity:0.18;fill:url(#SVGID_14_);}
	.st52{fill:#622793;}
	.st53{fill:#542280;}
	.st54{fill:#D2D7DA;}
	.st55{fill:#E5EAED;}
	.st56{fill:#FEA899;}
	.st57{fill:#C2713E;}
	.st58{fill:#05666D;}
	.st59{fill:#DB9084;}
	.st60{fill:#EB9B8E;}
	.st61{fill:#057078;}
	.st62{fill:#E6978B;}
	.st63{opacity:0.6;fill:#FFFFFF;}
	.st64{filter:url(#Adobe_OpacityMaskFilter_8_);}
	.st65{filter:url(#Adobe_OpacityMaskFilter_9_);}
	.st66{mask:url(#SVGID_15_);fill:url(#SVGID_16_);}
	.st67{opacity:0.38;fill:url(#SVGID_17_);}
	.st68{fill:#577A82;}
	.st69{fill:#D9D9D9;}
	.st70{fill:#BABABA;}
	.st71{fill:#B0B0B0;}
	.st72{fill:#CFA944;}
	.st73{fill:#FFE6A3;}
	.st74{fill:#5C533B;}
	.st75{fill:#5165BD;}
	.st76{fill:#FFD45C;}
	.st77{fill:#DBB54E;}
	.st78{fill:#AB7B30;}
	.st79{fill:#4E6C74;}
	.st80{fill:#D6945B;}
	.st81{fill:#A87447;}
	.st82{fill:#F5E6BF;}
</style>
<g id="Background">
</g>
<g id="Objects">
	<g>
		<g>
			<rect class="st0" width="1400" height="778"/>
			<rect y="667" class="st1" width="1400" height="111"/>
			<rect y="724" class="st2" width="1400" height="256"/>
		</g>
		<g>
			<g>
				<defs>
					<filter id="Adobe_OpacityMaskFilter" filterUnits="userSpaceOnUse" x="94.5" y="477.1" width="1282" height="246.9">
						<feFlood  style="flood-color:white;flood-opacity:1" result="back"/>
						<feBlend  in="SourceGraphic" in2="back" mode="normal"/>
					</filter>
				</defs>
				<mask maskUnits="userSpaceOnUse" x="94.5" y="477.1" width="1282" height="246.9" id="SVGID_1_">
					<g class="st3">
						<defs>
							<filter id="Adobe_OpacityMaskFilter_1_" filterUnits="userSpaceOnUse" x="94.5" y="477.1" width="1282" height="246.9">
								<feFlood  style="flood-color:white;flood-opacity:1" result="back"/>
								<feBlend  in="SourceGraphic" in2="back" mode="normal"/>
							</filter>
						</defs>
						<mask maskUnits="userSpaceOnUse" x="94.5" y="477.1" width="1282" height="246.9" id="SVGID_1_">
							<g class="st4">
							</g>
						</mask>
						<linearGradient id="SVGID_2_" gradientUnits="userSpaceOnUse" x1="137.4397" y1="357.9405" x2="1331.859" y2="823.6756">
							<stop  offset="1.081080e-002" style="stop-color:#FFFFFF"/>
							<stop  offset="1" style="stop-color:#000000"/>
						</linearGradient>
						<polygon class="st5" points="94.5,477.1 786.2,724 1376.6,724 791.7,477.1 						"/>
					</g>
				</mask>
				<linearGradient id="SVGID_3_" gradientUnits="userSpaceOnUse" x1="137.4397" y1="357.9405" x2="1331.859" y2="823.6756">
					<stop  offset="1.081080e-002" style="stop-color:#FFFFFF"/>
					<stop  offset="1" style="stop-color:#FFFFFF"/>
				</linearGradient>
				<polygon class="st6" points="94.5,477.1 786.2,724 1376.6,724 791.7,477.1 				"/>
				<g>
					<rect x="94.5" y="97" class="st7" width="697.1" height="380.1"/>
					<g>
						<rect x="509.1" y="153" class="st8" width="123" height="309.1"/>
						<g>
							<rect x="522.4" y="167.7" class="st9" width="23.3" height="24.4"/>
							<rect x="551.2" y="197.8" class="st9" width="23.3" height="24.4"/>
							<rect x="579.8" y="167.7" class="st9" width="23.3" height="24.4"/>
							<rect x="579.8" y="230.3" class="st9" width="23.3" height="24.4"/>
							<rect x="579.8" y="267.7" class="st9" width="23.3" height="24.4"/>
						</g>
					</g>
					<g>
						<polygon class="st8" points="756.8,462.1 652.1,462.1 652.1,264.8 756.8,211 						"/>
						<g>
							<rect x="661.1" y="276.2" class="st9" width="9" height="76"/>
							<rect x="680.4" y="276.2" class="st9" width="9" height="76"/>
							<rect x="699.9" y="276.2" class="st9" width="9" height="76"/>
							<rect x="719.5" y="276.2" class="st9" width="9" height="76"/>
							<rect x="738.8" y="276.2" class="st9" width="9" height="76"/>
						</g>
					</g>
					<g>
						<polygon class="st8" points="475.8,231.7 475.8,217.5 459.1,217.5 459.1,207.7 443.1,207.7 443.1,202.2 401.4,202.2 
							401.4,207.7 385.5,207.7 385.5,217.5 368.8,217.5 368.8,231.7 360.8,231.7 360.8,462.1 483.8,462.1 483.8,231.7 						"/>
						<g>
							<rect x="373.3" y="248.6" class="st9" width="10.2" height="76"/>
							<rect x="395" y="248.6" class="st9" width="10.2" height="76"/>
							<rect x="417.2" y="248.6" class="st9" width="10.2" height="76"/>
							<rect x="439.3" y="248.6" class="st9" width="10.2" height="76"/>
							<rect x="461.1" y="248.6" class="st9" width="10.2" height="76"/>
						</g>
					</g>
					<path class="st10" d="M94.5,97v380.1h697.1V97H94.5z M566.4,112v350.1H319.8V112H566.4z M109.5,112h199.2v350.1H109.5V112z
						 M776.7,462.1H577.4V112h199.2V462.1z"/>
					<g>
						<defs>
							<rect id="SVGID_4_" x="94.5" y="97" width="697.1" height="380.1"/>
						</defs>
						<clipPath id="SVGID_5_">
							<use xlink:href="#SVGID_4_"  style="overflow:visible;"/>
						</clipPath>
						<g class="st11">
							<g class="st12">
								
									<rect x="8.1" y="151.7" transform="matrix(0.9292 -0.3695 0.3695 0.9292 -43.4628 177.6448)" class="st13" width="867.7" height="101.1"/>
							</g>
							<g class="st12">
								
									<rect x="2.8" y="326.1" transform="matrix(0.9292 -0.3695 0.3695 0.9292 -101.698 186.7696)" class="st13" width="867.7" height="65.6"/>
							</g>
							<g class="st12">
								
									<rect x="-5.5" y="451.8" transform="matrix(0.9292 -0.3695 0.3695 0.9292 -144.6797 191.8229)" class="st13" width="867.7" height="43.5"/>
							</g>
						</g>
					</g>
				</g>
			</g>
			<g>
				<g>
					<rect x="834.6" y="775.8" class="st14" width="166.8" height="92.7"/>
					<rect x="881.8" y="817.9" class="st13" width="72.5" height="22.2"/>
					<rect x="828.3" y="760.6" class="st15" width="179.9" height="29.2"/>
					<polygon class="st16" points="834.6,789.8 1001.4,868.4 1001.4,789.8 					"/>
					<rect x="881.8" y="789.8" class="st17" width="72.5" height="6.2"/>
				</g>
				<g>
					<rect x="834.6" y="667.9" class="st14" width="166.8" height="92.7"/>
					<rect x="881.8" y="710" class="st13" width="72.5" height="22.2"/>
					<rect x="828.3" y="652.7" class="st15" width="179.9" height="29.2"/>
					<polygon class="st16" points="834.6,681.9 1001.4,760.6 1001.4,681.9 					"/>
					<rect x="881.8" y="681.9" class="st17" width="72.5" height="6.2"/>
				</g>
			</g>
			<g>
				<g>
					<g>
						<rect x="1050" y="160" class="st18" width="264.4" height="340.9"/>
						<polygon class="st19" points="1314.4,160 1050,160 1314.4,229.5 						"/>
						<polygon class="st19" points="1314.4,245.5 1050,245.5 1314.4,315 						"/>
						<polygon class="st19" points="1314.4,338.8 1050,338.8 1314.4,408.3 						"/>
						<polygon class="st19" points="1314.4,428.7 1050,428.7 1314.4,498.2 						"/>
						<path class="st20" d="M1029.5,139.1V724h305.4V139.1H1029.5z M1314.4,160v69.5H1050V160H1314.4z M1050,322.3v-76.7h264.4v76.7
							H1050z M1314.4,338.5v73.6H1050v-73.6H1314.4z M1050,500.9v-72.6h264.4v72.6H1050z"/>
						<g>
							<g>
								<rect x="1050" y="524.5" class="st21" width="264.4" height="84.4"/>
								<path class="st22" d="M1207.4,572.8H1157c-3.3,0-6.1-2.7-6.1-6.1l0,0c0-3.3,2.7-6.1,6.1-6.1h50.4c3.3,0,6.1,2.7,6.1,6.1l0,0
									C1213.4,570.1,1210.7,572.8,1207.4,572.8z"/>
							</g>
							<g>
								<rect x="1050" y="629.8" class="st21" width="264.4" height="73.7"/>
								<path class="st22" d="M1207.4,674.1H1157c-3.3,0-6.1-2.7-6.1-6.1l0,0c0-3.3,2.7-6.1,6.1-6.1h50.4c3.3,0,6.1,2.7,6.1,6.1l0,0
									C1213.4,671.4,1210.7,674.1,1207.4,674.1z"/>
							</g>
						</g>
						<g>
							<path class="st23" d="M1060.7,173.6l-8.8,1.7c-1.3,0.2-2.1,1.5-1.8,2.7l9.7,49.7c0.2,1.3,1.5,2.1,2.7,1.8l8.8-1.7
								c1.3-0.2,2.1-1.5,1.8-2.7l-9.7-49.7C1063.2,174.2,1062,173.3,1060.7,173.6z"/>
							<g>
								<g>
									
										<rect x="1051" y="181.4" transform="matrix(0.9815 -0.1916 0.1916 0.9815 -15.3122 206.0037)" class="st24" width="13.7" height="1.6"/>
									
										<rect x="1051.8" y="185.1" transform="matrix(0.9815 -0.1916 0.1916 0.9815 -16.09 206.2273)" class="st24" width="13.7" height="2.4"/>
								</g>
								<g>
									
										<rect x="1058.5" y="220.1" transform="matrix(0.9815 -0.1916 0.1916 0.9815 -22.5938 208.1696)" class="st24" width="13.7" height="1.6"/>
									
										<rect x="1057.6" y="215.1" transform="matrix(0.9815 -0.1916 0.1916 0.9815 -21.7267 207.9117)" class="st24" width="13.7" height="2.4"/>
								</g>
							</g>
						</g>
						<g>
							<path class="st23" d="M1074.5,173.5l-8.8,2c-1.3,0.3-2,1.5-1.8,2.8l11,49.4c0.3,1.3,1.5,2,2.8,1.8l8.8-2
								c1.3-0.3,2-1.5,1.8-2.8l-11-49.4C1077,174,1075.8,173.2,1074.5,173.5z"/>
							<g>
								<g>
									
										<rect x="1065" y="181.3" transform="matrix(0.976 -0.2176 0.2176 0.976 -13.9502 237.6385)" class="st24" width="13.7" height="1.6"/>
									
										<rect x="1065.9" y="185.1" transform="matrix(0.976 -0.2176 0.2176 0.976 -14.8237 237.9368)" class="st24" width="13.7" height="2.4"/>
								</g>
								<g>
									
										<rect x="1073.6" y="219.9" transform="matrix(0.976 -0.2176 0.2176 0.976 -22.1295 240.4256)" class="st24" width="13.7" height="1.6"/>
									
										<rect x="1072.6" y="214.9" transform="matrix(0.976 -0.2176 0.2176 0.976 -21.1555 240.1009)" class="st24" width="13.7" height="2.4"/>
								</g>
							</g>
						</g>
						<g>
							<path class="st25" d="M1089.1,175l-8.3,3.5c-1.2,0.5-1.7,1.9-1.2,3l19.6,46.6c0.5,1.2,1.9,1.7,3,1.2l8.3-3.5
								c1.2-0.5,1.7-1.9,1.2-3l-19.6-46.6C1091.7,175,1090.3,174.5,1089.1,175z"/>
							<g>
								<g>
									<g>
										
											<rect x="1081.2" y="183.2" transform="matrix(0.9218 -0.3876 0.3876 0.9218 13.7345 436.101)" class="st26" width="13.7" height="1.6"/>
										
											<rect x="1082.8" y="186.7" transform="matrix(0.9218 -0.3876 0.3876 0.9218 12.3576 437.0454)" class="st26" width="13.7" height="2.4"/>
									</g>
									<g>
										
											<rect x="1096.5" y="219.6" transform="matrix(0.9218 -0.3876 0.3876 0.9218 0.8287 444.8863)" class="st26" width="13.7" height="1.6"/>
										
											<rect x="1094.7" y="214.9" transform="matrix(0.9218 -0.3876 0.3876 0.9218 2.3657 443.8414)" class="st26" width="13.7" height="2.4"/>
									</g>
								</g>
							</g>
							<path class="st13" d="M1101.1,208.7l-7.3-16.1c-0.2-0.4-0.6-0.5-1-0.4l-2.8,1.3c-0.4,0.2-0.5,0.6-0.4,1l7.3,16.1
								c0.2,0.4,0.6,0.5,1,0.4l2.8-1.3C1101.1,209.5,1101.3,209,1101.1,208.7z"/>
						</g>
						<g>
							<path class="st25" d="M1104.1,175l-8.3,3.5c-1.2,0.5-1.7,1.9-1.2,3l19.6,46.6c0.5,1.2,1.9,1.7,3,1.2l8.3-3.5
								c1.2-0.5,1.7-1.9,1.2-3l-19.6-46.6C1106.7,175,1105.3,174.5,1104.1,175z"/>
							<g>
								<g>
									<g>
										
											<rect x="1096.2" y="183.2" transform="matrix(0.9218 -0.3876 0.3876 0.9218 14.9039 441.8994)" class="st26" width="13.7" height="1.6"/>
										
											<rect x="1097.8" y="186.7" transform="matrix(0.9218 -0.3876 0.3876 0.9218 13.5271 442.8439)" class="st26" width="13.7" height="2.4"/>
									</g>
									<g>
										
											<rect x="1111.5" y="219.6" transform="matrix(0.9218 -0.3876 0.3876 0.9218 1.9982 450.6848)" class="st26" width="13.7" height="1.6"/>
										
											<rect x="1109.7" y="214.9" transform="matrix(0.9218 -0.3876 0.3876 0.9218 3.5352 449.6399)" class="st26" width="13.7" height="2.4"/>
									</g>
								</g>
							</g>
							<path class="st13" d="M1116.1,208.7l-7.3-16.1c-0.2-0.4-0.6-0.5-1-0.4l-2.8,1.3c-0.4,0.2-0.5,0.6-0.4,1l7.3,16.1
								c0.2,0.4,0.6,0.5,1,0.4l2.8-1.3C1116.1,209.5,1116.3,209,1116.1,208.7z"/>
						</g>
						<g>
							<path class="st25" d="M1304.6,175l8.3,3.5c1.2,0.5,1.7,1.9,1.2,3l-19.6,46.6c-0.5,1.2-1.9,1.7-3,1.2l-8.3-3.5
								c-1.2-0.5-1.7-1.9-1.2-3l19.6-46.6C1302.1,175,1303.4,174.5,1304.6,175z"/>
							<g>
								<g>
									<g>
										
											<rect x="1304.9" y="177.2" transform="matrix(0.3876 -0.9218 0.9218 0.3876 630.0178 1316.342)" class="st26" width="1.6" height="13.7"/>
										
											<rect x="1302.9" y="181.1" transform="matrix(0.3876 -0.9218 0.9218 0.3876 625.4303 1317.213)" class="st26" width="2.4" height="13.7"/>
									</g>
									<g>
										
											<rect x="1289.6" y="213.6" transform="matrix(0.3876 -0.9218 0.9218 0.3876 587.0996 1324.5197)" class="st26" width="1.6" height="13.7"/>
										
											<rect x="1291.1" y="209.2" transform="matrix(0.3876 -0.9218 0.9218 0.3876 592.2095 1323.5457)" class="st26" width="2.4" height="13.7"/>
									</g>
								</g>
							</g>
							<path class="st13" d="M1292.6,208.7l7.3-16.1c0.2-0.4,0.6-0.5,1-0.4l2.8,1.3c0.4,0.2,0.5,0.6,0.4,1l-7.3,16.1
								c-0.2,0.4-0.6,0.5-1,0.4l-2.8-1.3C1292.6,209.5,1292.5,209,1292.6,208.7z"/>
						</g>
						<g>
							<path class="st25" d="M1288.6,175l8.3,3.5c1.2,0.5,1.7,1.9,1.2,3l-19.6,46.6c-0.5,1.2-1.9,1.7-3,1.2l-8.3-3.5
								c-1.2-0.5-1.7-1.9-1.2-3l19.6-46.6C1286.1,175,1287.4,174.5,1288.6,175z"/>
							<g>
								<g>
									<g>
										
											<rect x="1288.9" y="177.2" transform="matrix(0.3876 -0.9218 0.9218 0.3876 620.2136 1301.5841)" class="st26" width="1.6" height="13.7"/>
										
											<rect x="1286.9" y="181.1" transform="matrix(0.3876 -0.9218 0.9218 0.3876 615.6262 1302.4551)" class="st26" width="2.4" height="13.7"/>
									</g>
									<g>
										
											<rect x="1273.6" y="213.6" transform="matrix(0.3876 -0.9218 0.9218 0.3876 577.2954 1309.7617)" class="st26" width="1.6" height="13.7"/>
										
											<rect x="1275" y="209.2" transform="matrix(0.3876 -0.9218 0.9218 0.3876 582.4053 1308.7877)" class="st26" width="2.4" height="13.7"/>
									</g>
								</g>
							</g>
							<path class="st13" d="M1276.6,208.7l7.3-16.1c0.2-0.4,0.6-0.5,1-0.4l2.8,1.3c0.4,0.2,0.5,0.6,0.4,1l-7.3,16.1
								c-0.2,0.4-0.6,0.5-1,0.4l-2.8-1.3C1276.6,209.5,1276.5,209,1276.6,208.7z"/>
						</g>
						<g>
							<path class="st25" d="M1272.3,175l8.3,3.5c1.2,0.5,1.7,1.9,1.2,3l-19.6,46.6c-0.5,1.2-1.9,1.7-3,1.2l-8.3-3.5
								c-1.2-0.5-1.7-1.9-1.2-3l19.6-46.6C1269.8,175,1271.2,174.5,1272.3,175z"/>
							<g>
								<g>
									<g>
										
											<rect x="1272.6" y="177.2" transform="matrix(0.3876 -0.9218 0.9218 0.3876 610.2432 1286.5732)" class="st26" width="1.6" height="13.7"/>
										
											<rect x="1270.6" y="181.1" transform="matrix(0.3876 -0.9218 0.9218 0.3876 605.6527 1287.4424)" class="st26" width="2.4" height="13.7"/>
									</g>
									<g>
										
											<rect x="1257.3" y="213.6" transform="matrix(0.3876 -0.9218 0.9218 0.3876 567.319 1294.7471)" class="st26" width="1.6" height="13.7"/>
										
											<rect x="1258.8" y="209.2" transform="matrix(0.3876 -0.9218 0.9218 0.3876 572.4288 1293.7731)" class="st26" width="2.4" height="13.7"/>
									</g>
								</g>
							</g>
							<path class="st13" d="M1260.3,208.7l7.3-16.1c0.2-0.4,0.6-0.5,1-0.4l2.8,1.3c0.4,0.2,0.5,0.6,0.4,1l-7.3,16.1
								c-0.2,0.4-0.6,0.5-1,0.4l-2.8-1.3C1260.3,209.5,1260.2,209,1260.3,208.7z"/>
						</g>
						<g>
							<g>
								<rect x="1074.1" y="275.8" class="st13" width="80.7" height="15.4"/>
								<g>
									<g>
										<rect x="1074.1" y="277.1" class="st27" width="80.7" height="1.1"/>
										<rect x="1074.1" y="279.7" class="st27" width="80.7" height="1.1"/>
									</g>
									<g>
										<rect x="1074.1" y="282.8" class="st27" width="80.7" height="1.1"/>
										<rect x="1074.1" y="285.4" class="st27" width="80.7" height="1.1"/>
										<rect x="1074.1" y="288.4" class="st27" width="80.7" height="1.1"/>
									</g>
								</g>
							</g>
							<g>
								<g>
									<rect x="1082.4" y="291.2" class="st13" width="80.7" height="15.4"/>
									<g>
										<g>
											<rect x="1082.4" y="292.5" class="st27" width="80.7" height="1.1"/>
											<rect x="1082.4" y="295.1" class="st27" width="80.7" height="1.1"/>
										</g>
										<g>
											<rect x="1082.4" y="298.2" class="st27" width="80.7" height="1.1"/>
											<rect x="1082.4" y="300.8" class="st27" width="80.7" height="1.1"/>
											<rect x="1082.4" y="303.8" class="st27" width="80.7" height="1.1"/>
										</g>
									</g>
								</g>
								<polygon class="st16" points="1082.4,291.2 1163.2,306.6 1163.2,291.2 								"/>
							</g>
							<g>
								<g>
									<rect x="1072.5" y="306.6" class="st13" width="80.7" height="15.4"/>
									<g>
										<g>
											<rect x="1072.5" y="307.9" class="st27" width="80.7" height="1.1"/>
											<rect x="1072.5" y="310.5" class="st27" width="80.7" height="1.1"/>
										</g>
										<g>
											<rect x="1072.5" y="313.6" class="st27" width="80.7" height="1.1"/>
											<rect x="1072.5" y="316.2" class="st27" width="80.7" height="1.1"/>
											<rect x="1072.5" y="319.2" class="st27" width="80.7" height="1.1"/>
										</g>
									</g>
								</g>
								<polygon class="st16" points="1072.5,306.4 1153.2,321.8 1153.2,306.4 								"/>
							</g>
						</g>
						<g>
							<g>
								<rect x="1223" y="366" class="st13" width="80.7" height="15.4"/>
								<g>
									<g>
										<rect x="1223" y="367.3" class="st27" width="80.7" height="1.1"/>
										<rect x="1223" y="369.9" class="st27" width="80.7" height="1.1"/>
									</g>
									<g>
										<rect x="1223" y="373" class="st27" width="80.7" height="1.1"/>
										<rect x="1223" y="375.6" class="st27" width="80.7" height="1.1"/>
										<rect x="1223" y="378.6" class="st27" width="80.7" height="1.1"/>
									</g>
								</g>
							</g>
							<g>
								<g>
									<rect x="1231.4" y="381.4" class="st13" width="80.7" height="15.4"/>
									<g>
										<g>
											<rect x="1231.4" y="382.6" class="st27" width="80.7" height="1.1"/>
											<rect x="1231.4" y="385.3" class="st27" width="80.7" height="1.1"/>
										</g>
										<g>
											<rect x="1231.4" y="388.4" class="st27" width="80.7" height="1.1"/>
											<rect x="1231.4" y="391" class="st27" width="80.7" height="1.1"/>
											<rect x="1231.4" y="394" class="st27" width="80.7" height="1.1"/>
										</g>
									</g>
								</g>
								<polygon class="st16" points="1231.4,381.4 1312.1,396.8 1312.1,381.4 								"/>
							</g>
							<g>
								<g>
									<rect x="1221.4" y="396.8" class="st13" width="80.7" height="15.4"/>
									<g>
										<g>
											<rect x="1221.4" y="398" class="st27" width="80.7" height="1.1"/>
											<rect x="1221.4" y="400.7" class="st27" width="80.7" height="1.1"/>
										</g>
										<g>
											<rect x="1221.4" y="403.8" class="st27" width="80.7" height="1.1"/>
											<rect x="1221.4" y="406.4" class="st27" width="80.7" height="1.1"/>
											<rect x="1221.4" y="409.4" class="st27" width="80.7" height="1.1"/>
										</g>
									</g>
								</g>
								<polygon class="st16" points="1221.4,396.6 1302.2,412 1302.2,396.6 								"/>
							</g>
						</g>
						<g>
							<g>
								<path class="st23" d="M1214.1,258.7l-10.8-3.6c-1.7-0.6-3.6,0.3-4.2,2.1l-19.2,57.1c-0.6,1.7,0.3,3.6,2.1,4.2l10.8,3.6
									c1.7,0.6,3.6-0.3,4.2-2.1l19.2-57.1C1216.8,261.2,1215.9,259.3,1214.1,258.7z"/>
								<path class="st13" d="M1211,262.3l-7.3-2.5c-1.3-0.4-2.7,0.3-3.2,1.6l-8.7,25.8c-0.4,1.3,0.3,2.7,1.6,3.2l7.3,2.5
									c1.3,0.4,2.7-0.3,3.2-1.6l8.7-25.8C1213,264.1,1212.3,262.7,1211,262.3z"/>
								
									<ellipse transform="matrix(0.3192 -0.9477 0.9477 0.3192 514.7251 1340.2366)" class="st28" cx="1190.2" cy="311.9" rx="3.1" ry="3.1"/>
							</g>
							<g>
								<path class="st24" d="M1250.6,255.7l-11.3-1.2c-1.8-0.2-3.4,1.1-3.6,3l-6.1,59.9c-0.2,1.8,1.1,3.4,3,3.6l11.3,1.2
									c1.8,0.2,3.4-1.1,3.6-3l6.1-59.9C1253.8,257.5,1252.5,255.9,1250.6,255.7z"/>
								<path class="st13" d="M1248.4,259.9l-7.7-0.8c-1.4-0.1-2.6,0.9-2.8,2.3l-2.8,27.1c-0.1,1.4,0.9,2.6,2.3,2.8l7.7,0.8
									c1.4,0.1,2.6-0.9,2.8-2.3l2.8-27.1C1250.7,261.2,1249.7,260,1248.4,259.9z"/>
								
									<ellipse transform="matrix(0.1015 -0.9948 0.9948 0.1015 802.1246 1513.775)" class="st29" cx="1239.1" cy="312.8" rx="3.1" ry="3.1"/>
							</g>
							<g>
								<path class="st25" d="M1232.5,256.3l-11.2-1.9c-1.8-0.3-3.5,0.9-3.8,2.7l-10,59.4c-0.3,1.8,0.9,3.5,2.7,3.8l11.2,1.9
									c1.8,0.3,3.5-0.9,3.8-2.7l10-59.4C1235.6,258.3,1234.4,256.6,1232.5,256.3z"/>
								<path class="st13" d="M1230,260.3l-7.6-1.3c-1.4-0.2-2.7,0.7-2.9,2.1l-4.5,26.9c-0.2,1.4,0.7,2.7,2.1,2.9l7.6,1.3
									c1.4,0.2,2.7-0.7,2.9-2.1l4.5-26.9C1232.3,261.8,1231.4,260.5,1230,260.3z"/>
								
									<ellipse transform="matrix(0.1657 -0.9862 0.9862 0.1657 707.4053 1461.2103)" class="st26" cx="1217.3" cy="312.5" rx="3.1" ry="3.1"/>
							</g>
							<g>
								<path class="st23" d="M1268.4,255.1H1257c-1.8,0-3.3,1.5-3.3,3.3v60.2c0,1.8,1.5,3.3,3.3,3.3h11.4c1.8,0,3.3-1.5,3.3-3.3
									v-60.2C1271.8,256.6,1270.3,255.1,1268.4,255.1z"/>
								<path class="st13" d="M1266.6,259.5h-7.7c-1.4,0-2.5,1.1-2.5,2.5v27.2c0,1.4,1.1,2.5,2.5,2.5h7.7c1.4,0,2.5-1.1,2.5-2.5V262
									C1269.1,260.6,1268,259.5,1266.6,259.5z"/>
								<circle class="st28" cx="1262.7" cy="313.1" r="3.1"/>
							</g>
							<g>
								<path class="st24" d="M1304.5,255.1h-11.4c-1.8,0-3.3,1.5-3.3,3.3v60.2c0,1.8,1.5,3.3,3.3,3.3h11.4c1.8,0,3.3-1.5,3.3-3.3
									v-60.2C1307.8,256.6,1306.3,255.1,1304.5,255.1z"/>
								<path class="st13" d="M1302.7,259.5h-7.7c-1.4,0-2.5,1.1-2.5,2.5v27.2c0,1.4,1.1,2.5,2.5,2.5h7.7c1.4,0,2.5-1.1,2.5-2.5V262
									C1305.2,260.6,1304,259.5,1302.7,259.5z"/>
								<circle class="st29" cx="1298.8" cy="313.1" r="3.1"/>
							</g>
							<g>
								<path class="st25" d="M1286.5,255.1h-11.4c-1.8,0-3.3,1.5-3.3,3.3v60.2c0,1.8,1.5,3.3,3.3,3.3h11.4c1.8,0,3.3-1.5,3.3-3.3
									v-60.2C1289.8,256.6,1288.3,255.1,1286.5,255.1z"/>
								<path class="st13" d="M1284.6,259.5h-7.7c-1.4,0-2.5,1.1-2.5,2.5v27.2c0,1.4,1.1,2.5,2.5,2.5h7.7c1.4,0,2.5-1.1,2.5-2.5V262
									C1287.1,260.6,1286,259.5,1284.6,259.5z"/>
								<circle class="st26" cx="1280.8" cy="313.1" r="3.1"/>
							</g>
						</g>
						<g>
							<g>
								<path class="st23" d="M1214.1,437.1l-10.8-3.6c-1.7-0.6-3.6,0.3-4.2,2.1l-19.2,57.1c-0.6,1.7,0.3,3.6,2.1,4.2l10.8,3.6
									c1.7,0.6,3.6-0.3,4.2-2.1l19.2-57.1C1216.8,439.5,1215.9,437.7,1214.1,437.1z"/>
								<path class="st13" d="M1211,440.6l-7.3-2.5c-1.3-0.4-2.7,0.3-3.2,1.6l-8.7,25.8c-0.4,1.3,0.3,2.7,1.6,3.2l7.3,2.5
									c1.3,0.4,2.7-0.3,3.2-1.6l8.7-25.8C1213,442.5,1212.3,441.1,1211,440.6z"/>
								
									<ellipse transform="matrix(0.3192 -0.9477 0.9477 0.3192 345.686 1461.6663)" class="st28" cx="1190.2" cy="490.2" rx="3.1" ry="3.1"/>
							</g>
							<g>
								<path class="st24" d="M1250.6,434.3l-11.3-1.2c-1.8-0.2-3.4,1.1-3.6,3l-6.1,59.9c-0.2,1.8,1.1,3.4,3,3.6l11.3,1.2
									c1.8,0.2,3.4-1.1,3.6-3l6.1-59.9C1253.8,436.1,1252.5,434.4,1250.6,434.3z"/>
								<path class="st13" d="M1248.4,438.4l-7.7-0.8c-1.4-0.1-2.6,0.9-2.8,2.3l-2.8,27.1c-0.1,1.4,0.9,2.6,2.3,2.8l7.7,0.8
									c1.4,0.1,2.6-0.9,2.8-2.3l2.8-27.1C1250.7,439.8,1249.7,438.6,1248.4,438.4z"/>
								
									<ellipse transform="matrix(0.1015 -0.9948 0.9948 0.1015 624.515 1674.2153)" class="st29" cx="1239.1" cy="491.4" rx="3.1" ry="3.1"/>
							</g>
							<g>
								<path class="st25" d="M1232.5,434.9l-11.2-1.9c-1.8-0.3-3.5,0.9-3.8,2.7l-10,59.4c-0.3,1.8,0.9,3.5,2.7,3.8l11.2,1.9
									c1.8,0.3,3.5-0.9,3.8-2.7l10-59.4C1235.6,436.9,1234.4,435.2,1232.5,434.9z"/>
								<path class="st13" d="M1230,438.9l-7.6-1.3c-1.4-0.2-2.7,0.7-2.9,2.1l-4.5,26.9c-0.2,1.4,0.7,2.7,2.1,2.9l7.6,1.3
									c1.4,0.2,2.7-0.7,2.9-2.1l4.5-26.9C1232.3,440.4,1231.4,439.1,1230,438.9z"/>
								
									<ellipse transform="matrix(0.1657 -0.9862 0.9862 0.1657 531.2192 1610.2626)" class="st26" cx="1217.3" cy="491.2" rx="3.1" ry="3.1"/>
							</g>
							<g>
								<path class="st23" d="M1268.4,433.9H1257c-1.8,0-3.3,1.5-3.3,3.3v60.2c0,1.8,1.5,3.3,3.3,3.3h11.4c1.8,0,3.3-1.5,3.3-3.3
									v-60.2C1271.8,435.4,1270.3,433.9,1268.4,433.9z"/>
								<path class="st13" d="M1266.6,438.3h-7.7c-1.4,0-2.5,1.1-2.5,2.5v27.2c0,1.4,1.1,2.5,2.5,2.5h7.7c1.4,0,2.5-1.1,2.5-2.5
									v-27.2C1269.1,439.4,1268,438.3,1266.6,438.3z"/>
								<circle class="st28" cx="1262.7" cy="491.9" r="3.1"/>
							</g>
							<g>
								<path class="st24" d="M1304.5,433.9h-11.4c-1.8,0-3.3,1.5-3.3,3.3v60.2c0,1.8,1.5,3.3,3.3,3.3h11.4c1.8,0,3.3-1.5,3.3-3.3
									v-60.2C1307.8,435.4,1306.3,433.9,1304.5,433.9z"/>
								<path class="st13" d="M1302.7,438.3h-7.7c-1.4,0-2.5,1.1-2.5,2.5v27.2c0,1.4,1.1,2.5,2.5,2.5h7.7c1.4,0,2.5-1.1,2.5-2.5
									v-27.2C1305.2,439.4,1304,438.3,1302.7,438.3z"/>
								<circle class="st29" cx="1298.8" cy="491.9" r="3.1"/>
							</g>
							<g>
								<path class="st25" d="M1286.5,433.9h-11.4c-1.8,0-3.3,1.5-3.3,3.3v60.2c0,1.8,1.5,3.3,3.3,3.3h11.4c1.8,0,3.3-1.5,3.3-3.3
									v-60.2C1289.8,435.4,1288.3,433.9,1286.5,433.9z"/>
								<path class="st13" d="M1284.6,438.3h-7.7c-1.4,0-2.5,1.1-2.5,2.5v27.2c0,1.4,1.1,2.5,2.5,2.5h7.7c1.4,0,2.5-1.1,2.5-2.5
									v-27.2C1287.1,439.4,1286,438.3,1284.6,438.3z"/>
								<circle class="st26" cx="1280.8" cy="491.9" r="3.1"/>
							</g>
						</g>
						<g>
							<path class="st30" d="M1070.2,345.3h-11.4c-1.8,0-3.3,1.5-3.3,3.3v60.2c0,1.8,1.5,3.3,3.3,3.3h11.4c1.8,0,3.3-1.5,3.3-3.3
								v-60.2C1073.5,346.7,1072.1,345.3,1070.2,345.3z"/>
							<path class="st13" d="M1068.4,349.6h-7.7c-1.4,0-2.5,1.1-2.5,2.5v27.2c0,1.4,1.1,2.5,2.5,2.5h7.7c1.4,0,2.5-1.1,2.5-2.5
								v-27.2C1070.9,350.8,1069.8,349.6,1068.4,349.6z"/>
							<circle class="st31" cx="1064.5" cy="403.3" r="3.1"/>
						</g>
						<g>
							<path class="st32" d="M1106.3,345.3h-11.4c-1.8,0-3.3,1.5-3.3,3.3v60.2c0,1.8,1.5,3.3,3.3,3.3h11.4c1.8,0,3.3-1.5,3.3-3.3
								v-60.2C1109.6,346.7,1108.1,345.3,1106.3,345.3z"/>
							<path class="st13" d="M1104.4,349.6h-7.7c-1.4,0-2.5,1.1-2.5,2.5v27.2c0,1.4,1.1,2.5,2.5,2.5h7.7c1.4,0,2.5-1.1,2.5-2.5
								v-27.2C1107,350.8,1105.8,349.6,1104.4,349.6z"/>
							<circle class="st33" cx="1100.6" cy="403.3" r="3.1"/>
						</g>
						<g>
							<path class="st34" d="M1088.3,345.3h-11.4c-1.8,0-3.3,1.5-3.3,3.3v60.2c0,1.8,1.5,3.3,3.3,3.3h11.4c1.8,0,3.3-1.5,3.3-3.3
								v-60.2C1091.6,346.7,1090.1,345.3,1088.3,345.3z"/>
							<path class="st13" d="M1086.4,349.6h-7.7c-1.4,0-2.5,1.1-2.5,2.5v27.2c0,1.4,1.1,2.5,2.5,2.5h7.7c1.4,0,2.5-1.1,2.5-2.5
								v-27.2C1088.9,350.8,1087.8,349.6,1086.4,349.6z"/>
							<circle class="st35" cx="1082.6" cy="403.3" r="3.1"/>
						</g>
						<g>
							<g>
								<rect x="1070.9" y="439.7" class="st36" width="93.9" height="61"/>
								<path class="st37" d="M1135,448.1h-34.3c-2.1,0-3.8,1.7-3.8,3.8c0,2.1,1.7,3.8,3.8,3.8h34.3c2.1,0,3.8-1.7,3.8-3.8
									C1138.8,449.8,1137.1,448.1,1135,448.1z"/>
							</g>
							<rect x="1096.9" y="470.8" class="st13" width="42" height="15.5"/>
						</g>
						<g>
							<g>
								<rect x="1120.3" y="351.4" class="st36" width="93.9" height="61"/>
								<path class="st37" d="M1184.4,359.7h-34.3c-2.1,0-3.8,1.7-3.8,3.8c0,2.1,1.7,3.8,3.8,3.8h34.3c2.1,0,3.8-1.7,3.8-3.8
									C1188.2,361.4,1186.5,359.7,1184.4,359.7z"/>
							</g>
							<rect x="1146.3" y="382.4" class="st13" width="42" height="15.5"/>
						</g>
						<path class="st19" d="M1314.4,229.5V160V229.5z"/>
					</g>
					<g>
						<g>
							<rect x="1143.4" y="182.2" class="st13" width="80.7" height="15.4"/>
							<g>
								<g>
									<rect x="1143.4" y="183.5" class="st27" width="80.7" height="1.1"/>
									<rect x="1143.4" y="186.1" class="st27" width="80.7" height="1.1"/>
								</g>
								<g>
									<rect x="1143.4" y="189.2" class="st27" width="80.7" height="1.1"/>
									<rect x="1143.4" y="191.8" class="st27" width="80.7" height="1.1"/>
									<rect x="1143.4" y="194.8" class="st27" width="80.7" height="1.1"/>
								</g>
							</g>
						</g>
						<g>
							<g>
								<rect x="1151.7" y="197.6" class="st13" width="80.7" height="15.4"/>
								<g>
									<g>
										<rect x="1151.7" y="198.8" class="st27" width="80.7" height="1.1"/>
										<rect x="1151.7" y="201.5" class="st27" width="80.7" height="1.1"/>
									</g>
									<g>
										<rect x="1151.7" y="204.6" class="st27" width="80.7" height="1.1"/>
										<rect x="1151.7" y="207.2" class="st27" width="80.7" height="1.1"/>
										<rect x="1151.7" y="210.1" class="st27" width="80.7" height="1.1"/>
									</g>
								</g>
							</g>
							<polygon class="st16" points="1151.7,197.6 1232.4,213 1232.4,197.6 							"/>
						</g>
						<g>
							<g>
								<rect x="1141.8" y="213" class="st13" width="80.7" height="15.4"/>
								<g>
									<g>
										<rect x="1141.8" y="214.2" class="st27" width="80.7" height="1.1"/>
										<rect x="1141.8" y="216.9" class="st27" width="80.7" height="1.1"/>
									</g>
									<g>
										<rect x="1141.8" y="219.9" class="st27" width="80.7" height="1.1"/>
										<rect x="1141.8" y="222.6" class="st27" width="80.7" height="1.1"/>
										<rect x="1141.8" y="225.5" class="st27" width="80.7" height="1.1"/>
									</g>
								</g>
							</g>
							<polygon class="st16" points="1141.8,212.8 1222.5,228.2 1222.5,212.8 							"/>
						</g>
					</g>
				</g>
				<defs>
					<filter id="Adobe_OpacityMaskFilter_2_" filterUnits="userSpaceOnUse" x="1334.9" y="151.2" width="65.1" height="573.8">
						<feFlood  style="flood-color:white;flood-opacity:1" result="back"/>
						<feBlend  in="SourceGraphic" in2="back" mode="normal"/>
					</filter>
				</defs>
				<mask maskUnits="userSpaceOnUse" x="1334.9" y="151.2" width="65.1" height="573.8" id="SVGID_6_">
					<g class="st38">
						<defs>
							<filter id="Adobe_OpacityMaskFilter_3_" filterUnits="userSpaceOnUse" x="1334.9" y="151.2" width="65.1" height="573.8">
								<feFlood  style="flood-color:white;flood-opacity:1" result="back"/>
								<feBlend  in="SourceGraphic" in2="back" mode="normal"/>
							</filter>
						</defs>
						<mask maskUnits="userSpaceOnUse" x="1334.9" y="151.2" width="65.1" height="573.8" id="SVGID_6_">
							<g class="st39">
							</g>
						</mask>
						<linearGradient id="SVGID_7_" gradientUnits="userSpaceOnUse" x1="1225.8846" y1="432.8706" x2="1496.722" y2="445.8485">
							<stop  offset="0" style="stop-color:#FFFFFF"/>
							<stop  offset="0.1554" style="stop-color:#CBCBCB"/>
							<stop  offset="0.3877" style="stop-color:#848484"/>
							<stop  offset="0.5969" style="stop-color:#4B4B4B"/>
							<stop  offset="0.775" style="stop-color:#222222"/>
							<stop  offset="0.9151" style="stop-color:#090909"/>
							<stop  offset="1" style="stop-color:#000000"/>
						</linearGradient>
						<polygon class="st40" points="1334.9,151.2 1400,340.6 1400,725 1334.9,725 						"/>
					</g>
				</mask>
				<linearGradient id="SVGID_8_" gradientUnits="userSpaceOnUse" x1="1225.8846" y1="432.8706" x2="1496.722" y2="445.8485">
					<stop  offset="0" style="stop-color:#000000"/>
					<stop  offset="0.1554" style="stop-color:#343434"/>
					<stop  offset="0.3877" style="stop-color:#7B7B7B"/>
					<stop  offset="0.5969" style="stop-color:#B4B4B4"/>
					<stop  offset="0.775" style="stop-color:#DDDDDD"/>
					<stop  offset="0.9151" style="stop-color:#F6F6F6"/>
					<stop  offset="1" style="stop-color:#FFFFFF"/>
				</linearGradient>
				<polygon class="st41" points="1334.9,151.2 1400,340.6 1400,725 1334.9,725 				"/>
			</g>
			<g>
				<g>
					<g>
						<rect x="852.1" y="154.4" class="st10" width="107.5" height="131"/>
						<g>
							<path class="st42" d="M963.5,288.7H848.1V151.2h115.3V288.7z M856,282.2h99.6V157.7H856V282.2z"/>
						</g>
					</g>
					<g>
						<path class="st43" d="M892.1,205.8c-7.5,0-13.7-6.1-13.7-13.7c0-7.5,6.1-13.7,13.7-13.7c7.5,0,13.7,6.1,13.7,13.7
							C905.8,199.6,899.7,205.8,892.1,205.8z M892.1,180.4c-6.4,0-11.7,5.2-11.7,11.7c0,6.4,5.2,11.7,11.7,11.7
							c6.4,0,11.7-5.2,11.7-11.7C903.8,185.7,898.6,180.4,892.1,180.4z"/>
					</g>
					<g>
						<path class="st43" d="M912.4,267.6c-14.5,0-26.3-11.8-26.3-26.3c0-14.5,11.8-26.3,26.3-26.3c14.5,0,26.3,11.8,26.3,26.3
							C938.7,255.8,926.9,267.6,912.4,267.6z M912.4,218.8c-12.4,0-22.5,10.1-22.5,22.5c0,12.4,10.1,22.5,22.5,22.5
							c12.4,0,22.5-10.1,22.5-22.5C934.9,228.9,924.8,218.8,912.4,218.8z"/>
					</g>
					<polygon class="st16" points="856,157.7 955.6,282.2 955.6,157.7 					"/>
				</g>
				<defs>
					<filter id="Adobe_OpacityMaskFilter_4_" filterUnits="userSpaceOnUse" x="848.1" y="289" width="174.9" height="31.3">
						<feFlood  style="flood-color:white;flood-opacity:1" result="back"/>
						<feBlend  in="SourceGraphic" in2="back" mode="normal"/>
					</filter>
				</defs>
				<mask maskUnits="userSpaceOnUse" x="848.1" y="289" width="174.9" height="31.3" id="SVGID_9_">
					<g class="st44">
						<defs>
							<filter id="Adobe_OpacityMaskFilter_5_" filterUnits="userSpaceOnUse" x="848.1" y="289" width="174.9" height="31.3">
								<feFlood  style="flood-color:white;flood-opacity:1" result="back"/>
								<feBlend  in="SourceGraphic" in2="back" mode="normal"/>
							</filter>
						</defs>
						<mask maskUnits="userSpaceOnUse" x="848.1" y="289" width="174.9" height="31.3" id="SVGID_9_">
							<g class="st45">
							</g>
						</mask>
						<linearGradient id="SVGID_10_" gradientUnits="userSpaceOnUse" x1="883.156" y1="253.0287" x2="1007.1592" y2="375.0936">
							<stop  offset="0" style="stop-color:#FFFFFF"/>
							<stop  offset="0.1554" style="stop-color:#CBCBCB"/>
							<stop  offset="0.3877" style="stop-color:#848484"/>
							<stop  offset="0.5969" style="stop-color:#4B4B4B"/>
							<stop  offset="0.775" style="stop-color:#222222"/>
							<stop  offset="0.9151" style="stop-color:#090909"/>
							<stop  offset="1" style="stop-color:#000000"/>
						</linearGradient>
						<polygon class="st46" points="1023,320.3 907.7,320.3 848.1,289 963.5,289 						"/>
					</g>
				</mask>
				<linearGradient id="SVGID_11_" gradientUnits="userSpaceOnUse" x1="883.156" y1="253.0287" x2="1007.1592" y2="375.0936">
					<stop  offset="0" style="stop-color:#000000"/>
					<stop  offset="0.1554" style="stop-color:#343434"/>
					<stop  offset="0.3877" style="stop-color:#7B7B7B"/>
					<stop  offset="0.5969" style="stop-color:#B4B4B4"/>
					<stop  offset="0.775" style="stop-color:#DDDDDD"/>
					<stop  offset="0.9151" style="stop-color:#F6F6F6"/>
					<stop  offset="1" style="stop-color:#FFFFFF"/>
				</linearGradient>
				<polygon class="st47" points="1023,320.3 907.7,320.3 848.1,289 963.5,289 				"/>
			</g>
			<g>
				<g>
					<g>
						<rect x="859.4" y="323.1" class="st10" width="92.9" height="113.2"/>
						<g>
							<g>
								<rect x="873.2" y="341.4" class="st43" width="63.6" height="4.7"/>
								<rect x="873.2" y="351.9" class="st43" width="63.6" height="4.7"/>
							</g>
							<g>
								<rect x="873.2" y="361.8" class="st43" width="63.6" height="4.7"/>
								<rect x="873.2" y="372.3" class="st43" width="63.6" height="4.7"/>
							</g>
							<g>
								<rect x="876.6" y="382.2" class="st43" width="56.7" height="4.7"/>
								<rect x="876.6" y="392.7" class="st43" width="56.7" height="4.7"/>
							</g>
							<g>
								<rect x="876.6" y="402.6" class="st43" width="56.7" height="4.7"/>
								<rect x="876.6" y="413.1" class="st43" width="56.7" height="4.7"/>
							</g>
						</g>
						<g>
							<path class="st42" d="M955.6,439.1H856V320.3h99.6V439.1z M862.8,433.5h86.1V325.9h-86.1V433.5z"/>
						</g>
					</g>
					<polygon class="st16" points="862.8,325.9 948.9,433.5 948.9,325.9 					"/>
				</g>
				<defs>
					<filter id="Adobe_OpacityMaskFilter_6_" filterUnits="userSpaceOnUse" x="856" y="439" width="159.2" height="31.3">
						<feFlood  style="flood-color:white;flood-opacity:1" result="back"/>
						<feBlend  in="SourceGraphic" in2="back" mode="normal"/>
					</filter>
				</defs>
				<mask maskUnits="userSpaceOnUse" x="856" y="439" width="159.2" height="31.3" id="SVGID_12_">
					<g class="st48">
						<defs>
							<filter id="Adobe_OpacityMaskFilter_7_" filterUnits="userSpaceOnUse" x="856" y="439" width="159.2" height="31.3">
								<feFlood  style="flood-color:white;flood-opacity:1" result="back"/>
								<feBlend  in="SourceGraphic" in2="back" mode="normal"/>
							</filter>
						</defs>
						<mask maskUnits="userSpaceOnUse" x="856" y="439" width="159.2" height="31.3" id="SVGID_12_">
							<g class="st49">
							</g>
						</mask>
						<linearGradient id="SVGID_13_" gradientUnits="userSpaceOnUse" x1="860.8015" y1="425.5348" x2="1009.3318" y2="483.4506">
							<stop  offset="0" style="stop-color:#FFFFFF"/>
							<stop  offset="0.1554" style="stop-color:#CBCBCB"/>
							<stop  offset="0.3877" style="stop-color:#848484"/>
							<stop  offset="0.5969" style="stop-color:#4B4B4B"/>
							<stop  offset="0.775" style="stop-color:#222222"/>
							<stop  offset="0.9151" style="stop-color:#090909"/>
							<stop  offset="1" style="stop-color:#000000"/>
						</linearGradient>
						<polygon class="st50" points="1015.2,470.4 915.5,470.4 856,439 955.6,439 						"/>
					</g>
				</mask>
				<linearGradient id="SVGID_14_" gradientUnits="userSpaceOnUse" x1="860.8015" y1="425.5348" x2="1009.3318" y2="483.4506">
					<stop  offset="0" style="stop-color:#000000"/>
					<stop  offset="0.1554" style="stop-color:#343434"/>
					<stop  offset="0.3877" style="stop-color:#7B7B7B"/>
					<stop  offset="0.5969" style="stop-color:#B4B4B4"/>
					<stop  offset="0.775" style="stop-color:#DDDDDD"/>
					<stop  offset="0.9151" style="stop-color:#F6F6F6"/>
					<stop  offset="1" style="stop-color:#FFFFFF"/>
				</linearGradient>
				<polygon class="st51" points="1015.2,470.4 915.5,470.4 856,439 955.6,439 				"/>
			</g>
			<g>
				<g>
					<path class="st52" d="M606.1,629.4H441.3V437.7c0-18.5,15-33.5,33.5-33.5h97.8c18.5,0,33.5,15,33.5,33.5V629.4z"/>
					<path class="st53" d="M574.7,404.2h-34.2c17.4,0,31.5,15.7,31.5,35v190.1h34.2V439.2C606.1,419.9,592,404.2,574.7,404.2z"/>
				</g>
				<g>
					<g>
						<path class="st54" d="M350,530.4h22.3c5.5,0,9.9,4.4,9.9,9.9v4.2h-46.3C335.9,536.7,342.2,530.4,350,530.4z"/>
						<path class="st55" d="M337.1,538.8h22.3c1.2,0,2.1-0.9,2.1-2.1c0-2.3-0.7-4.5-1.8-6.4H350
							C344.2,530.4,339.3,533.9,337.1,538.8z"/>
					</g>
					<path class="st56" d="M394,528.5c-3.5-2.8-7.6-2-12.7-5.5c-0.8-0.5-3.2-1.6-4.1-1.6c-4.1,0.2-10.3,1.3-13.9,2.5
						c-6.7,2.2-19.1,4.3-18.8,8.4c0.2,3.9,9.1,0.7,12.4-0.4c5.1-1.7,16.4-2.9,20.5,0.6c2.8,2.4-10.4,1.7-13.3,4.3
						c-2.2,1.9-0.7,3.7,3.1,3.7c5.5,0,18.5,2.3,21.8-1.2c5-5.4,7.9-5.9,9.2-5.8C400.7,533.6,396.1,530.2,394,528.5z"/>
					<path class="st57" d="M546.9,360.9c0,9.9-2,19.8-4.6,29.4c-1,3.8-2.2,7.6-2,11.5c0.4,6.9,5.1,13.4,3.6,20.1
						c-1.1,4.7-5,8.4-6.1,13.1c-0.8,3.5,0.2,7.2,2,10.4c1.8,3.1,4.2,5.8,6.7,8.4c-7.9,6.3-18.1,9.8-28.2,9.6
						c-5.1-0.1-10.2-1.1-14.6-3.6c-6.4-3.5-11-9.9-13.3-16.9c-2.3-7-2.4-14.5-1.4-21.7c1-7.6,3.3-15.1,6.7-22
						c4-8.2,9.5-15.6,15-22.9c4.4-5.9,8.8-11.8,13.2-17.7c1.6-2.1,3.2-4.3,4.3-6.7c1.1-2.5,1.6-5.2,2-7.9c0.9-5.7,0.9-11.5,1.6-17.2
						C545.3,329.1,547,350.5,546.9,360.9z"/>
					<path class="st57" d="M444.2,360.9c0,9.9,2,19.8,4.6,29.4c1,3.8,2.2,7.6,2,11.5c-0.4,6.9-5.1,13.4-3.6,20.1
						c1.1,4.7,5,8.4,6.1,13.1c0.8,3.5-0.2,7.2-2,10.4c-1.8,3.1-4.2,5.8-6.7,8.4c7.9,6.3,18.1,9.8,28.2,9.6
						c5.1-0.1,10.2-1.1,14.6-3.6c6.4-3.5,11-9.9,13.3-16.9c2.3-7,2.4-14.5,1.4-21.7c-1-7.6-3.3-15.1-6.7-22c-4-8.2-9.5-15.6-15-22.9
						c-4.4-5.9-8.8-11.8-13.2-17.7c-1.6-2.1-3.2-4.3-4.3-6.7c-1.1-2.5-1.6-5.2-2-7.9c-0.9-5.7-0.9-11.5-1.6-17.2
						C445.8,329.1,444.1,350.5,444.2,360.9z"/>
					<path class="st58" d="M467.1,441.7l-4.6,0.8c-6.3,1.1-11.6,5.6-13.7,11.7l-21.5,62.3c-0.8,2.3-3,3.9-5.5,3.9h-32.6
						c-2.2,0-4,1.8-4,4v16.3c0,2.2,1.8,4,4,4h54.4c2.5,0,4.8-1.3,6.1-3.5l28.1-46.6l-4.1-47.8C473.4,443.4,470.4,441.1,467.1,441.7z
						"/>
					<path class="st56" d="M483.7,437.6v-33.4h28.7v33.4c0,4.2,3.4,7.6,7.6,7.7l2.4,0c10.4,0.1,18.7,8.5,18.7,18.9v37.5h-84.4
						l5.8-37.6c0-10.4,2.5-18.7,12.9-18.8l0.9,0C480.3,445.2,483.7,441.8,483.7,437.6z"/>
					<path class="st59" d="M483.7,437.2v-33h28.7v19.1C504.6,431.4,495,436.9,483.7,437.2z"/>
					<g>
						
							<ellipse transform="matrix(0.4232 -0.906 0.906 0.4232 -37.5418 706.4875)" class="st56" cx="536.1" cy="382.7" rx="17.3" ry="13.4"/>
						
							<ellipse transform="matrix(0.4232 -0.906 0.906 0.4232 -37.542 706.4872)" class="st60" cx="536.1" cy="382.7" rx="11" ry="8.5"/>
					</g>
					<path class="st56" d="M538.8,364.3c0-26.3-20.2-47.5-45.2-47.5c-25,0-45.2,21.3-45.2,47.5c0,26.3,8.6,66.9,41.2,66.9
						C520.9,431.2,538.8,390.6,538.8,364.3z"/>
					<path class="st61" d="M532.8,440.4l-20.4-2.8c0,0-3.5,8.6-14.3,8.6c-11.2,0-14.3-8.6-14.3-8.6l-14,2.5c-3.8,0.7-6.9,3.4-8.1,7
						l-9.7,29.1c-4.5,13.7-4.7,28.4-0.4,42.1l4.5,14.4c0.3,1.1,0.5,2.3,0.5,3.4v8.5h93.7l9.3-34.2l-19.1-63.3
						C539.5,443.5,536.4,440.9,532.8,440.4z"/>
					<g>
						<path class="st62" d="M474.2,537c-1.1,0.8-6.5,3.7-6.1,5.1c0.7,2.8,3.6,2.5,4.9,2.1c5.7-1.8,11.3-3,18.8-2.1
							c1.5,0.2-3.5-4.3-3.1-5.7C491.5,526,476.2,535.6,474.2,537z"/>
						<path class="st56" d="M480.8,523.9c-0.9-0.3-3.5-0.7-4.4-0.4c-3.9,1.4-7.7,3.2-10.7,4.7c-6.3,3.1-12.2,7-16,13
							c-0.6,1-1.1,2.4-0.2,3.2c0.3,0.3,0.8,0.4,1.2,0.4c3.5,0.3,6.4-2.5,9.3-4.5c7.2-5,17.3-5.5,25-1.2c2.5,1.4,7,4.3,9.8,3.6
							c2.7-0.7,7.3-14.1,4.7-15.1C495.2,525.9,486.7,525.9,480.8,523.9z"/>
					</g>
					<path class="st57" d="M445.6,342.1c-1.2,5.9-3.8,17.1,4,39.1c-0.1-4.4-1.5-16.8,7-30.4c3.8-5.9,6.4-12.5,2.8-18.5
						C453.1,322,446.5,337.4,445.6,342.1z"/>
					<g>
						<g>
							<g>
								<path class="st63" d="M493.9,390h9.8c5.2,0,9.5-4.3,9.5-9.5v-9.7c0-1.6-1.3-2.9-2.9-2.9h-23c-1.6,0-2.9,1.3-2.9,2.9v9.7
									C484.4,385.7,488.6,390,493.9,390z"/>
								<path class="st63" d="M457.4,390h7.3c5.2,0,9.5-4.3,9.5-9.5v-9.7c0-1.6-1.3-2.9-2.9-2.9h-20.5c-1.6,0-2.9,1.3-2.9,2.9v9.7
									C447.9,385.7,452.2,390,457.4,390z"/>
								<g>
									<g>
										<path class="st58" d="M483.2,377.6v-6c0-2.8,2-5,4.5-5h22.1c2.5,0,4.5,2.3,4.5,5v6c0,7.5-5.5,13.6-12.2,13.6h-6.7
											C488.7,391.2,483.2,385.1,483.2,377.6z M487.7,369.2c-1.2,0-2.2,1.1-2.2,2.4v6c0,6.1,4.4,11,9.9,11h6.7
											c5.4,0,9.9-4.9,9.9-11v-6c0-1.3-1-2.4-2.2-2.4H487.7z"/>
									</g>
									<g>
										<path class="st58" d="M446.8,377.6v-6c0-2.8,2-5,4.5-5h19.6c2.5,0,4.5,2.3,4.5,5v6c0,7.5-5.5,13.6-12.2,13.6H459
											C452.3,391.2,446.8,385.1,446.8,377.6z M451.3,369.2c-1.2,0-2.2,1.1-2.2,2.4v6c0,6.1,4.4,11,9.9,11h4.2
											c5.4,0,9.9-4.9,9.9-11v-6c0-1.3-1-2.4-2.2-2.4H451.3z"/>
									</g>
								</g>
							</g>
							
								<rect x="474.4" y="373" transform="matrix(-1 -1.224647e-016 1.224647e-016 -1 958.6194 749.7649)" class="st58" width="9.9" height="3.7"/>
						</g>
						
							<rect x="513.2" y="369.2" transform="matrix(-1 -1.224647e-016 1.224647e-016 -1 1047.9979 741.6306)" class="st58" width="21.7" height="3.3"/>
					</g>
					<path class="st57" d="M452.6,337.2c1.9,5.2-3.3,9.4,1.1,10.2c6,1,24.8-2.2,29.8,1.3c4.6,3.2,5.4,10,23,10.2
						c5.8,0.1,12.1,0.1,16.7,3.5c9,6.8,8.7,17.9,9.3,32.3c7.6-7.1,9.2-13.8,11.8-21.6c4.9-14.7,2.8-31.6-5.4-44.7
						c-8.3-13.1-21.5-20.1-36.8-22.8c-11.9-2.2-22.4,0.4-28.7,3C450.9,317.9,450.4,331.2,452.6,337.2z"/>
					<path class="st58" d="M543.6,442c9.4,1.4,17.1,8.1,19.6,17.3l19.9,71.2c2,7.1-3.3,14.1-10.7,14.1h-77.9c-1.9,0-3.4-1.5-3.4-3.4
						v-16.1c0-1.9,1.5-3.4,3.4-3.4h50.7c3.1,0,5.4-3,4.5-6l-21-75.8L543.6,442z"/>
				</g>
				<g>
					<g>
						<defs>
							<filter id="Adobe_OpacityMaskFilter_8_" filterUnits="userSpaceOnUse" x="149.6" y="354.5" width="226.7" height="193.7">
								<feFlood  style="flood-color:white;flood-opacity:1" result="back"/>
								<feBlend  in="SourceGraphic" in2="back" mode="normal"/>
							</filter>
						</defs>
						<mask maskUnits="userSpaceOnUse" x="149.6" y="354.5" width="226.7" height="193.7" id="SVGID_15_">
							<g class="st64">
								<defs>
									<filter id="Adobe_OpacityMaskFilter_9_" filterUnits="userSpaceOnUse" x="149.6" y="354.5" width="226.7" height="193.7">
										<feFlood  style="flood-color:white;flood-opacity:1" result="back"/>
										<feBlend  in="SourceGraphic" in2="back" mode="normal"/>
									</filter>
								</defs>
								<mask maskUnits="userSpaceOnUse" x="149.6" y="354.5" width="226.7" height="193.7" id="SVGID_15_">
									<g class="st65">
									</g>
								</mask>
								<linearGradient id="SVGID_16_" gradientUnits="userSpaceOnUse" x1="175.913" y1="366.9701" x2="264.8196" y2="515.5475">
									<stop  offset="1.081080e-002" style="stop-color:#FFFFFF"/>
									<stop  offset="1" style="stop-color:#000000"/>
								</linearGradient>
								<polygon class="st66" points="149.6,390.3 192.4,548.2 376.3,548.2 203,354.5 								"/>
							</g>
						</mask>
						<linearGradient id="SVGID_17_" gradientUnits="userSpaceOnUse" x1="175.913" y1="366.9701" x2="264.8196" y2="515.5475">
							<stop  offset="1.081080e-002" style="stop-color:#FFFFFF"/>
							<stop  offset="1" style="stop-color:#FFFFFF"/>
						</linearGradient>
						<polygon class="st67" points="149.6,390.3 192.4,548.2 376.3,548.2 203,354.5 						"/>
						<g>
							<g>
								<path class="st42" d="M126.4,383.4l-1.8-0.8l10.2-23.7c2.4-5.5,1.2-11.8-3.1-16.1c-4.2-4.2-4.2-11,0-15.1
									c2-2,4.7-3.1,7.6-3.1s5.5,1.1,7.6,3.1l7.1,7.1l-1.4,1.4l-7.1-7.1c-1.6-1.6-3.8-2.5-6.2-2.5s-4.5,0.9-6.2,2.5
									c-1.6,1.6-2.5,3.8-2.5,6.2s0.9,4.5,2.5,6.2c4.8,4.8,6.2,12,3.5,18.3L126.4,383.4z"/>
							</g>
							<g>
								<g>
									<g>
										<g>
											
												<rect x="102.4" y="433.1" transform="matrix(0.9091 -0.4166 0.4166 0.9091 -192.1867 87.5175)" class="st13" width="4" height="102"/>
										</g>
									</g>
									<g>
										<g>
											
												<rect x="111.2" y="433.1" transform="matrix(0.9091 -0.4166 0.4166 0.9091 -191.3913 91.1626)" class="st13" width="4" height="102"/>
										</g>
									</g>
								</g>
							</g>
							<g>
								<g>
									<g>
										<g>
											
												<rect x="67.9" y="389.2" transform="matrix(0.6345 -0.773 0.773 0.6345 -258.9239 234.8739)" class="st13" width="102" height="4"/>
										</g>
									</g>
									<g>
										<g>
											
												<rect x="71.7" y="397.1" transform="matrix(0.6345 -0.773 0.773 0.6345 -263.6006 240.7135)" class="st13" width="102" height="4"/>
										</g>
									</g>
								</g>
							</g>
							<path class="st42" d="M148.2,529.4h-37.5c-10.4,0-18.8,8.4-18.8,18.8l0,0h75v0C166.9,537.8,158.5,529.4,148.2,529.4z"/>
							<path class="st42" d="M128.2,520.6c-6.1,0-11.1,5-11.1,11.1v3.1h22.2v-3.1C139.3,525.5,134.3,520.6,128.2,520.6z"/>
							<circle class="st42" cx="87.2" cy="434.8" r="12"/>
							<circle class="st68" cx="87.2" cy="434.8" r="7.3"/>
							<g>
								
									<ellipse transform="matrix(0.8312 -0.556 0.556 0.8312 -173.4134 156.1538)" class="st13" cx="170.4" cy="363.7" rx="18.2" ry="18.2"/>
								<path class="st42" d="M186.5,338.7c-6.8-6.5-16.2-9-25-7.2l-0.4-0.6c-3.2-4.8-9.8-6.1-14.6-2.9c-4.8,3.2-6.1,9.8-2.9,14.6
									l0.4,0.6c-5,7.4-6.3,17.1-2.9,25.8l8.4,21.3l53.4-35.7L186.5,338.7z"/>
							</g>
						</g>
					</g>
					<g>
						<g>
							<g>
								<rect x="471" y="542.2" class="st13" width="10.5" height="3.6"/>
								<rect x="457.7" y="542.2" class="st13" width="10.5" height="3.6"/>
							</g>
							<g>
								<rect x="444.2" y="542.2" class="st13" width="10.5" height="3.6"/>
								<rect x="430.9" y="542.2" class="st13" width="10.5" height="3.6"/>
							</g>
							<g>
								<rect x="416" y="542.2" class="st13" width="10.5" height="3.6"/>
								<rect x="402.7" y="542.2" class="st13" width="10.5" height="3.6"/>
								<rect x="389.4" y="542.2" class="st13" width="10.5" height="3.6"/>
							</g>
							<rect x="366.6" y="543.3" class="st69" width="118.4" height="4.9"/>
						</g>
						<g>
							<path class="st69" d="M444.4,371.7H252.7c-8.1,0-14.7,6.6-14.7,14.7v116c0,8.1,6.6,14.7,14.7,14.7h191.8
								c8.1,0,14.7-6.6,14.7-14.7v-116C459.1,378.3,452.5,371.7,444.4,371.7z"/>
							<path class="st70" d="M336.5,457.8c-6.1,0-11.2,4.5-12,10.6l-6.2,48.7h59.9l-6.2-48.7c-0.8-6-5.9-10.6-12-10.6H336.5z"/>
							<path class="st13" d="M444.4,371.7H252.7c-8.1,0-14.7,6.6-14.7,14.7v6.7c0-8.1,6.6-14.7,14.7-14.7h191.8
								c8.1,0,14.7,6.6,14.7,14.7v-6.7C459.1,378.3,452.5,371.7,444.4,371.7z"/>
							<path class="st36" d="M367.1,469c-0.5-3.6-3.5-6.3-7.2-6.3h-23.5c-3.6,0-6.7,2.7-7.2,6.3l-10.1,79.2h58L367.1,469z"/>
							<path class="st71" d="M377.9,538.4H318c-5.4,0-9.8,4.4-9.8,9.8h79.4C387.6,542.8,383.3,538.4,377.9,538.4z"/>
							<circle class="st71" cx="348.5" cy="425.4" r="13.4"/>
							<circle class="st71" cx="348.5" cy="481" r="7.3"/>
						</g>
					</g>
					<g>
						<g>
							<rect x="205.9" y="483.1" class="st72" width="4" height="52.5"/>
							<polygon class="st73" points="207.9,473.8 205.9,483.1 209.9,483.1 							"/>
							<polygon class="st74" points="207.3,476.4 208.5,476.4 207.9,473.8 							"/>
						</g>
						<g>
							
								<rect x="212.1" y="485.1" transform="matrix(0.9903 0.1389 -0.1389 0.9903 73.7645 -24.7002)" class="st75" width="3.7" height="62.3"/>
							<path class="st28" d="M220,478.2l-1.5-0.2c-0.6-0.1-1.1,0.3-1.2,0.9l-1.5,10.8l3.6,0.5l1.5-10.8
								C221,478.9,220.6,478.3,220,478.2z"/>
						</g>
						<g>
							
								<rect x="198.4" y="481.5" transform="matrix(0.9945 -0.1046 0.1046 0.9945 -52.5515 23.7715)" class="st75" width="3.7" height="62.3"/>
							<path class="st28" d="M197,474.3l-1.5,0.2c-0.6,0.1-1,0.6-0.9,1.2l1.1,10.9l3.6-0.4l-1.1-10.9
								C198.1,474.7,197.6,474.3,197,474.3z"/>
						</g>
						<path class="st76" d="M221.6,503.6h-29.9c-1.4,0-2.5,1.2-2.3,2.6l3.6,39.9c0.1,1.2,1.1,2.1,2.3,2.1h22.8
							c1.2,0,2.2-0.9,2.3-2.1l3.6-39.9C224.1,504.8,223,503.6,221.6,503.6z"/>
						<path class="st77" d="M221.6,503.6h-6.4c1.4,0,2.5,1.2,2.3,2.6l-3.6,39.9c-0.1,1.2-1.1,2.1-2.3,2.1h6.4c1.2,0,2.2-0.9,2.3-2.1
							l3.6-39.9C224.1,504.8,223,503.6,221.6,503.6z"/>
					</g>
					<g>
						<g>
							<rect x="67.4" y="548.2" class="st20" width="733.7" height="33.4"/>
							<rect x="67.4" y="569.4" class="st78" width="733.7" height="12.3"/>
						</g>
						<rect x="94.2" y="581.1" class="st79" width="680" height="287.3"/>
						<g>
							<g>
								<g>
									<rect x="88.2" y="575.5" class="st78" width="24" height="292.9"/>
								</g>
								<g>
									<rect x="762.2" y="575.5" class="st78" width="24" height="292.9"/>
								</g>
							</g>
						</g>
						<polygon class="st42" points="112.2,581.6 762.2,868.4 762.2,581.6 						"/>
					</g>
					<g>
						<path class="st80" d="M528.2,480.3h-8.4c-0.7,0-1.3,0.6-1.3,1.3v1.6h11v-1.6C529.5,480.9,528.9,480.3,528.2,480.3z"/>
						<g>
							<path class="st81" d="M548,486.6l-1.4-3.4c-0.3-0.6-0.9-1-1.6-1h-28.9c-0.7,0-1.3,0.4-1.6,1l-1.4,3.4
								c-0.4,1.1,0.4,2.3,1.6,2.3h31.7C547.7,488.9,548.5,487.7,548,486.6z"/>
							<path class="st82" d="M546.1,490.1h-30.9c-2,0-3.6,1.7-3.5,3.7l2.6,51c0.1,1.9,1.7,3.4,3.5,3.4h25.8c1.9,0,3.4-1.5,3.5-3.4
								l2.6-51C549.8,491.8,548.1,490.1,546.1,490.1z"/>
							<polygon class="st80" points="513.8,536.4 547.5,536.4 549.3,500.7 512,500.7 							"/>
							<path class="st80" d="M553.9,491.5l-1.9-4.6c-0.3-0.8-1.2-1.4-2.1-1.4h-38.7c-0.9,0-1.7,0.6-2.1,1.4l-1.9,4.6
								c-0.6,1.5,0.5,3.1,2.1,3.1h42.4C553.4,494.6,554.5,493,553.9,491.5z"/>
							<circle class="st13" cx="530.6" cy="518.6" r="14.7"/>
						</g>
					</g>
					<g>
						<g>
							<g>
								<rect x="567.7" y="525.5" class="st13" width="115.8" height="22.1"/>
								<g>
									<g>
										<rect x="567.7" y="527.3" class="st27" width="115.8" height="1.6"/>
										<rect x="567.7" y="531.1" class="st27" width="115.8" height="1.6"/>
									</g>
									<g>
										<rect x="567.7" y="535.5" class="st27" width="115.8" height="1.6"/>
										<rect x="567.7" y="539.3" class="st27" width="115.8" height="1.6"/>
										<rect x="567.7" y="543.6" class="st27" width="115.8" height="1.6"/>
									</g>
								</g>
							</g>
							<polygon class="st16" points="567.7,531.1 683.5,539.3 683.5,525.5 							"/>
							<g>
								
									<rect x="564.6" y="506.2" transform="matrix(0.9988 -4.795459e-002 4.795459e-002 0.9988 -24.0892 30.4448)" class="st13" width="115.8" height="22.1"/>
								<g>
									<g>
										
											<rect x="564.2" y="508" transform="matrix(0.9988 -4.795463e-002 4.795463e-002 0.9988 -23.686 30.4157)" class="st27" width="115.8" height="1.6"/>
										
											<rect x="564.3" y="511.8" transform="matrix(0.9988 -4.795545e-002 4.795545e-002 0.9988 -23.8668 30.4293)" class="st27" width="115.8" height="1.6"/>
									</g>
									<g>
										
											<rect x="564.5" y="516.2" transform="matrix(0.9988 -4.795545e-002 4.795545e-002 0.9988 -24.0793 30.4446)" class="st27" width="115.8" height="1.6"/>
										
											<rect x="564.7" y="520" transform="matrix(0.9988 -4.795459e-002 4.795459e-002 0.9988 -24.2593 30.457)" class="st27" width="115.8" height="1.6"/>
										
											<rect x="564.9" y="524.2" transform="matrix(0.9988 -4.795545e-002 4.795545e-002 0.9988 -24.4627 30.4722)" class="st27" width="115.8" height="1.6"/>
									</g>
								</g>
							</g>
							<polygon class="st16" points="564.1,509 680.4,517.2 679.8,503.5 							"/>
							<g>
								
									<rect x="567.7" y="485" transform="matrix(0.9995 -3.135546e-002 3.135546e-002 0.9995 -15.2447 19.8584)" class="st13" width="115.8" height="22.1"/>
								<g>
									<g>
										
											<rect x="567.4" y="486.8" transform="matrix(0.9995 -3.135545e-002 3.135545e-002 0.9995 -14.9807 19.846)" class="st27" width="115.8" height="1.6"/>
										
											<rect x="567.5" y="490.5" transform="matrix(0.9995 -3.135545e-002 3.135545e-002 0.9995 -15.0988 19.8515)" class="st27" width="115.8" height="1.6"/>
									</g>
									<g>
										
											<rect x="567.6" y="495" transform="matrix(0.9995 -3.135631e-002 3.135631e-002 0.9995 -15.2384 19.8586)" class="st27" width="115.8" height="1.6"/>
										
											<rect x="567.8" y="498.7" transform="matrix(0.9995 -3.135632e-002 3.135632e-002 0.9995 -15.3565 19.8642)" class="st27" width="115.8" height="1.6"/>
										
											<rect x="567.9" y="503" transform="matrix(0.9995 -3.135548e-002 3.135548e-002 0.9995 -15.489 19.8699)" class="st27" width="115.8" height="1.6"/>
									</g>
								</g>
							</g>
						</g>
						<g>
							<path class="st23" d="M692.9,460.1l-13.4,5.9c-1.9,0.8-2.8,3.1-1.9,5L711,546c0.8,1.9,3.1,2.8,5,1.9l13.4-5.9
								c1.9-0.8,2.8-3.1,1.9-5L697.9,462C697.1,460.1,694.8,459.2,692.9,460.1z"/>
							<g>
								<g>
									
										<rect x="680.4" y="473.4" transform="matrix(0.9138 -0.4061 0.4061 0.9138 -133.2015 321.6633)" class="st24" width="22.2" height="2.6"/>
									
										<rect x="683.1" y="479" transform="matrix(0.9139 -0.4061 0.4061 0.9139 -135.498 323.3266)" class="st24" width="22.2" height="3.9"/>
								</g>
								<g>
									
										<rect x="706.4" y="531.9" transform="matrix(0.9138 -0.4061 0.4061 0.9138 -154.7077 337.2516)" class="st24" width="22.2" height="2.6"/>
									
										<rect x="703.3" y="524.3" transform="matrix(0.9139 -0.4061 0.4061 0.9139 -152.1465 335.3936)" class="st24" width="22.2" height="3.9"/>
								</g>
							</g>
						</g>
						<g>
							<path class="st25" d="M719.3,468.1l-11.4,9.1c-1.6,1.3-1.9,3.7-0.6,5.3l51,64.2c1.3,1.6,3.7,1.9,5.3,0.6l11.4-9.1
								c1.6-1.3,1.9-3.7,0.6-5.3l-51-64.2C723.3,467.1,720.9,466.8,719.3,468.1z"/>
							<g>
								<g>
									<g>
										
											<rect x="710.4" y="481.4" transform="matrix(0.7833 -0.6216 0.6216 0.7833 -143.7225 553.0896)" class="st26" width="22.2" height="2.6"/>
										
											<rect x="714.7" y="486.1" transform="matrix(0.7833 -0.6216 0.6216 0.7833 -146.1296 556.8904)" class="st26" width="22.2" height="3.9"/>
									</g>
									<g>
										
											<rect x="750.2" y="531.5" transform="matrix(0.7833 -0.6216 0.6216 0.7833 -166.2616 588.6777)" class="st26" width="22.2" height="2.6"/>
										
											<rect x="745.4" y="524.9" transform="matrix(0.7833 -0.6216 0.6216 0.7833 -163.578 584.4374)" class="st26" width="22.2" height="3.9"/>
									</g>
								</g>
							</g>
							<path class="st13" d="M752.7,515.5l-18.4-22c-0.4-0.5-1.2-0.6-1.7-0.1l-3.8,3.2c-0.5,0.4-0.6,1.2-0.1,1.7l18.4,22
								c0.4,0.5,1.2,0.6,1.7,0.1l3.8-3.2C753,516.7,753.1,516,752.7,515.5z"/>
						</g>
					</g>
				</g>
			</g>
		</g>
	</g>
</g>
<g id="Text">
</g>
</svg>
