<?xml version="1.0" encoding="iso-8859-1"?>
<!-- Uploaded to: SVG Repo, www.svgrepo.com, Generator: SVG Repo Mixer Tools -->
<svg fill="#000000" height="800px" width="800px" version="1.1" id="Layer_1" xmlns="http://www.w3.org/2000/svg" xmlns:xlink="http://www.w3.org/1999/xlink" 
	 viewBox="0 0 511.999 511.999" xml:space="preserve">
<g>
	<g>
		<g>
			<path d="M17.067,256c0-63.821,24.858-123.819,69.982-168.951c3.337-3.328,3.337-8.73,0-12.066c-3.328-3.337-8.73-3.337-12.066,0
				C26.633,123.332,0,187.622,0,256s26.633,132.668,74.982,181.018c1.664,1.664,3.849,2.5,6.033,2.5c2.185,0,4.369-0.836,6.033-2.5
				c3.337-3.337,3.337-8.738,0-12.066C41.924,379.818,17.067,319.82,17.067,256z"/>
			<path d="M437.017,74.983c-3.337-3.337-8.73-3.337-12.066,0c-3.336,3.336-3.336,8.73,0,12.066
				C470.083,132.182,494.932,192.18,494.932,256c0,63.812-24.849,123.819-69.982,168.951c-3.336,3.328-3.336,8.73,0,12.066
				c1.664,1.664,3.849,2.5,6.033,2.5c2.185,0,4.369-0.836,6.033-2.5c48.358-48.35,74.982-112.64,74.982-181.018
				S485.375,123.333,437.017,74.983z"/>
			<path d="M273.067,179.2H230.4v85.333h42.667c23.526,0,42.667-19.14,42.667-42.667C315.733,198.34,296.593,179.2,273.067,179.2z"
				/>
			<path d="M256,68.266C152.482,68.266,68.267,152.482,68.267,256S152.482,443.733,256,443.733S443.733,359.517,443.733,256
				S359.518,68.266,256,68.266z M273.067,281.6H230.4v76.8c0,4.719-3.823,8.533-8.533,8.533c-4.71,0-8.533-3.814-8.533-8.533
				v-85.333v-102.4c0-4.719,3.823-8.533,8.533-8.533h51.2c32.939,0,59.733,26.803,59.733,59.733
				C332.8,254.796,306.005,281.6,273.067,281.6z"/>
		</g>
	</g>
</g>
</svg>